<svg width="106" height="108" viewBox="0 0 106 108" fill="none" xmlns="http://www.w3.org/2000/svg">
<ellipse cx="52.5" cy="53.5" rx="52.5" ry="53.5" fill="url(#paint0_linear_254_399)"/>
<g clip-path="url(#paint1_diamond_254_399_clip_path)" data-figma-skip-parse="true"><g transform="matrix(-0.002 0.0505 -0.0518142 -0.00205204 63.1174 50.6289)"><rect x="0" y="0" width="1072.42" height="1125.43" fill="url(#paint1_diamond_254_399)" opacity="1" shape-rendering="crispEdges"/><rect x="0" y="0" width="1072.42" height="1125.43" transform="scale(1 -1)" fill="url(#paint1_diamond_254_399)" opacity="1" shape-rendering="crispEdges"/><rect x="0" y="0" width="1072.42" height="1125.43" transform="scale(-1 1)" fill="url(#paint1_diamond_254_399)" opacity="1" shape-rendering="crispEdges"/><rect x="0" y="0" width="1072.42" height="1125.43" transform="scale(-1)" fill="url(#paint1_diamond_254_399)" opacity="1" shape-rendering="crispEdges"/></g></g><path d="M16.1175 54.6289C14.1973 42.2734 12.333 36.2593 7.5 26.1289C13.0608 16.5503 17.1957 12.4244 27.5 6.5C27.9925 12.3919 27.2138 16.0958 34.1175 14.6289C34.4199 9.00538 36.8628 7.6549 46.1175 9.12889C49.0745 9.71808 51.7014 9.35483 48.1175 14.6289C49.9372 14.7919 50.7885 15.0482 49.6175 18.1289C45.1864 20.4506 43.2353 22.3467 40.1175 26.1289C42.7099 28.6807 43.1856 31.2124 40.1175 40.1289C42.7301 43.204 43.828 45.0093 41.6175 49.1289C39.7047 43.0659 37.094 42.237 31.6175 42.1289C24.0424 51.8633 24.0067 53.8667 34.1175 49.1289C35.5961 52.491 36.5055 54.2631 40.1175 54.6289C41.0855 58.1425 40.8635 60.1159 40.1175 63.6289C42.6664 62.5008 44.1726 62.335 47.1175 63.6289C52.3909 60.5301 55.7915 60.1131 64.1175 66.1289C79.3234 64.4388 82.5826 67.1508 73.1175 82.6289C72.5694 94.658 70.0205 99.0394 60.6175 101.629L59.1175 89.1289C38.7505 88.4476 42.593 79.4506 44.6175 66.1289C41.7841 66.6289 36.4175 67.3289 37.6175 66.1289C38.8175 64.9289 34.1175 57.9622 31.6175 54.6289H16.1175Z" data-figma-gradient-fill="{&#34;type&#34;:&#34;GRADIENT_DIAMOND&#34;,&#34;stops&#34;:[{&#34;color&#34;:{&#34;r&#34;:0.44313725829124451,&#34;g&#34;:0.81176471710205078,&#34;b&#34;:0.38039216399192810,&#34;a&#34;:1.0},&#34;position&#34;:0.0},{&#34;color&#34;:{&#34;r&#34;:0.69411766529083252,&#34;g&#34;:0.81960785388946533,&#34;b&#34;:0.38431373238563538,&#34;a&#34;:1.0},&#34;position&#34;:1.0}],&#34;stopsVar&#34;:[{&#34;color&#34;:{&#34;r&#34;:0.44313725829124451,&#34;g&#34;:0.81176471710205078,&#34;b&#34;:0.38039216399192810,&#34;a&#34;:1.0},&#34;position&#34;:0.0},{&#34;color&#34;:{&#34;r&#34;:0.69411766529083252,&#34;g&#34;:0.81960785388946533,&#34;b&#34;:0.38431373238563538,&#34;a&#34;:1.0},&#34;position&#34;:1.0}],&#34;transform&#34;:{&#34;m00&#34;:-3.9999909400939941,&#34;m01&#34;:-103.62835693359375,&#34;m02&#34;:116.93161010742188,&#34;m10&#34;:101.00001525878906,&#34;m11&#34;:-4.1040840148925781,&#34;m12&#34;:2.1809411048889160},&#34;opacity&#34;:1.0,&#34;blendMode&#34;:&#34;NORMAL&#34;,&#34;visible&#34;:true}"/>
<g clip-path="url(#paint2_diamond_254_399_clip_path)" data-figma-skip-parse="true"><g transform="matrix(-0.002 0.0505 -0.0518142 -0.00205204 63.1174 50.6289)"><rect x="0" y="0" width="1072.42" height="1125.43" fill="url(#paint2_diamond_254_399)" opacity="1" shape-rendering="crispEdges"/><rect x="0" y="0" width="1072.42" height="1125.43" transform="scale(1 -1)" fill="url(#paint2_diamond_254_399)" opacity="1" shape-rendering="crispEdges"/><rect x="0" y="0" width="1072.42" height="1125.43" transform="scale(-1 1)" fill="url(#paint2_diamond_254_399)" opacity="1" shape-rendering="crispEdges"/><rect x="0" y="0" width="1072.42" height="1125.43" transform="scale(-1)" fill="url(#paint2_diamond_254_399)" opacity="1" shape-rendering="crispEdges"/></g></g><path d="M95.5 23C101.181 31.5486 103.66 55 103.66 66C84.8868 55.8825 86 36.9633 95.5 23Z" data-figma-gradient-fill="{&#34;type&#34;:&#34;GRADIENT_DIAMOND&#34;,&#34;stops&#34;:[{&#34;color&#34;:{&#34;r&#34;:0.44313725829124451,&#34;g&#34;:0.81176471710205078,&#34;b&#34;:0.38039216399192810,&#34;a&#34;:1.0},&#34;position&#34;:0.0},{&#34;color&#34;:{&#34;r&#34;:0.69411766529083252,&#34;g&#34;:0.81960785388946533,&#34;b&#34;:0.38431373238563538,&#34;a&#34;:1.0},&#34;position&#34;:1.0}],&#34;stopsVar&#34;:[{&#34;color&#34;:{&#34;r&#34;:0.44313725829124451,&#34;g&#34;:0.81176471710205078,&#34;b&#34;:0.38039216399192810,&#34;a&#34;:1.0},&#34;position&#34;:0.0},{&#34;color&#34;:{&#34;r&#34;:0.69411766529083252,&#34;g&#34;:0.81960785388946533,&#34;b&#34;:0.38431373238563538,&#34;a&#34;:1.0},&#34;position&#34;:1.0}],&#34;transform&#34;:{&#34;m00&#34;:-3.9999909400939941,&#34;m01&#34;:-103.62835693359375,&#34;m02&#34;:116.93161010742188,&#34;m10&#34;:101.00001525878906,&#34;m11&#34;:-4.1040840148925781,&#34;m12&#34;:2.1809411048889160},&#34;opacity&#34;:1.0,&#34;blendMode&#34;:&#34;NORMAL&#34;,&#34;visible&#34;:true}"/>
<path d="M103.5 65.5C108.378 42.1524 99 28.5 95.5 23L103.5 65.5Z" fill="#A0D162"/>
<path d="M96 23.5C127 70.5 74 129.5 24 98.5C62 94.5 96 66 96 23.5Z" fill="#135994" fill-opacity="0.5"/>
<defs>
<clipPath id="paint1_diamond_254_399_clip_path"><path d="M16.1175 54.6289C14.1973 42.2734 12.333 36.2593 7.5 26.1289C13.0608 16.5503 17.1957 12.4244 27.5 6.5C27.9925 12.3919 27.2138 16.0958 34.1175 14.6289C34.4199 9.00538 36.8628 7.6549 46.1175 9.12889C49.0745 9.71808 51.7014 9.35483 48.1175 14.6289C49.9372 14.7919 50.7885 15.0482 49.6175 18.1289C45.1864 20.4506 43.2353 22.3467 40.1175 26.1289C42.7099 28.6807 43.1856 31.2124 40.1175 40.1289C42.7301 43.204 43.828 45.0093 41.6175 49.1289C39.7047 43.0659 37.094 42.237 31.6175 42.1289C24.0424 51.8633 24.0067 53.8667 34.1175 49.1289C35.5961 52.491 36.5055 54.2631 40.1175 54.6289C41.0855 58.1425 40.8635 60.1159 40.1175 63.6289C42.6664 62.5008 44.1726 62.335 47.1175 63.6289C52.3909 60.5301 55.7915 60.1131 64.1175 66.1289C79.3234 64.4388 82.5826 67.1508 73.1175 82.6289C72.5694 94.658 70.0205 99.0394 60.6175 101.629L59.1175 89.1289C38.7505 88.4476 42.593 79.4506 44.6175 66.1289C41.7841 66.6289 36.4175 67.3289 37.6175 66.1289C38.8175 64.9289 34.1175 57.9622 31.6175 54.6289H16.1175Z"/></clipPath><clipPath id="paint2_diamond_254_399_clip_path"><path d="M95.5 23C101.181 31.5486 103.66 55 103.66 66C84.8868 55.8825 86 36.9633 95.5 23Z"/></clipPath><linearGradient id="paint0_linear_254_399" x1="52.5" y1="0" x2="52.5" y2="107" gradientUnits="userSpaceOnUse">
<stop stop-color="#469EFF"/>
<stop offset="0.168269" stop-color="#0570D8"/>
<stop offset="0.615385" stop-color="#0271E7"/>
<stop offset="1" stop-color="#1983FB"/>
</linearGradient>
<linearGradient id="paint1_diamond_254_399" x1="0" y1="0" x2="500" y2="500" gradientUnits="userSpaceOnUse">
<stop stop-color="#71CF61"/>
<stop offset="1" stop-color="#B1D162"/>
</linearGradient>
<linearGradient id="paint2_diamond_254_399" x1="0" y1="0" x2="500" y2="500" gradientUnits="userSpaceOnUse">
<stop stop-color="#71CF61"/>
<stop offset="1" stop-color="#B1D162"/>
</linearGradient>
</defs>
</svg>
