<svg width="106" height="108" viewBox="0 0 106 108" fill="none" xmlns="http://www.w3.org/2000/svg">
<path d="M52.5 0.0311043C45.2264 0.0311043 38.2983 1.53844 32 4.26331C40.5483 7.27359 44.464 9.36211 55.5882 5.48088C61.8091 9.56497 65.1034 11.3941 79.5 7.63907C70.8397 2.804 62.6987 0.588299 55.2666 0.104113C54.3504 0.0556411 53.428 0.0311043 52.5 0.0311043Z" fill="#C9B286"/>
<path d="M55.5882 5.48088C44.464 9.36211 40.5483 7.27359 32 4.26331L25.5 7.63907L18.7709 12.5313C28.0492 12.7607 33.2536 12.8183 39.6324 12.197C47.8277 13.7268 51.4369 13.4026 55.5882 10.1302C60.9547 13.2832 63.4626 14.1277 66.9118 13.7472C71.2135 12.9797 76.4204 12.828 86 12.3365L79.5 7.63907C65.1034 11.3941 61.8091 9.56497 55.5882 5.48088Z" fill="#9D5A26"/>
<path d="M39.6324 12.197C33.2536 12.8183 28.0492 12.7607 18.7709 12.5313L14.5 16.616L10.7937 21.0313C21.2006 21.9245 27.1891 22.2088 35 18.3976C42.0204 20.2145 46.7435 20.2181 56.6176 18.3976C67.1741 18.948 73.4694 19.158 77.2059 21.4979C83.5473 22.9284 87.8361 23.3375 95.6386 23.0311L93.8258 20.5311L86 12.3365C76.4204 12.828 71.2135 12.9797 66.9118 13.7472C63.4626 14.1277 60.9547 13.2832 55.5882 10.1302C51.4369 13.4026 47.8277 13.7268 39.6324 12.197Z" fill="#DDBB74"/>
<path d="M35 18.3976C27.1891 22.2088 21.2006 21.9245 10.7937 21.0313L9.02426 23.5313L7.45722 26.0313L5.81603 29.0313L4.5 31.8269C16.9807 29.8117 23.5422 29.7657 31.3971 32.3488C37.9794 29.1279 41.8949 28.3562 49.9265 31.8321C54.4887 30.2148 57.588 29.4861 67.9412 29.7652C83.0004 30.3244 89.417 29.8704 99 28.6714L97.5 25.9588L95.6386 23.0311C87.8361 23.3375 83.5473 22.9284 77.2059 21.4979C73.4694 19.158 67.1741 18.948 56.6176 18.3976C46.7435 20.2181 42.0204 20.2145 35 18.3976Z" fill="#A14512"/>
<path d="M31.3971 32.3488C23.5422 29.7657 16.9807 29.8117 4.5 31.8269L3.40706 34.5313L2.38801 37.5313L1.56064 40.5313L1.02941 43.1997C13.3662 46.9027 15.8428 37.7437 21.1029 39.0661C26.3631 40.3884 49.5313 48.7773 64.3382 39.0661C66.0898 37.4002 69.1804 38.911 83.7406 46.6691C85.1892 47.4409 86.8158 47.8332 88.456 47.8962C94.374 48.1231 98.9676 49.2043 104.961 51.4525C104.949 51.1183 104.933 50.7849 104.915 50.4523L104.653 47.3437C104.525 46.213 104.363 45.093 104.167 43.9848L103.314 40.0311L101.5 34.2839L99 28.6714C89.417 29.8704 83.0004 30.3244 67.9412 29.7652C57.588 29.4861 54.4887 30.2148 49.9265 31.8321C41.8949 28.3562 37.9794 29.1279 31.3971 32.3488Z" fill="#A75540"/>
<path d="M104.81 58.1179C104.936 56.605 105 55.0751 105 53.5311C105 52.8351 104.987 52.1421 104.961 51.4525C98.9676 49.2043 94.374 48.1231 88.456 47.8962C86.8158 47.8332 85.1892 47.4409 83.7406 46.6691C69.1804 38.911 66.0898 37.4002 64.3382 39.0661C49.5313 48.7773 26.3631 40.3884 21.1029 39.0661C15.8428 37.7437 13.3662 46.9027 1.02941 43.1997L0.526804 45.923L0.208288 48.7328L0.0359982 51.5313L0.00152858 53.9437C0.00179277 53.9794 0.00209117 54.015 0.00242374 54.0506C3.97198 53.9588 6.02413 54.3515 9.26471 56.1175C16.8168 47.2419 21.0974 42.4431 33.4559 51.4671C43.6081 51.0556 48.4838 50.6915 65.8824 51.4671C79.1598 50.6015 87.7532 52.1572 104.81 58.1179Z" fill="#DFB96E"/>
<path fill-rule="evenodd" clip-rule="evenodd" d="M65.8824 51.4671C48.4838 50.6915 43.6081 51.0556 33.4559 51.4671C21.0974 42.4431 16.8168 47.2419 9.26471 56.1175C6.02413 54.3515 3.97198 53.9588 0.00242374 54.0506C0.0025699 54.0663 0.00272266 54.082 0.00288201 54.0976L0.349137 59.7345C4.05394 59.6905 5.62816 59.6825 8.23529 59.7345C18.4027 65.4008 23.9517 64.9485 33.4559 55.0841L57.6471 54.0507C87.9388 58.0169 92.0861 60.1018 103.971 63.8682L104.504 60.9207C104.63 59.9934 104.732 59.0589 104.81 58.1179C87.7532 52.1572 79.1598 50.6015 65.8824 51.4671ZM12.3529 58.1844C13.9325 51.6735 17.0783 50.2866 26.25 51.4671C24.5449 59.7553 22.471 62.6977 12.3529 58.1844Z" fill="#9A5421"/>
<path d="M8.23529 59.7345C5.62816 59.6825 4.05394 59.6905 0.349137 59.7345L0.755572 62.6262L1.32584 65.5313C17.4418 72.4591 25.4704 77.6118 53.0147 62.3181C59.1157 61.7142 62.8272 61.6753 70 62.3181C85.299 69.1488 95.5311 74.379 101.37 73.1746C101.43 73.0188 101.489 72.8626 101.548 72.7061L102.909 68.5311L103.971 63.8682C92.0861 60.1018 87.9388 58.0169 57.6471 54.0507L33.4559 55.0841C23.9517 64.9485 18.4027 65.4008 8.23529 59.7345Z" fill="#DCB770"/>
<path d="M70 62.3181C62.8272 61.6753 59.1157 61.7142 53.0147 62.3181C25.4704 77.6118 17.4418 72.4591 1.32584 65.5313L1.86967 67.7325L2.5 69.891L3.79151 73.5313L4.58768 75.4353L5.32282 77.0313L6.88265 80.0313C11.0501 76.2823 16.5981 75.2906 27.7941 75.2359C32.2894 71.5817 38.0462 71.0571 51.4706 71.6189C59.0623 70.1744 66.1638 70.2213 79.7794 70.5855C87.5184 77.0558 92.2788 78.6641 99.0282 78.3362L101.238 73.5152C101.283 73.4018 101.327 73.2883 101.37 73.1746C95.5311 74.379 85.299 69.1488 70 62.3181Z" fill="#AF9259"/>
<path fill-rule="evenodd" clip-rule="evenodd" d="M27.7941 75.2359C16.5981 75.2906 11.0501 76.2823 6.88265 80.0313L8.90544 83.3516L11.0571 86.3783C14.1375 84.8293 16.0901 83.9963 19.0441 83.5033C23.7668 82.8942 26.4586 82.4638 30.3676 83.5033C37.2009 87.8161 41.0348 88.1687 47.8676 83.5033C55.2466 87.4588 59.2197 87.8128 65.8824 83.5033C73.7139 88.2481 77.408 88.7405 82.3529 84.5367L82.642 84.7231C87.0891 87.5901 89.2794 89.0023 91.3366 89.5311L95.5 84.2334L99.0282 78.3362C92.2788 78.6641 87.5184 77.0558 79.7794 70.5855C66.1638 70.2213 59.0623 70.1744 51.4706 71.6189C38.0462 71.0571 32.2894 71.5817 27.7941 75.2359ZM67.9412 76.786C58.0557 76.9702 54.172 76.432 47.8676 75.2359C52.3439 79.3294 53.016 82.6278 70 79.8863C71.9136 78.4058 77.5657 78.3587 88.0147 78.3362C75.4376 73.3108 70.1619 72.1469 67.9412 76.786Z" fill="#9A5923"/>
<path d="M82.3529 84.5367C77.408 88.7405 73.7139 88.2481 65.8824 83.5033C59.2197 87.8128 55.2466 87.4588 47.8676 83.5033C41.0348 88.1687 37.2009 87.8161 30.3676 83.5033C26.4586 82.4638 23.7668 82.8942 19.0441 83.5033C16.0901 83.9963 14.1375 84.8293 11.0571 86.3783C22.2746 100.515 37.4882 107.369 52.5 107.447C60.9761 107.447 68.983 105.364 76.0707 101.679C81.6832 98.7313 86.871 94.6701 91.3366 89.5311C89.2794 89.0023 87.0891 87.5901 82.642 84.7231L82.3529 84.5367Z" fill="#AF925A"/>
<path d="M47.8676 75.2359C54.172 76.432 58.0557 76.9702 67.9412 76.786C70.1619 72.1469 75.4376 73.3108 88.0147 78.3362C77.5657 78.3587 71.9136 78.4058 70 79.8863C53.016 82.6278 52.3439 79.3294 47.8676 75.2359Z" fill="#AE7643"/>
<path d="M12.3529 58.1844C13.9325 51.6735 17.0783 50.2866 26.25 51.4671C24.5449 59.7553 22.471 62.6977 12.3529 58.1844Z" fill="#652509"/>
<path d="M97 24C126.4 71 75 130 25 99C63 95 97 66.5 97 24Z" fill="#682502" fill-opacity="0.6"/>
</svg>
