<svg width="106" height="108" viewBox="0 0 106 108" fill="none" xmlns="http://www.w3.org/2000/svg">
<ellipse cx="52.5" cy="53.5908" rx="52.5" ry="53.5" fill="#AF3C04"/>
<path d="M12.0201 51.0558C12.4212 39.9575 11.6108 34.7341 9.30005 24.091C18 8.59069 41.5 -3.40918 63.5 1.69035L59 10.0909C68.6525 15.9183 64.569 19.2148 58 25.0909C54.7279 27.3584 55.2747 28.3703 57 30.0909C63.4066 26.0512 71.5 31.0909 71.5 31.0909C71.5 31.0909 73.076 22.5908 79 28.5909C84.7814 34.4465 78.0749 66.7214 58.4744 74.0916C57.7933 74.3477 57.1112 73.7668 57.2054 73.0453C58.6803 61.7412 58.6898 56.8068 57 51.5909C52.6377 65.7215 46.7576 67.3783 34.7674 66.2208C34.1224 66.1586 33.7216 65.5013 33.8314 64.8626C34.3771 61.6876 32.2579 59.0699 27.1351 54.6367C26.7691 54.32 26.2287 54.319 25.8373 54.6036C22.026 57.3756 18.8215 56.535 12.432 51.906C12.1631 51.7112 12.0081 51.3876 12.0201 51.0558Z" fill="#C64A04"/>
<path d="M20 74.5909C13.5 73.091 20 61.091 26.5 64.5909C33 68.0907 26.5 76.0908 20 74.5909Z" fill="#C64A04"/>
<path d="M39.5 81.5909C37.5 80.091 39.5 74.5909 43.5 74.5909C47.5 74.5909 41.5 83.0908 39.5 81.5909Z" fill="#C64A04"/>
<path d="M76.5 17.5907C76.5 13.0907 87 22.0907 84 24.0907C81 26.0907 76.5 22.0907 76.5 17.5907Z" fill="#C64A04"/>
<path d="M12.0201 51.0558C12.4212 39.9575 11.6108 34.7341 9.30005 24.091C18 8.59069 41.5 -3.40918 63.5 1.69035L59 10.0909C68.6525 15.9183 64.569 19.2148 58 25.0909C54.7279 27.3584 55.2747 28.3703 57 30.0909C63.4066 26.0512 71.5 31.0909 71.5 31.0909C71.5 31.0909 73.076 22.5908 79 28.5909C84.7814 34.4465 78.0749 66.7214 58.4744 74.0916C57.7933 74.3477 57.1112 73.7668 57.2054 73.0453C58.6803 61.7412 58.6898 56.8068 57 51.5909C52.6377 65.7215 46.7576 67.3783 34.7674 66.2208C34.1224 66.1586 33.7216 65.5013 33.8314 64.8626C34.3771 61.6876 32.2579 59.0699 27.1351 54.6367C26.7691 54.32 26.2287 54.319 25.8373 54.6036C22.026 57.3756 18.8215 56.535 12.432 51.906C12.1631 51.7112 12.0081 51.3876 12.0201 51.0558Z" stroke="#C64A04"/>
<path d="M20 74.5909C13.5 73.091 20 61.091 26.5 64.5909C33 68.0907 26.5 76.0908 20 74.5909Z" stroke="#C64A04"/>
<path d="M39.5 81.5909C37.5 80.091 39.5 74.5909 43.5 74.5909C47.5 74.5909 41.5 83.0908 39.5 81.5909Z" stroke="#C64A04"/>
<path d="M76.5 17.5907C76.5 13.0907 87 22.0907 84 24.0907C81 26.0907 76.5 22.0907 76.5 17.5907Z" stroke="#C64A04"/>
<path d="M96.6 23.5908C126 70.5908 74.6 129.591 24.6 98.5908C62.6 94.5908 96.6 66.0908 96.6 23.5908Z" fill="#682502" fill-opacity="0.6"/>
</svg>
