<svg width="106" height="107" viewBox="0 0 106 107" fill="none" xmlns="http://www.w3.org/2000/svg">
<ellipse cx="52.5" cy="53.5" rx="52.5" ry="53.5" fill="#BE9A60"/>
<path d="M95.5 22C126.5 72 76.5 129 22.5 98C60.5 94 95.5 64.5 95.5 22Z" fill="#9B6C42" fill-opacity="0.7"/>
<path d="M54.9997 47.5C54.0628 45.6265 55.8618 41.4768 59.2845 38.9816C59.6849 38.6897 60.2448 38.779 60.5298 39.1844C64.8363 45.3113 55.9645 49.429 54.9997 47.5Z" fill="#86612E" stroke="#86612E"/>
<path d="M26 19C25.0547 17.1099 29.0222 14.7731 33.4674 13.256C33.9186 13.102 34.4306 13.3003 34.5731 13.7552C35.9952 18.2954 26.9488 20.8971 26 19Z" fill="#86612E" stroke="#86612E"/>
<path d="M19.1406 82.9998C18.168 81.0551 20.8448 81.947 23.7515 83.8363C23.9142 83.942 24.0447 84.0958 24.1097 84.2786C25.2047 87.3611 20.113 84.944 19.1406 82.9998Z" fill="#86612E" stroke="#86612E"/>
<path d="M39 90C38.0569 88.1142 39.4619 87.562 43.6042 86.2477C44.0586 86.1035 44.5663 86.301 44.738 86.7457C46.4167 91.0956 39.9484 91.8963 39 90Z" fill="#86612E" stroke="#86612E"/>
<path d="M84.0001 61C83.0611 59.1227 81.2415 52.3993 83.9167 50.3411C84.2407 50.0917 84.6961 50.186 84.955 50.5026C88.715 55.1003 84.9642 62.9278 84.0001 61Z" fill="#86612E" stroke="#86612E"/>
<path d="M95.4583 53C94.8096 51.2845 93.304 47.5147 94.7176 45.6438C95.0477 45.207 95.6852 45.3795 95.8854 45.889C97.2951 49.4761 96.1357 54.7915 95.4583 53Z" fill="#86612E" stroke="#86612E"/>
<path d="M51.5 97C50.7793 96.5641 49.9856 95.7181 51.5004 94.5409C51.9326 94.205 52.5575 94.3774 52.788 94.874C54.0054 97.4958 52.2511 97.4543 51.5 97Z" fill="#86612E" stroke="#86612E"/>
<path d="M66 91.5C65.3456 89.7693 67.3749 88.3184 69.6433 86.9917C70.1159 86.7154 70.746 86.8808 70.8646 87.4152C71.5632 90.5626 66.6717 93.2764 66 91.5Z" fill="#86612E" stroke="#86612E"/>
<path d="M84.0001 82C83.1208 82 82.0485 79.263 83.5541 77.6096C83.9226 77.2049 84.556 77.3788 84.7877 77.8748C86.1313 80.7515 84.9123 82 84.0001 82Z" fill="#86612E" stroke="#86612E"/>
<path d="M34.9999 62C34.2089 60.4184 35.5165 60.0781 37.4153 59.3787C37.9489 59.1822 38.5763 59.4494 38.5975 60.0175C38.6856 62.3858 35.8107 63.6211 34.9999 62Z" fill="#86612E" stroke="#86612E"/>
<path d="M78.5 21C77.064 21 73.9238 17.7921 77.8234 16.2024C78.1627 16.064 78.5567 16.1572 78.8054 16.4265C81.3555 19.1881 79.9277 21 78.5 21Z" fill="#86612E" stroke="#86612E"/>
<path d="M74.5001 43.5C73.5326 41.5657 73.0334 39.1637 77.8753 39.008C78.1962 38.9977 78.5034 39.1532 78.6752 39.4244C81.6292 44.0837 75.4714 45.4422 74.5001 43.5Z" fill="#86612E" stroke="#86612E"/>
<path d="M44.9999 17C44.0611 16.0614 45.449 15.1228 49.5477 13.7708C50.0261 13.6129 50.576 13.8435 50.6416 14.343C51.0107 17.1563 45.9145 17.9145 44.9999 17Z" fill="#86612E" stroke="#86612E"/>
<path d="M12 60.5C11.0689 58.6382 10.4536 54.0954 13.5048 51.5355C13.9015 51.2027 14.4938 51.3158 14.749 51.7663C17.5061 56.6337 12.9498 62.3992 12 60.5Z" fill="#86612E" stroke="#86612E"/>
<path d="M27 41.5C26.0726 39.6458 26.3181 36.8513 29.4526 34.5365C29.883 34.2186 30.494 34.3485 30.7429 34.8222C33.406 39.8892 27.9497 43.3989 27 41.5Z" fill="#86612E" stroke="#86612E"/>
</svg>
