<svg width="205" height="107" viewBox="0 0 205 107" fill="none" xmlns="http://www.w3.org/2000/svg">
<path d="M104.026 0C90.0412 0 77.4664 5.68845 68.1948 14.8933C82.2159 12.7321 104.139 13.4565 140.326 14.8494C130.898 5.65104 118.109 0 104.026 0Z" fill="#D18013"/>
<path d="M152.893 33.9059C152.893 33.9059 148.179 21.5 140.326 14.8494C104.139 13.4565 82.2159 12.7321 68.1948 14.8933C61.5337 21.5064 56.5776 29.9345 54.0283 39.3721C86.8617 41.3721 152.893 33.9059 152.893 33.9059Z" fill="#EB9A24"/>
<path d="M154.84 40C154.309 37.9166 153.657 35.8825 152.893 33.9059C152.893 33.9059 86.8617 41.3721 54.0283 39.3721C53.8826 39.9115 53.7448 40.4542 53.615 41C53.2249 42.6396 52.907 44.3077 52.6648 46C53.6076 46.1614 54.5127 46.3216 55.3968 46.478C63.4545 47.9036 69.768 49.0206 87.0258 48C96.3629 50.2321 102.472 50.6861 115.526 49.5C120.653 48.4522 131.527 46.0306 154.84 40Z" fill="#DC6F1A"/>
<path d="M147.494 83.5119C114.103 95.8173 94.7198 95.3935 63.2284 87.0368C72.6849 99.2455 87.3534 107 104.026 107C122.106 107 138.051 97.687 147.494 83.5119Z" fill="#D38217"/>
<path d="M54.0283 39.3721C55.1065 35.3805 56.6153 31.5695 58.5015 28C-49.3206 54 17.1792 73.519 58.1791 79.1526C57.964 78.7402 57.7543 78.3244 57.5497 77.9053C55.5127 73.7321 53.9978 69.2351 53.0885 64.5C20.1791 58.4244 20.6791 48.5 53.615 41C53.7448 40.4542 53.8826 39.9115 54.0283 39.3721Z" fill="#BD490E"/>
<path fill-rule="evenodd" clip-rule="evenodd" d="M149.179 80.5C148.677 81.353 148.041 82.6906 147.494 83.5119C114.103 95.8173 94.7198 95.3935 63.2284 87.0368C61.3256 84.5801 59.6337 81.9431 58.1791 79.1526C89.4792 83.4534 112.925 86.151 149.179 80.5ZM155.085 66C155.085 66 156.526 57.8043 156.526 53.5C156.526 48.8366 154.84 40 154.84 40C131.527 46.0306 120.653 48.4522 115.526 49.5C102.472 50.6861 96.3629 50.2321 87.0258 48C69.768 49.0206 63.4545 47.9036 55.3968 46.478C54.5127 46.3216 53.6076 46.1614 52.6648 46C52.2907 48.6137 52.0971 51.2853 52.0971 54C52.0971 57.601 52.4378 61.1115 53.0885 64.5C54.7928 64.8146 56.4655 65.1269 58.1135 65.4346C86.2495 70.687 107.191 74.5964 155.085 66Z" fill="#E99C26"/>
<path d="M149.179 80.5C151.832 75.0834 152.937 71.7754 155.085 66C107.191 74.5964 86.2495 70.687 58.1135 65.4346C56.4655 65.1269 54.7928 64.8146 53.0885 64.5C53.9978 69.2351 55.5127 73.7321 57.5497 77.9053C57.7543 78.3244 57.964 78.7402 58.1791 79.1526C89.4792 83.4534 112.925 86.151 149.179 80.5Z" fill="#BD490E"/>
<path d="M151.407 30.5C152.379 32.5525 152.893 33.9059 152.893 33.9059C153.657 35.8825 154.309 37.9166 154.84 40C204.179 52 163.679 64.4575 155.085 66C152.937 71.7754 151.832 75.0834 149.179 80.5C228 66 218 39.3721 151.407 30.5Z" fill="#BD490E"/>
</svg>
