<svg width="106" height="107" viewBox="0 0 106 107" fill="none" xmlns="http://www.w3.org/2000/svg">
<ellipse cx="52.5375" cy="53.5" rx="52.5" ry="53.5" fill="#F19A10"/>
<path d="M28.0375 41C27.3942 39.3027 28.0659 36.4723 30.2109 34.2592C30.627 33.8299 31.3289 33.943 31.5944 34.4786C34.3341 40.0066 28.7182 42.7958 28.0375 41Z" fill="#C16B00" stroke="#C16B00"/>
<path d="M80.0376 21C78.6596 20.5407 76.809 18.6333 78.6833 16.555C78.9986 16.2052 79.5395 16.2058 79.8848 16.526C82.8603 19.2849 81.4489 21.4705 80.0376 21Z" fill="#C16B00" stroke="#C16B00"/>
<path d="M60.4203 63C57.3031 63.5 59.2107 68.6232 61.1865 68C63.1623 67.3768 63.5375 62.5 60.4203 63Z" fill="#C16B00" stroke="#C16B00"/>
<path d="M46.0375 86.0001C44.5375 83.5005 39.5375 87.5 40.0375 89.5001C40.5374 91.5001 47.5375 88.4998 46.0375 86.0001Z" fill="#C16B00" stroke="#C16B00"/>
<path d="M24.5375 84.0001C23.0375 81.5004 20.0376 79.9999 20.5375 82C21.0375 84 26.0375 86.4997 24.5375 84.0001Z" fill="#C16B00" stroke="#C16B00"/>
<path d="M73.0375 86.5C71.5376 84.0004 66.5375 88.9998 67.0375 90.9999C67.5374 92.9999 74.5375 88.9996 73.0375 86.5Z" fill="#C16B00" stroke="#C16B00"/>
<path d="M47.5375 11.5C46.8658 9.72784 49.1899 10.3925 52.3483 10.0826C52.7636 10.0419 53.1802 10.2456 53.3486 10.6275C55.4229 15.3312 48.2283 13.3225 47.5375 11.5Z" fill="#C16B00" stroke="#C16B00"/>
<path d="M23.5375 21C22.8784 19.2612 25.9421 16.5141 29.3302 14.5277C29.8325 14.2332 30.4898 14.4626 30.5255 15.0437C30.7554 18.79 24.1955 22.7361 23.5375 21Z" fill="#C16B00" stroke="#C16B00"/>
<path d="M3.29517 36.6117C-0.837717 47.3837 -0.387515 64.3202 4.64569 74.2577C4.86548 74.6916 5.37606 74.8868 5.82933 74.7102C7.7708 73.954 9.19255 73.039 10.1025 71.9381C10.8171 71.0737 13.7639 70.2477 14.5007 71.0933C18.533 75.7219 22.1477 76.5475 28.6597 71.2374C29.129 70.8547 29.8299 70.9558 30.1877 71.4443C31.7595 73.5901 32.8945 74.0586 34.1784 73.4347C34.9724 73.0489 36.0373 73.4743 36.0373 74.357V78.5672C36.0373 78.8432 36.1518 79.108 36.3543 79.2955C39.9632 82.6363 42.1197 83.6691 45.732 79.3715C45.9268 79.1397 45.9977 78.8212 45.9349 78.525C43.7956 68.4335 45.7707 65.9386 51.5999 64.6855C52.1215 64.5734 52.4808 64.0805 52.4137 63.5513C51.0942 53.1529 51.998 50.3208 55.4951 50.4046C56.0645 50.4183 56.5833 50.0221 56.6652 49.4585C57.5668 43.2572 60.4632 42.4033 67.7366 44.2864C68.2015 44.4068 68.5091 44.8484 68.4742 45.3274C68.0343 51.3647 68.3509 54.4191 73.4185 53.7024C74.0155 53.618 74.5823 54.035 74.6379 54.6353C75.2287 61.0171 76.0345 64.1488 79.7374 63.0154C80.3932 62.8147 81.1164 63.2094 81.1826 63.892C81.9002 71.2959 81.7313 76.6995 90.2345 74.0948C90.4271 74.0358 90.6034 73.9125 90.7314 73.757C93.1384 70.8316 95.7698 70.8243 98.4181 74.9887C98.8873 75.7265 100.036 75.6622 100.326 74.8372C107.374 54.7767 105.096 39.721 96.3542 24.93C95.8447 24.0678 94.51 24.4496 94.4337 25.4482C94.0762 30.1239 92.8773 32.606 91.7327 33.7454C91.2403 34.2355 90.6039 33.766 90.6164 33.0714C90.6668 30.2798 89.9324 28.895 87.6221 27.7662C87.2705 27.5944 86.8479 27.6664 86.5718 27.9437C84.8781 29.6451 84.5374 31.102 85.3565 33.9137C85.4616 34.2747 85.3713 34.6679 85.0995 34.9277C83.7356 36.2311 81.8188 37.7962 82.5373 35.9998C83.2144 34.3072 81.313 31.3014 79.8033 29.4072C79.4165 28.922 78.6824 28.9438 78.331 29.4552C77.4122 30.7925 76.7801 32.17 76.3313 34.1369C76.0772 35.2499 74.2435 35.3758 73.9562 34.2709C67.8407 10.7485 65.9916 10.9046 63.652 11.4439C62.8241 11.6347 62.0197 12.7037 62.3333 13.4933C64.5983 19.1968 65.9357 23.1715 65.5783 32.0985C65.5579 32.6101 65.1473 33.0292 64.6367 32.9915C61.037 32.7255 58.1503 29.639 53.6041 24.265C53.1185 23.6909 52.1961 23.8367 51.9381 24.543C49.9914 29.8714 50.0421 33.593 52.4355 40.2198C52.5009 40.4009 52.5165 40.5982 52.4682 40.7846C51.3592 45.0663 46.6984 51.3084 46.0373 47.9998C45.5489 45.555 42.232 43.265 39.4052 42.0292C38.7592 41.7468 38.0743 42.2626 38.1141 42.9666C38.2784 45.8739 38.5639 47.846 40.7981 50.2486C40.951 50.4129 41.0513 50.6236 41.0712 50.8472C41.6505 57.3819 38.6584 60.7795 27.0373 65.9998C25.4479 66.5497 23.7985 64.7959 20.182 59.7038C20.088 59.5714 20.0261 59.4157 20.005 59.2547C19.6988 56.914 19.6183 55.5061 22.8825 54.2372C23.272 54.0858 23.5459 53.7102 23.5567 53.2925C23.9909 36.5306 22.2037 35.2047 20.3405 28.6198C20.1745 28.0331 19.5252 27.7026 19.0152 28.0366C16.5585 29.6457 15.1893 33.3399 13.804 44.7174C13.6985 45.5839 12.7052 45.8472 12.366 45.0429C11.6234 43.2817 11.0964 40.7052 10.5247 36.6717C10.3814 35.6608 8.37393 35.0991 7.41338 35.4454C6.57684 35.7469 5.52585 35.9233 4.19912 35.9812C3.79859 35.9987 3.43878 36.2374 3.29517 36.6117Z" fill="#FDC82A" stroke="#FDC82A"/>
</svg>
