<svg xmlns="http://www.w3.org/2000/svg" fill="none" viewBox="64 64 32 32" width="32" height="32"><g filter="url(#a)" fill="#fff"><path d="M82.269 64.94a3.211 3.211 0 0 0 -4.538 0L64.939 77.731a3.211 3.211 0 0 0 0 4.538L77.731 95.061a3.211 3.211 0 0 0 4.538 0l6.396 -6.396h-4.333l-3.197 3.198a1.604 1.604 0 0 1 -2.27 0L68.139 81.135a1.604 1.604 0 0 1 0 -2.27L78.865 68.139a1.604 1.604 0 0 1 2.27 0l3.198 3.198h4.332zm3.797 8.128 5.796 5.797c0.626 0.627 0.626 1.643 0 2.27l-5.797 5.797h4.333l4.661 -4.663a3.211 3.211 0 0 0 0 -4.538l-4.661 -4.663z"/><path d="M74.755 84.786q-0.211 0 -0.385 -0.05a0.853 0.853 0 0 1 -0.302 -0.155 0.704 0.704 0 0 1 -0.198 -0.263 0.96 0.96 0 0 1 -0.07 -0.373q0 -0.224 0.075 -0.387a0.747 0.747 0 0 1 0.211 -0.271 0.853 0.853 0 0 1 0.301 -0.149 1.323 1.323 0 0 1 0.917 0.082v0.439h-0.075l-0.073 -0.06a0.64 0.64 0 0 0 -0.231 -0.118 0.533 0.533 0 0 0 -0.164 -0.021 0.395 0.395 0 0 0 -0.318 0.131 0.533 0.533 0 0 0 -0.11 0.355q0 0.231 0.113 0.352a0.427 0.427 0 0 0 0.324 0.121 0.587 0.587 0 0 0 0.46 -0.196h0.073v0.439a1.387 1.387 0 0 1 -0.255 0.091 1.067 1.067 0 0 1 -0.292 0.034m2.506 -0.043h-0.518v-0.798q0 -0.097 -0.011 -0.193a0.427 0.427 0 0 0 -0.034 -0.144 0.171 0.171 0 0 0 -0.085 -0.077 0.48 0.48 0 0 0 -0.297 -0.001 0.747 0.747 0 0 0 -0.156 0.073v1.14h-0.515v-2.229h0.515v0.798q0.139 -0.107 0.263 -0.164a0.64 0.64 0 0 1 0.283 -0.058q0.261 0 0.406 0.153 0.147 0.15 0.148 0.453zm1.449 -0.42v-0.335a5.333 5.333 0 0 0 -0.226 0.025 1.067 1.067 0 0 0 -0.185 0.034 0.256 0.256 0 0 0 -0.118 0.071 0.181 0.181 0 0 0 -0.041 0.122q0 0.05 0.009 0.082t0.043 0.06 0.079 0.043a0.533 0.533 0 0 0 0.144 0.014q0.077 0 0.156 -0.032a0.533 0.533 0 0 0 0.14 -0.083m0 0.25q-0.041 0.032 -0.102 0.076a1.067 1.067 0 0 1 -0.116 0.07 0.853 0.853 0 0 1 -0.337 0.067 0.533 0.533 0 0 1 -0.384 -0.142 0.469 0.469 0 0 1 -0.154 -0.363q0 -0.176 0.078 -0.288 0.08 -0.111 0.224 -0.176 0.143 -0.064 0.355 -0.092 0.211 -0.028 0.439 -0.039v-0.009q0 -0.132 -0.109 -0.183a0.747 0.747 0 0 0 -0.32 -0.051 1.067 1.067 0 0 0 -0.273 0.046 3.2 3.2 0 0 0 -0.207 0.068h-0.048v-0.388a2.987 2.987 0 0 1 0.635 -0.08q0.439 0 0.635 0.135 0.196 0.135 0.196 0.425v1.094h-0.512zm2.665 -0.656q0 0.198 -0.062 0.363a0.747 0.747 0 0 1 -0.159 0.269 0.683 0.683 0 0 1 -0.512 0.226 0.747 0.747 0 0 1 -0.235 -0.03 1.067 1.067 0 0 1 -0.195 -0.081V85.333h-0.516v-2.198h0.516v0.167q0.118 -0.096 0.242 -0.154a0.64 0.64 0 0 1 0.286 -0.059q0.301 0 0.467 0.221t0.167 0.606m-0.531 0.011q0 -0.235 -0.08 -0.341t-0.254 -0.107a0.64 0.64 0 0 0 -0.299 0.085v0.811q0.052 0.019 0.111 0.026 0.059 0.005 0.116 0.005 0.205 0 0.305 -0.118 0.1 -0.119 0.1 -0.362m1.932 0.802a1.707 1.707 0 0 1 -0.404 0.046q-0.299 0 -0.448 -0.122 -0.145 -0.122 -0.146 -0.416v-0.753h-0.211v-0.349h0.211v-0.46h0.516v0.459h0.482v0.35h-0.482v0.571l0.001 0.147q0.001 0.064 0.023 0.113a0.16 0.16 0 0 0 0.069 0.081 0.32 0.32 0 0 0 0.149 0.028 0.427 0.427 0 0 0 0.105 -0.017 0.427 0.427 0 0 0 0.092 -0.032h0.043zm1.894 -0.694H83.488a0.373 0.373 0 0 0 0.143 0.289q0.134 0.1 0.391 0.1 0.162 0 0.317 -0.059a1.067 1.067 0 0 0 0.242 -0.126h0.057v0.414a1.707 1.707 0 0 1 -0.672 0.133q-0.483 0 -0.741 -0.218t-0.258 -0.621q0 -0.397 0.243 -0.629 0.245 -0.235 0.671 -0.235 0.393 0 0.59 0.201 0.198 0.196 0.197 0.57zm-0.513 -0.302q-0.004 -0.162 -0.08 -0.243 -0.077 -0.083 -0.237 -0.082a0.373 0.373 0 0 0 -0.245 0.077q-0.096 0.078 -0.107 0.249zm2.042 -0.106h-0.045a0.427 0.427 0 0 0 -0.107 -0.018 1.067 1.067 0 0 0 -0.317 0.009q-0.084 0.015 -0.181 0.049v1.077h-0.515v-1.609h0.515v0.236a1.067 1.067 0 0 1 0.297 -0.192 0.64 0.64 0 0 1 0.293 -0.048l0.06 0.004zm-13.668 -3.01v-0.602q-0.188 0.016 -0.405 0.043t-0.332 0.063a0.459 0.459 0 0 0 -0.213 0.128 0.32 0.32 0 0 0 -0.071 0.219 0.533 0.533 0 0 0 0.015 0.147q0.016 0.057 0.077 0.108a0.427 0.427 0 0 0 0.142 0.077 1.067 1.067 0 0 0 0.256 0.023 0.875 0.875 0 0 0 0.531 -0.206m0 0.448 -0.185 0.137q-0.111 0.08 -0.208 0.126a1.28 1.28 0 0 1 -0.283 0.09 1.6 1.6 0 0 1 -0.321 0.032 0.981 0.981 0 0 1 -0.689 -0.256 0.853 0.853 0 0 1 -0.277 -0.651q0 -0.317 0.142 -0.517a0.96 0.96 0 0 1 0.4 -0.316q0.256 -0.116 0.637 -0.165 0.381 -0.048 0.789 -0.071v-0.016q0 -0.239 -0.195 -0.329 -0.195 -0.093 -0.576 -0.093 -0.228 0 -0.487 0.082a6.4 6.4 0 0 0 -0.373 0.124h-0.084v-0.698q0.146 -0.038 0.476 -0.09 0.331 -0.054 0.662 -0.054 0.788 0 1.138 0.245 0.352 0.24 0.352 0.761v1.966h-0.917zm3.116 0.383q-0.379 0 -0.694 -0.09a1.493 1.493 0 0 1 -0.545 -0.278 1.28 1.28 0 0 1 -0.357 -0.474 1.6 1.6 0 0 1 -0.126 -0.67q0 -0.403 0.134 -0.698 0.137 -0.293 0.38 -0.486 0.235 -0.182 0.542 -0.268a2.389 2.389 0 0 1 1.653 0.146v0.79h-0.131l-0.132 -0.108a1.173 1.173 0 0 0 -0.418 -0.213 1.067 1.067 0 0 0 -0.294 -0.039q-0.373 0 -0.574 0.237 -0.198 0.235 -0.198 0.64 0 0.416 0.204 0.633 0.208 0.217 0.583 0.217 0.176 0 0.316 -0.038a1.067 1.067 0 0 0 0.235 -0.096q0.089 -0.051 0.156 -0.108t0.124 -0.111h0.131v0.79q-0.219 0.102 -0.459 0.162a2.133 2.133 0 0 1 -0.528 0.062m4.243 -2.124v2.057h-0.928v-1.45q0 -0.212 -0.011 -0.359a0.64 0.64 0 0 0 -0.057 -0.242 0.277 0.277 0 0 0 -0.141 -0.134 0.64 0.64 0 0 0 -0.261 -0.044 0.64 0.64 0 0 0 -0.265 0.057q-0.128 0.053 -0.231 0.116v2.057h-0.923v-2.901h0.923v0.32q0.24 -0.188 0.457 -0.294 0.219 -0.106 0.482 -0.106 0.285 0 0.503 0.129 0.218 0.128 0.341 0.374 0.275 -0.235 0.538 -0.369t0.513 -0.134q0.467 0 0.708 0.282 0.243 0.282 0.243 0.811v1.888h-0.928v-1.449q0 -0.214 -0.011 -0.362a0.64 0.64 0 0 0 -0.053 -0.24 0.267 0.267 0 0 0 -0.139 -0.134 0.64 0.64 0 0 0 -0.267 -0.044 0.64 0.64 0 0 0 -0.226 0.042 1.6 1.6 0 0 0 -0.269 0.131m4.399 0.701h-1.965v-0.711h1.965zm5.149 -1.523 -0.892 2.88h-0.979l-0.587 -1.941 -0.577 1.941h-0.992l-0.885 -2.88h0.97l0.492 1.984 0.615 -1.984h0.818l0.583 1.984 0.485 -1.984z"/></g><defs><filter id="a" x="0" y="0" width="150" height="150" filterUnits="userSpaceOnUse" color-interpolation-filters="sRGB"><feFlood flood-opacity="0" result="BackgroundImageFix"/><feColorMatrix in="SourceAlpha" values="0 0 0 0 0 0 0 0 0 0 0 0 0 0 0 0 0 0 127 0" result="hardAlpha"/><feOffset/><feGaussianBlur stdDeviation="2"/><feComposite in2="hardAlpha" operator="out"/><feColorMatrix values="0 0 0 0 0.466667 0 0 0 0 0.0862745 0 0 0 0 0.815686 0 0 0 1 0"/><feBlend in2="BackgroundImageFix" result="effect1_dropShadow_658_1413"/><feColorMatrix in="SourceAlpha" values="0 0 0 0 0 0 0 0 0 0 0 0 0 0 0 0 0 0 127 0" result="hardAlpha"/><feOffset/><feGaussianBlur stdDeviation="5"/><feComposite in2="hardAlpha" operator="out"/><feColorMatrix values="0 0 0 0 0.466667 0 0 0 0 0.0862745 0 0 0 0 0.815686 0 0 0 1 0"/><feBlend in2="effect1_dropShadow_658_1413" result="effect2_dropShadow_658_1413"/><feColorMatrix in="SourceAlpha" values="0 0 0 0 0 0 0 0 0 0 0 0 0 0 0 0 0 0 127 0" result="hardAlpha"/><feOffset/><feGaussianBlur stdDeviation="20"/><feComposite in2="hardAlpha" operator="out"/><feColorMatrix values="0 0 0 0 0.466667 0 0 0 0 0.0862745 0 0 0 0 0.815686 0 0 0 0.6 0"/><feBlend in2="effect2_dropShadow_658_1413" result="effect3_dropShadow_658_1413"/><feColorMatrix in="SourceAlpha" values="0 0 0 0 0 0 0 0 0 0 0 0 0 0 0 0 0 0 127 0" result="hardAlpha"/><feOffset/><feGaussianBlur stdDeviation="30"/><feComposite in2="hardAlpha" operator="out"/><feColorMatrix values="0 0 0 0 0.466667 0 0 0 0 0.0862745 0 0 0 0 0.815686 0 0 0 0.99661 0"/><feBlend in2="effect3_dropShadow_658_1413" result="effect4_dropShadow_658_1413"/><feBlend in="SourceGraphic" in2="effect4_dropShadow_658_1413" result="shape"/></filter></defs></svg>