<svg width="30" height="30" viewBox="0 0 30 30" fill="none" xmlns="http://www.w3.org/2000/svg">
<path d="M17.1274 0.881184C15.9525 -0.293729 14.0475 -0.293727 12.8726 0.881186L0.881184 12.8726C-0.293729 14.0475 -0.293728 15.9525 0.881185 17.1274L12.8726 29.1188C14.0475 30.2937 15.9525 30.2937 17.1274 29.1188L23.1231 23.1231H19.0615L16.0637 26.121C15.4762 26.7084 14.5238 26.7084 13.9363 26.121L3.87905 16.0637C3.29159 15.4762 3.29159 14.5238 3.87905 13.9363L13.9363 3.87905C14.5238 3.29159 15.4762 3.29159 16.0637 3.87905L19.0615 6.87691H23.1231L17.1274 0.881184ZM20.6862 8.50153L26.121 13.9363C26.7084 14.5238 26.7084 15.4762 26.121 16.0637L20.6862 21.4985H24.7477L29.1188 17.1274C30.2937 15.9525 30.2937 14.0475 29.1188 12.8726L24.7477 8.50153H20.6862Z" fill="#AD54FF"/>
<path d="M7.99399 15.665V15.1006C7.8768 15.1103 7.74998 15.124 7.61353 15.1416C7.47708 15.1577 7.37354 15.177 7.3029 15.1995C7.21622 15.2268 7.14959 15.267 7.10304 15.3201C7.05809 15.3716 7.03562 15.4399 7.03562 15.5251C7.03562 15.5814 7.04044 15.6272 7.05009 15.6626C7.05973 15.698 7.08381 15.7317 7.12233 15.7639C7.15925 15.7961 7.2034 15.8202 7.25477 15.8363C7.30614 15.8507 7.3864 15.858 7.49556 15.858C7.58225 15.858 7.66974 15.8403 7.75803 15.8049C7.84793 15.7695 7.92659 15.7229 7.99401 15.665L7.99399 15.665ZM7.99399 16.0847C7.94744 16.1201 7.88964 16.1627 7.82062 16.2125C7.75159 16.2624 7.68657 16.3018 7.62557 16.3307C7.54049 16.3693 7.45219 16.3974 7.36069 16.4151C7.26919 16.4344 7.16885 16.4441 7.0597 16.4441C6.80284 16.4441 6.58773 16.3645 6.41436 16.2053C6.24098 16.0461 6.1543 15.8427 6.1543 15.5951C6.1543 15.3973 6.19844 15.2357 6.28674 15.1103C6.37503 14.9849 6.50024 14.886 6.66238 14.8136C6.82291 14.7413 7.02197 14.6898 7.25956 14.6592C7.49714 14.6287 7.74356 14.6062 7.99881 14.5917V14.5772C7.99881 14.4277 7.9378 14.3248 7.8158 14.2685C7.6938 14.2106 7.514 14.1817 7.27641 14.1817C7.13354 14.1817 6.98104 14.2074 6.8189 14.2589C6.65676 14.3087 6.54037 14.3473 6.46974 14.3746H6.39028V13.721C6.48178 13.6969 6.63027 13.6687 6.83575 13.6366C7.04284 13.6028 7.24993 13.5859 7.45701 13.5859C7.94984 13.5859 8.30542 13.6623 8.52374 13.8151C8.74367 13.9662 8.85364 14.2042 8.85364 14.529V16.3717H7.99399V16.0847Z" fill="#AD54FF"/>
<path d="M10.9142 16.4441C10.6769 16.4441 10.4597 16.4159 10.2627 16.3596C10.0674 16.3032 9.89703 16.2163 9.75172 16.0989C9.60802 15.9814 9.49662 15.8333 9.4175 15.6547C9.33839 15.4761 9.29883 15.2669 9.29883 15.0271C9.29883 14.7744 9.34081 14.5563 9.42477 14.3729C9.51034 14.1894 9.62901 14.0373 9.78078 13.9166C9.92771 13.8024 10.0972 13.7187 10.2894 13.6656C10.4815 13.6125 10.6809 13.5859 10.8876 13.5859C11.0733 13.5859 11.2444 13.6061 11.401 13.6463C11.5576 13.6865 11.7038 13.7388 11.8394 13.8032V14.5443H11.7159C11.682 14.5153 11.6408 14.4815 11.5924 14.4429C11.5455 14.4043 11.4874 14.3664 11.418 14.3294C11.3518 14.294 11.2791 14.2651 11.2 14.2425C11.1209 14.2184 11.0289 14.2063 10.9239 14.2063C10.6914 14.2063 10.5122 14.2803 10.3863 14.4284C10.2619 14.5749 10.1998 14.7744 10.1998 15.0271C10.1998 15.2878 10.2635 15.4857 10.3911 15.6209C10.5203 15.7561 10.7027 15.8237 10.9384 15.8237C11.0482 15.8237 11.1467 15.8116 11.2339 15.7875C11.3227 15.7617 11.3962 15.732 11.4543 15.6981C11.5092 15.666 11.5576 15.6322 11.5996 15.5968C11.6416 15.5613 11.6803 15.5268 11.7159 15.493H11.8394V16.234C11.7021 16.2984 11.5584 16.3491 11.4083 16.3861C11.2597 16.4247 11.0951 16.4441 10.9142 16.4441V16.4441Z" fill="#AD54FF"/>
<path d="M14.8918 14.4529V16.3805H14.0215V15.022C14.0215 14.8896 14.0183 14.7774 14.0119 14.6854C14.0055 14.5917 13.9878 14.5159 13.959 14.4577C13.9301 14.3996 13.886 14.3576 13.8267 14.3318C13.769 14.3044 13.6873 14.2906 13.5815 14.2906C13.4966 14.2906 13.414 14.3084 13.3339 14.3439C13.2537 14.3778 13.1816 14.4141 13.1175 14.4529V16.3805H12.252V13.661H13.1175V13.9613C13.2665 13.8434 13.4092 13.7514 13.5454 13.6852C13.6817 13.619 13.8324 13.5859 13.9974 13.5859C14.1754 13.5859 14.3324 13.6263 14.4687 13.707C14.6049 13.7861 14.7115 13.9032 14.7884 14.0582C14.9615 13.9113 15.1298 13.7958 15.2933 13.7119C15.4568 13.6279 15.6171 13.5859 15.7742 13.5859C16.0659 13.5859 16.2871 13.6739 16.4378 13.8499C16.59 14.0259 16.6662 14.2793 16.6662 14.6103V16.3805H15.7958V15.022C15.7958 14.888 15.7926 14.775 15.7862 14.683C15.7814 14.5909 15.7646 14.5159 15.7357 14.4577C15.7085 14.3996 15.6652 14.3576 15.6059 14.3318C15.5466 14.3044 15.4633 14.2906 15.3559 14.2906C15.2837 14.2906 15.2132 14.3036 15.1443 14.3294C15.0754 14.3536 14.9912 14.3948 14.8919 14.4529L14.8918 14.4529Z" fill="#AD54FF"/>
<path d="M19.0157 15.1103H17.1738V14.4434H19.0157V15.1103Z" fill="#AD54FF"/>
<path d="M23.843 13.6816L23.0067 16.381H22.0886L21.5383 14.5614L20.9975 16.381H20.0674L19.2383 13.6816H20.1467L20.6082 15.5421L21.185 13.6816H21.9516L22.4996 15.5421L22.9538 13.6816H23.843Z" fill="#AD54FF"/>
<path d="M10.0148 19.5398C9.88318 19.5398 9.76278 19.5241 9.65356 19.4928C9.54525 19.4615 9.45081 19.4131 9.37024 19.3478C9.29057 19.2824 9.2288 19.2001 9.18494 19.1007C9.14107 19.0013 9.11914 18.885 9.11914 18.7516C9.11914 18.611 9.14242 18.4897 9.18896 18.3877C9.23641 18.2856 9.30221 18.201 9.38635 18.1339C9.46781 18.0704 9.56181 18.0238 9.66834 17.9943C9.77486 17.9647 9.88542 17.95 10 17.95C10.1029 17.95 10.1978 17.9611 10.2847 17.9835C10.3715 18.0059 10.4525 18.035 10.5277 18.0708V18.483H10.4592C10.4404 18.4669 10.4176 18.4481 10.3907 18.4266C10.3648 18.4052 10.3326 18.3841 10.2941 18.3635C10.2574 18.3438 10.2171 18.3277 10.1732 18.3152C10.1294 18.3018 10.0783 18.295 10.0201 18.295C9.89124 18.295 9.79187 18.3362 9.72205 18.4186C9.65312 18.5 9.61865 18.611 9.61865 18.7516C9.61865 18.8966 9.65401 19.0067 9.72473 19.0819C9.79635 19.1571 9.8975 19.1947 10.0282 19.1947C10.0891 19.1947 10.1437 19.188 10.192 19.1746C10.2413 19.1602 10.282 19.1437 10.3142 19.1249C10.3446 19.107 10.3715 19.0882 10.3948 19.0685C10.4181 19.0488 10.4395 19.0295 10.4592 19.0107H10.5277V19.423C10.4516 19.4588 10.3719 19.487 10.2887 19.5076C10.2063 19.5291 10.115 19.5398 10.0148 19.5398Z" fill="#AD54FF"/>
<path d="M12.3633 19.4995H11.8772V18.7516C11.8772 18.6907 11.8741 18.6303 11.8678 18.5703C11.8615 18.5094 11.8508 18.4647 11.8356 18.436C11.8177 18.4029 11.7913 18.3787 11.7563 18.3635C11.7223 18.3483 11.6744 18.3407 11.6127 18.3407C11.5688 18.3407 11.524 18.3479 11.4784 18.3622C11.4336 18.3765 11.3848 18.3993 11.332 18.4307V19.4995H10.8486V17.4102H11.332V18.1581C11.418 18.0909 11.5003 18.0395 11.5791 18.0037C11.6588 17.9679 11.7469 17.95 11.8436 17.95C12.0066 17.95 12.1337 17.9974 12.225 18.0923C12.3172 18.1872 12.3633 18.3291 12.3633 18.5179V19.4995Z" fill="#AD54FF"/>
<path d="M13.7222 19.1061V18.7919C13.6568 18.7972 13.5861 18.8049 13.51 18.8147C13.4339 18.8236 13.3762 18.8344 13.3368 18.8469C13.2885 18.8621 13.2513 18.8845 13.2253 18.9141C13.2003 18.9427 13.1877 18.9808 13.1877 19.0282C13.1877 19.0595 13.1904 19.085 13.1958 19.1047C13.2012 19.1244 13.2146 19.1432 13.2361 19.1611C13.2567 19.179 13.2813 19.1925 13.3099 19.2014C13.3386 19.2095 13.3833 19.2135 13.4442 19.2135C13.4926 19.2135 13.5413 19.2037 13.5906 19.184C13.6407 19.1643 13.6846 19.1383 13.7222 19.1061ZM13.7222 19.3397C13.6962 19.3594 13.664 19.3831 13.6255 19.4109C13.587 19.4386 13.5507 19.4606 13.5167 19.4767C13.4693 19.4982 13.42 19.5138 13.369 19.5237C13.318 19.5344 13.262 19.5398 13.2012 19.5398C13.0579 19.5398 12.938 19.4955 12.8413 19.4069C12.7446 19.3182 12.6963 19.205 12.6963 19.0671C12.6963 18.957 12.7209 18.8671 12.7701 18.7972C12.8194 18.7274 12.8892 18.6724 12.9796 18.6321C13.0691 18.5918 13.1801 18.5632 13.3126 18.5461C13.4451 18.5291 13.5825 18.5166 13.7249 18.5085V18.5005C13.7249 18.4172 13.6908 18.3599 13.6228 18.3286C13.5548 18.2964 13.4545 18.2803 13.322 18.2803C13.2424 18.2803 13.1573 18.2946 13.0669 18.3232C12.9765 18.351 12.9116 18.3725 12.8722 18.3877H12.8279V18.0238C12.8789 18.0104 12.9617 17.9947 13.0763 17.9768C13.1918 17.958 13.3073 17.9486 13.4227 17.9486C13.6976 17.9486 13.8958 17.9911 14.0176 18.0762C14.1402 18.1603 14.2015 18.2928 14.2015 18.4736V19.4995H13.7222V19.3397Z" fill="#AD54FF"/>
<path d="M16.2197 18.7247C16.2197 18.8492 16.2005 18.9624 16.162 19.0645C16.1244 19.1665 16.0747 19.2507 16.0129 19.3169C15.9485 19.3867 15.8755 19.4395 15.7941 19.4753C15.7126 19.5111 15.6253 19.5291 15.5322 19.5291C15.4463 19.5291 15.3733 19.5197 15.3134 19.5009C15.2534 19.483 15.1921 19.4574 15.1294 19.4243V20.0527H14.646V17.9916H15.1294V18.1487C15.2037 18.0896 15.2793 18.0417 15.3563 18.005C15.4342 17.9683 15.5237 17.95 15.6249 17.95C15.8129 17.95 15.9588 18.0189 16.0626 18.1567C16.1674 18.2946 16.2197 18.4839 16.2197 18.7247ZM15.7216 18.7341C15.7216 18.5873 15.6965 18.4808 15.6464 18.4146C15.5962 18.3483 15.517 18.3152 15.4087 18.3152C15.363 18.3152 15.316 18.3223 15.2677 18.3367C15.2194 18.3501 15.1733 18.3698 15.1294 18.3958V19.1544C15.1616 19.167 15.1961 19.175 15.2328 19.1786C15.2695 19.1822 15.3057 19.184 15.3416 19.184C15.4696 19.184 15.5649 19.1468 15.6276 19.0725C15.6902 18.9973 15.7216 18.8845 15.7216 18.7341Z" fill="#AD54FF"/>
<path d="M17.533 19.4861C17.481 19.4995 17.426 19.5098 17.3678 19.517C17.3096 19.525 17.2384 19.5291 17.1543 19.5291C16.9663 19.5291 16.8262 19.491 16.734 19.4149C16.6427 19.3388 16.597 19.2086 16.597 19.0242V18.3192H16.3983V17.9916H16.597V17.5605H17.0804V17.9916H17.533V18.3192H17.0804V18.8536C17.0804 18.9065 17.0809 18.9526 17.0818 18.9919C17.0827 19.0313 17.0898 19.0667 17.1033 19.098C17.1158 19.1294 17.1377 19.1544 17.1691 19.1732C17.2013 19.1911 17.2478 19.2001 17.3087 19.2001C17.3338 19.2001 17.3665 19.1947 17.4067 19.184C17.4479 19.1732 17.4766 19.1634 17.4927 19.1544H17.533V19.4861Z" fill="#AD54FF"/>
<path d="M19.3081 18.8348H18.2017C18.2088 18.953 18.2536 19.0434 18.3359 19.1061C18.4192 19.1687 18.5414 19.2001 18.7025 19.2001C18.8046 19.2001 18.9035 19.1817 18.9993 19.145C19.0951 19.1083 19.1707 19.0689 19.2262 19.0269H19.2799V19.4149C19.1707 19.4588 19.0678 19.4906 18.9711 19.5103C18.8744 19.5299 18.7674 19.5398 18.6501 19.5398C18.3476 19.5398 18.1157 19.4718 17.9546 19.3357C17.7935 19.1996 17.7129 19.0058 17.7129 18.7543C17.7129 18.5054 17.789 18.3085 17.9412 18.1635C18.0942 18.0175 18.3037 17.9446 18.5696 17.9446C18.8149 17.9446 18.9993 18.0068 19.1228 18.1312C19.2463 18.2548 19.3081 18.4329 19.3081 18.6656V18.8348ZM18.8274 18.5515C18.8247 18.4504 18.7996 18.3743 18.7522 18.3232C18.7048 18.2722 18.6309 18.2467 18.5306 18.2467C18.4375 18.2467 18.361 18.2709 18.301 18.3192C18.241 18.3676 18.2075 18.445 18.2003 18.5515H18.8274Z" fill="#AD54FF"/>
<path d="M20.7422 18.4521H20.6992C20.6786 18.445 20.6455 18.4396 20.5999 18.436C20.5542 18.4325 20.5162 18.4307 20.4857 18.4307C20.4168 18.4307 20.3559 18.4351 20.3031 18.4441C20.2503 18.453 20.1934 18.4683 20.1326 18.4897V19.4995H19.6492V17.9916H20.1326V18.2131C20.2391 18.1218 20.3317 18.0614 20.4105 18.0319C20.4893 18.0014 20.5618 17.9862 20.6281 17.9862C20.6451 17.9862 20.6643 17.9867 20.6858 17.9875C20.7073 17.9884 20.7261 17.9898 20.7422 17.9916V18.4521Z" fill="#AD54FF"/>
</svg>
