<svg width="85" height="85" viewBox="0 0 85 85" fill="none" xmlns="http://www.w3.org/2000/svg">
<path d="M0 81C0 82.8668 1.5082 84.375 3.375 84.375H81C82.8668 84.375 84.375 82.8668 84.375 81V36.7031H0V81ZM81 7.59375H63.2812V0.84375C63.2812 0.379687 62.9016 0 62.4375 0H56.5312C56.0672 0 55.6875 0.379687 55.6875 0.84375V7.59375H28.6875V0.84375C28.6875 0.379687 28.3078 0 27.8438 0H21.9375C21.4734 0 21.0938 0.379687 21.0938 0.84375V7.59375H3.375C1.5082 7.59375 0 9.10195 0 10.9688V29.5312H84.375V10.9688C84.375 9.10195 82.8668 7.59375 81 7.59375Z" fill="#960002"/>
</svg>
