<svg xmlns="http://www.w3.org/2000/svg" version="1.0" viewBox="220 844.87 1718.84 470.99"><path fill="#2550f3" d="M1116.7 845.2c-22.9 1.3-43.3 8.8-59.7 21.8-19.9 15.7-33.3 36.6-39.1 60.8-2.9 12-3.2 36.1-.6 47.7 3.6 16 11.5 34.2 17.4 40.3.7.7 1.3 1.7 1.3 2.1s3.5 4.3 7.8 8.7c12.6 12.9 25 21.6 37.7 26.4 36 13.9 75 10.1 106.1-10.3 23.3-15.2 35.9-33.2 43.5-61.6 2.6-9.8 4.4-30.1 3.2-36.1l-.9-4.5h-123.9l-.3 17.9c-.2 13.7.1 18.1 1 18.8.7.4 17.7.8 37.8.8h37.9c1.9 0 .8 5.1-2.5 11.4-7.6 14.4-19.2 24.3-35.4 30-7.7 2.7-9.6 3-21.5 3-9.7 0-14.5-.5-19-1.8-21.3-6.5-38.2-23.4-45.5-45.6-4.5-13.8-3.6-35.8 2.1-50.3 4.2-10.6 14.9-23.5 25.4-30.7 20.2-13.8 50.9-14.3 71-1.2 7.2 4.8 18.1 15.9 21.9 22.4 1.5 2.7 3 4.8 3.2 4.8.3 0 5.5-2 11.7-4.4 6.1-2.3 14.5-5.5 18.4-7 4-1.5 7.6-3.2 7.9-3.7 1.3-2.2-9.2-17.4-18.6-26.9-15.1-15.4-27.5-23.1-46.5-28.9-12-3.6-25.2-4.9-41.8-3.9m-896.2 3.6c-.3.8-.5 51.1-.5 111.8v110.5l65.3-.4c63.4-.3 65.4-.4 73.5-2.5 32.8-8.7 58.6-29.2 73.3-58.3 2.1-4.3 4.3-7.9 4.7-7.9s1.8 2.6 3.2 5.7c3.6 8.4 12.9 21.6 20.7 29.6 15.1 15.4 31.2 24.6 53.8 30.9 7.8 2.1 9.6 2.2 73.3 2.5l65.2.4-.2-111.3-.3-111.3-62.3-.3c-58.9-.2-62.8-.1-72.1 1.8-21.1 4.3-41.1 15-56.1 30-9.8 9.8-20.3 25-22.9 33.2-.7 2.1-1.7 3.8-2.2 3.8s-2-2.4-3.3-5.4c-4-9-13.6-22.6-22.1-31.1-11.9-11.8-26.2-21-41-26.2-17-5.9-13.8-5.6-84.2-6.2-53.8-.5-65.4-.4-65.8.7m505.9-.3c-.2.5-.3 47.9-.2 105.3l.3 104.3 48.2-.1c50.7 0 57.2-.5 70.8-4.9 20.2-6.4 38.4-19.4 51.9-37 6.1-7.9 13.9-24.3 16.5-34.7 4.8-19 4.8-39.3 0-57.4-8.4-31.4-32.6-57.8-63.4-69.3-16.1-6-15.7-6-71.9-6.6-34.2-.4-52-.3-52.2.4m100 38.9c11.3 3.2 18.6 7.6 27.6 16.6 12.7 12.6 18.3 25.2 19.7 44 .5 8.2-.6 19.4-2.9 27-4.6 15.6-18 31.6-32.6 38.9-12.9 6.5-17.4 7.2-45.4 6.9l-24.3-.3-.3-66.5c-.1-36.6 0-67.1.3-67.8.8-2.2 49.8-1.1 57.9 1.2M966 848l-20.5.5v209l20.7.5c16.7.4 20.9.2 21.3-.8.8-2.2.5-207.6-.3-208.7-.4-.6-8.1-.8-21.2-.5m298.5.8c-.7 1.8-.7 206.6 0 208.4.4 1 4.6 1.2 21.3.8l20.7-.5v-209l-20.7-.5c-16.7-.4-20.9-.2-21.3.8m323.3-1-22.7.2-1.5 3.3c-.8 1.7-6 14.7-11.7 28.7-5.6 14-10.6 25.9-11.1 26.4-.4.6-.8 1.6-.8 2.3 0 .8-.9 3.3-2 5.5-1.1 2.3-2 4.5-2 5s-.9 2.7-1.9 5.1c-1.1 2.3-5.7 13.4-10.2 24.7s-8.6 20.9-9 21.4c-.5.6-.9 1.6-.9 2.3 0 .8-.9 3.3-2 5.5-1.1 2.3-2 4.5-2 5s-.9 2.7-1.9 5.1c-1.1 2.3-6.5 15.7-12.1 29.7-5.7 14-10.7 25.9-11.1 26.4-.5.6-.9 1.6-.9 2.3s-1 3.4-2.1 5.8c-1.2 2.5-1.9 4.8-1.7 5.1.7.6 40.6.6 41.6 0 .5-.3 4.6-10.1 9.2-21.8s9-21.9 9.9-22.6c1.1-.9 12-1.2 46.5-1.2 24.8 0 45.6.4 46.2.8.7.4 3.2 5.9 5.7 12.2 10.2 26 12 30.6 13.1 32 .9 1.3 4.7 1.5 22.9 1.5 13.8 0 21.7-.4 21.7-1 0-1-1.8-5.4-16.5-41.5-3.7-9.1-10.4-25.7-15-37-8.5-21.1-18-44.5-30.9-76.3-4.1-10-10.6-26.1-14.5-35.7s-7.6-17.9-8.3-18.5c-.9-.6-9.3-.9-24-.7m15.9 87.2c8.4 21.1 15 38.7 14.7 39.2-.3.4-14.4.8-31.5.8-24 0-30.9-.3-30.9-1.3 0-2.6 30.4-77.7 31.4-77.4.5.2 7.9 17.6 16.3 38.7m112.8-86.2c-.7 1.8-.7 206.6 0 208.4.4 1.1 12.9 1.3 69.8 1.1l69.2-.3.3-18.5.2-18.5h-97l-.2-86.3-.3-86.2-20.7-.5c-16.7-.4-20.9-.2-21.3.8m-388.8-.1c-.4.3-.7 8.7-.7 18.5V885l32.3.2 32.2.3.5 86.3.5 86.3h41l.5-86.3.5-86.3 32.3-.3 32.2-.2v-37h-85.3c-47 0-85.7.3-86 .7"/><path fill="#fff" d="M220.5 1089.2c-.3.7-.4 51.2-.3 112.3l.3 111 56.5.3c58.4.3 70.2-.2 83.3-3.7 31.6-8.3 57.8-29.6 72.6-58.9 1.7-3.4 3.5-6.2 3.9-6.1.4 0 2.4 3.5 4.4 7.7 5 10.5 15.8 24.3 25.3 32.5 18.6 16.1 38.8 25 63 27.7 9.6 1 119.2 1.4 121.9.4 1.4-.6 1.6-11.4 1.6-112.5V1088h-59.5c-48 0-61.3.3-68.8 1.5-10 1.6-20.5 4.4-25.8 6.8-1.9.9-5 2.3-6.9 3.1-19.3 8.4-40.5 29.1-50.5 49.4-2.2 4.4-4.3 8.1-4.7 8.1-.4.1-2.6-3.6-5-8.2-17.1-32.8-49.4-55.1-86.8-59.7-12.9-1.5-123.9-1.4-124.5.2m781.5 10.4c-35.8 6-65.8 28.1-81.5 59.9-12.4 25.2-13.8 58-3.7 86.5 9 25.5 31 48.2 58.7 60.8 18.8 8.5 47.7 11.3 69 6.8 23.8-5.1 38.5-12.7 54.8-28.5 17.4-16.8 27.7-35.9 31.7-59.1 1.1-6.1 1.5-29.5.6-35-3-17.8-10.1-36-18.5-47.3-5.5-7.4-21.5-22.5-29.1-27.5-23.1-15.2-53.9-21.4-82-16.6m34.5 39.6c8.9 1.6 21 7.8 28.2 14.2 15.9 14.5 23.3 31.7 23.3 54.3 0 11.3-2.3 21-7.6 32.1-3.7 7.6-5.9 10.7-12.4 17.2s-9.6 8.7-17.2 12.3c-12 5.8-18.8 7.1-33 6.4-18.8-.8-29.6-5.5-42.3-18.2-13.3-13.4-19.1-25.8-20.3-44.2-1.7-23.9 4.2-40.7 19.8-56.4 7.1-7.1 10.1-9.3 17-12.6 14.7-7 27-8.4 44.5-5.1M1843 1099c-12.9 2.6-16.3 3.7-25.7 8.1-18.4 8.8-31.8 24.1-35.8 41-3.1 13.5-.8 30.9 5.8 41.7 5 8.5 13.9 16 25.3 21.6 12 5.9 18.8 8.3 40.9 14.2 27.2 7.3 37.8 13.5 40.5 23.5 3.2 11.7-5.7 23.7-20.5 28-7.9 2.2-24.6 1.7-31.8-1-10.9-4.2-17.9-11.5-21.2-21.9-1.4-4.2-2.1-5.2-3.8-5.2-1.2 0-10.7 1.8-21.2 3.9-22 4.4-21.1 3.6-17.4 15.3 6.5 20.5 25.6 37.2 50.2 43.8 49 13.1 99.6-8.3 109.4-46.3 2-8 1.3-25.6-1.5-33.8-7.9-23.7-24.7-34.5-74.7-47.9-27.5-7.4-36.4-13.6-36.7-25.4-.2-9.4 4.1-15.4 14.7-20.3 5.4-2.5 7.1-2.8 17-2.8 10.4 0 11.4.2 17.7 3.3 9.4 4.5 14.3 10.5 18.8 22.9.7 1.8 1.9 3.3 2.6 3.3 1.2 0 32.4-6 39.3-7.6 2.1-.5 2.3-.9 1.7-4.6-1.3-7.8-6.5-19.1-11.9-25.8-11-13.5-25.3-22.2-43.7-26.5-7.8-1.8-31.7-2.8-38-1.5m-1116.5 3.2c-.3.7-.4 48.3-.3 105.8l.3 104.5H782c61.9 0 62.9-.1 76.6-6.6 14-6.6 24.2-17.8 29-32 3-8.7 3.7-23.8 1.5-32.9-3-12.1-10.9-23.6-21-30.8-3.6-2.5-6.9-4.8-7.3-5.1-.4-.4 2.1-3.6 5.5-7.2 11.8-12.4 16.9-28.3 14.7-46-.6-4.9-1.5-10.1-2.1-11.6-5.8-14.5-15.6-25.6-27.9-31.8-13.6-6.9-12.8-6.8-71.3-7.2-42.7-.3-52.8-.2-53.2.9m98.5 37.7c11.6 4.4 16.5 11.7 16.5 24.1-.1 10.6-4.1 17.1-13.9 22.3-3.9 2.1-5.5 2.2-31.5 2.5-21.8.3-27.6.1-28.2-1-1-1.5-1.2-48.2-.2-49.1.3-.4 12.3-.7 26.5-.7 23 0 26.3.2 30.8 1.9m.8 85.5c14.5 1.9 23.7 14.9 21 29.8-1.2 6.6-4.5 11.8-10 15.6-6.9 4.7-12.3 5.4-42.3 5l-27-.3-.3-24.4c-.1-14 .2-24.8.7-25.5 1-1.1 49-1.3 57.9-.2m388.4-123.2c-.6.7-5.7 13-11.5 27.3s-17.4 42.9-25.7 63.5c-8.4 20.6-21 51.7-28 69-7.1 17.3-14.4 35.5-16.4 40.4-2.9 7-3.4 9.1-2.4 9.7 2.3 1.5 40.4 1.1 41.6-.4.6-.7 4.7-10.5 9.1-21.7 4.5-11.3 8.4-21.1 8.8-21.8 1.1-1.9 93.3-1.8 94.5 0 .4.7 1.5 3.7 2.4 6.6s2.1 5.5 2.5 5.8c.5.3.9 1.2.9 2s.9 3.4 2 5.6c1.1 2.3 2 4.5 2 5s.8 2.7 1.9 5.1c1 2.3 2.4 5.8 3.1 7.7 2.7 7.2 2 7 24.9 7 11.3 0 21.2-.4 22-.9 1.1-.7.7-2.6-2.4-10.2-2.1-5.2-4.2-9.8-4.7-10.3-.4-.6-.8-1.6-.8-2.3 0-.8-.9-3.3-2-5.5-1.1-2.3-2-4.5-2-5s-.8-2.7-1.9-5.1c-3.5-7.9-6.9-16.2-14.1-34.2-3.9-9.9-7.8-19.3-8.6-20.9s-1.4-3.3-1.4-3.8-.9-2.8-2-5c-1.1-2.3-2-4.5-2-5s-.8-2.7-1.9-5.1c-3.9-8.8-7.1-16.6-12.1-29.2-2.8-7.2-5.8-14.3-6.6-15.9s-1.4-3.3-1.4-3.8-.9-2.8-2-5c-1.1-2.3-2-4.5-2-5s-.8-2.7-1.9-5.1c-1.9-4.4-3.6-8.5-9.7-23.2-2-5-4.1-9.6-4.7-10.3-.7-.9-6.7-1.2-23.7-1.2s-23 .3-23.8 1.2m28.8 62c2.8 7.3 6 15.2 7.1 17.6 1 2.3 1.9 4.7 1.9 5.3 0 .5.9 2.9 2 5.1 1.1 2.3 2 4.6 2 5 0 .5.9 2.8 2 5 1.1 2.3 2 4.6 2 5 0 .5.9 2.8 2 5 1.1 2.3 2 4.5 2 5s.9 2.8 2.1 5.3c1.1 2.4 1.8 4.9 1.4 5.5-.9 1.4-60.1 1.4-61 0-.4-.6 3.5-11.5 8.5-24.3 5.1-12.8 11.1-28.2 13.5-34.2 6.6-16.7 7.5-18.5 8.4-18.5.5 0 3.2 6 6.1 13.2m123.5-62c-.3.7-.4 48.3-.3 105.8l.3 104.5 19.9.3c14.1.2 20.3-.1 21.3-.9 1.1-1 1.3-7.3 1.3-37.2-.1-28.8.1-36.2 1.2-36.8 2.2-1.4 24.2-1.1 25.9.3.9.7 3.2 3.8 5.1 6.8 17.6 27.2 43.3 65.7 44.6 66.7 1.8 1.5 48.7 1.9 49.6.5.3-.5-10.8-17.9-24.6-38.8-13.8-20.8-25.3-38.5-25.5-39.1-.3-.7.8-1.7 2.3-2.3 19.5-7.3 35.1-23.7 40.9-43 2.6-8.7 3.1-25 1.1-34.9-5.7-27.9-29.5-48.6-60.1-52.1-12.8-1.5-102.5-1.3-103 .2m103.9 39.7c6 3 10.7 7.8 13.8 13.9 1.8 3.8 2.3 6.4 2.3 13.2 0 7.6-.3 9.1-3 14-3.9 7.1-10.9 12.4-18.4 13.9-3.6.8-14.4 1.1-30.9.9l-25.2-.3-.1-28.4c0-22.4.3-28.6 1.3-29.3.7-.5 13.5-.7 28.3-.6 26.1.3 27.2.4 31.9 2.7m91.4-40.3c-.5.4-.8 47.9-.8 105.5V1312l2.4.6c1.4.3 24 .4 50.3.1 51.1-.5 53.5-.7 69.4-6 27.1-9.1 51.6-32.1 62.2-58.4 5.5-13.5 7.1-22.5 7.1-40.3.1-17-.8-24-4.6-35.5-9.8-29.8-34.8-55.1-64.3-65.1-16.7-5.6-16.4-5.6-70.5-6.1-27.8-.3-50.8-.1-51.2.3m98.7 39.9c18.8 5.2 32.8 16.8 40.7 33.5 5.6 11.8 7.1 18.5 7.1 32.5-.1 27.6-12.9 48.9-36.5 60.7-10.9 5.4-18.8 6.5-46.8 6.4l-20.5-.1-.3-66.5c-.1-36.6 0-67.1.3-67.9.8-2.1 47.7-1 56 1.4"/></svg>