<svg width="601" height="189" viewBox="0 0 601 189" fill="none" xmlns="http://www.w3.org/2000/svg">
<path d="M205.611 91.5347V38.593H241.077V42.4816C241.07 44.3907 240.236 46.2196 238.759 47.5674C237.28 48.9154 235.278 49.6723 233.19 49.6723H219.864V60.795H237.443V64.5533C237.446 65.5231 237.239 66.4837 236.834 67.38C236.429 68.2762 235.833 69.0902 235.082 69.7749C234.332 70.4597 233.44 71.0015 232.459 71.3693C231.477 71.7373 230.426 71.9236 229.366 71.9178H219.864V91.4695L205.611 91.5347Z" fill="white"/>
<path d="M249.082 91.5347V38.5929H269.25C273.054 38.4233 276.864 38.8493 280.51 39.8529C283.727 40.9481 286.475 42.9584 288.349 45.5881C290.3 48.4885 291.266 51.8527 291.129 55.2554C291.103 58.2142 290.285 61.1222 288.753 63.7278C287.38 66.2956 285.14 68.3904 282.363 69.7019V69.8322C283.159 70.8565 283.888 71.923 284.549 73.0257L295.88 91.5347H280.083L269.797 73.6991H263.169V91.5347H249.082ZM263.335 62.5764H269.488C271.467 62.6809 273.41 62.0726 274.904 60.8819C275.579 60.251 276.099 59.4976 276.436 58.6706C276.771 57.8436 276.914 56.9613 276.852 56.0809C277.023 54.9308 276.785 53.7605 276.175 52.7434C275.562 51.7263 274.61 50.9162 273.455 50.4326C271.742 49.8769 269.927 49.6262 268.11 49.694H263.359L263.335 62.5764Z" fill="white"/>
<path d="M302.365 91.5347V38.593H338.639V49.694H316.523V59.3178H334.173V70.4405H316.523V80.4337H339.755V91.5347H302.365Z" fill="white"/>
<path d="M348.829 91.5347V38.593H385.103V49.694H363.011V59.3178H380.637V70.4405H363.011V80.4337H386.148V91.5347H348.829Z" fill="white"/>
<path d="M395.294 91.5347V38.593H415.866C425.035 38.593 432.304 40.9246 437.673 45.5881C443.041 50.2517 445.733 56.7037 445.75 64.9443C445.75 73.243 443.058 79.7602 437.673 84.4961C432.288 89.2319 425.019 91.5927 415.866 91.5781L395.294 91.5347ZM409.547 80.4337H415.367C417.5 80.5438 419.636 80.2453 421.636 79.5569C423.636 78.8686 425.458 77.8057 426.983 76.4364C429.967 73.253 431.468 69.1275 431.164 64.9443C431.316 62.8973 431.022 60.8433 430.299 58.9005C429.577 56.9579 428.444 55.1652 426.959 53.6261C425.422 52.282 423.6 51.2399 421.607 50.5636C419.614 49.8873 417.491 49.5915 415.367 49.694H409.547V80.4337Z" fill="white"/>
<path d="M451.807 64.7271C451.7 61.15 452.401 57.5911 453.864 54.2723C455.328 50.9535 457.523 47.9456 460.311 45.436C466.262 40.461 474.032 37.702 482.095 37.702C490.157 37.702 497.927 40.461 503.878 45.436C506.657 47.9513 508.843 50.9607 510.301 54.2786C511.76 57.5963 512.461 61.1524 512.358 64.7271C512.472 68.3746 511.779 72.0055 510.323 75.4025C508.866 78.7993 506.674 81.8924 503.878 84.496C497.994 89.5899 490.197 92.4286 482.095 92.4286C473.992 92.4286 466.195 89.5899 460.311 84.496C457.508 81.8963 455.309 78.8047 453.848 75.4071C452.387 72.0097 451.693 68.3765 451.807 64.7271ZM466.464 64.7271C466.312 68.8827 467.892 72.936 470.882 76.0671C472.308 77.4896 474.039 78.6253 475.968 79.4026C477.9 80.1797 479.985 80.5809 482.095 80.5809C484.204 80.5809 486.29 80.1797 488.221 79.4026C490.15 78.6253 491.882 77.4896 493.307 76.0671C496.326 72.9468 497.932 68.8918 497.797 64.7271C497.956 60.7181 496.376 56.8138 493.402 53.865C491.943 52.4959 490.2 51.408 488.273 50.665C486.349 49.9223 484.28 49.5395 482.19 49.5395C480.099 49.5395 478.03 49.9223 476.106 50.665C474.18 51.408 472.436 52.4959 470.977 53.865C467.96 56.7965 466.336 60.7027 466.464 64.7271Z" fill="white"/>
<path d="M519.176 91.5347L523.927 38.593H539.32L547.682 60.9471L550.604 69.6368H550.77C551.839 66.074 552.813 63.1195 553.668 60.9471L562.101 38.593H577.494L582.245 91.5347H567.992L566.211 67.6381C566.092 66.465 566.045 65.1399 566.045 63.6626C566.045 62.1854 566.045 60.9905 566.045 60.0999V58.7747H565.878C564.572 62.4678 563.503 65.4223 562.648 67.6381L556.566 82.9754H544.594L538.513 67.6381L535.282 58.7747H535.116C535.329 61.7259 535.329 64.6869 535.116 67.6381L533.334 91.5347H519.176Z" fill="white"/>
<path d="M91.3734 171.523C91.3734 171.523 17.9468 151.689 17.9468 53.865V16.4125H164.824V53.865C164.824 148.191 91.3734 171.523 91.3734 171.523Z" fill="#4FB84F"/>
<path d="M133.776 54.1474H74.6259V85.2346H133.776V94.6195C133.776 110.369 129.025 123.078 102.752 123.122H74.6259V164.137C79.8598 167.222 85.4831 169.717 91.3732 171.566C91.3732 171.566 164.823 148.191 164.823 53.865V25.6236C164.823 41.3953 157.198 53.865 133.776 54.1474Z" fill="#045433"/>
<path d="M418.581 148.387V116.622H440.343V123.286H427.081V129.061H437.671V135.725H427.081V141.723H441.025V148.387H418.581Z" fill="white"/>
<path d="M391.776 148.387V116.622H400.278V141.723H414.462V148.387H391.776Z" fill="white"/>
<path d="M368.655 148.387V135.37L357.191 116.622H366.857L370.793 124.263L372.881 128.839H372.979C373.627 127.24 374.323 125.715 375.067 124.263L378.953 116.622H388.621L377.157 135.37V148.387H368.655Z" fill="white"/>
<path d="M338.059 148.387V123.286H327.519V116.622H357.103V123.286H346.561V148.387H338.059Z" fill="white"/>
<path d="M300.255 144.388L304.726 138.48C305.826 139.368 307.137 140.138 308.66 140.79C310.183 141.442 311.655 141.767 313.081 141.767C314.214 141.767 315.088 141.56 315.703 141.145C316.352 140.731 316.675 140.198 316.675 139.546C316.675 138.865 316.288 138.243 315.511 137.68C314.765 137.088 313.827 136.599 312.691 136.214C311.558 135.829 310.327 135.34 309 134.748C307.672 134.126 306.441 133.474 305.308 132.793C304.175 132.112 303.22 131.179 302.441 129.994C301.697 128.78 301.324 127.388 301.324 125.818C301.324 122.916 302.491 120.576 304.823 118.799C307.187 116.993 310.213 116.089 313.907 116.089C318.214 116.089 321.841 117.289 324.787 119.688L321.193 126.041C320.191 125.241 318.991 124.574 317.599 124.041C316.207 123.508 314.846 123.242 313.518 123.242C312.287 123.242 311.363 123.449 310.748 123.864C310.133 124.278 309.826 124.826 309.826 125.508C309.826 126.189 310.199 126.811 310.943 127.373C311.719 127.936 312.677 128.41 313.81 128.795C314.943 129.15 316.174 129.624 317.501 130.217C318.829 130.779 320.06 131.401 321.193 132.083C322.326 132.734 323.267 133.667 324.01 134.881C324.787 136.066 325.177 137.443 325.177 139.013C325.177 141.826 324.077 144.181 321.872 146.077C319.704 147.972 316.691 148.92 312.838 148.92C310.506 148.92 308.223 148.535 305.987 147.765C303.785 146.995 301.875 145.869 300.255 144.388Z" fill="white"/>
<path d="M274.978 148.387V116.622H296.742V123.286H283.48V129.061H294.07V135.725H283.48V141.723H297.421V148.387H274.978Z" fill="white"/>
<path d="M248.885 148.387V116.622H270.165V123.286H257.387V129.95H267.977V136.614H257.387V148.387H248.885Z" fill="white"/>
<path d="M233.089 148.387V116.622H241.59V148.387H233.089Z" fill="white"/>
<path d="M206.285 148.387V116.622H214.786V141.723H228.971V148.387H206.285Z" fill="white"/>
</svg>
