<svg width="383.881" height="100" viewBox="0 0 383.881 100" fill="none" xmlns="http://www.w3.org/2000/svg"><path fill-rule="evenodd" clip-rule="evenodd" d="M54.686 87.129c22.841-11.941 33.288-30.598 30.976-71.493 0 10.149-3.21 15.373-14.106 14.925H43.795v14.627h29.254c.149 15.373-2.537 17.164-14.627 17.612H43.944v17.936c3.323 2.614 6.932 4.719 10.742 6.393" fill="#0c6138"/><path d="M85.662 15.636c-24.402-3.768-37.998-3.699-62.171 0-2.284 34.43 6.596 54.198 20.453 65.099V62.799h14.478c12.09-.448 14.776-2.239 14.627-17.612H43.795V30.56h27.761c10.896.448 14.106-4.776 14.106-14.925" fill="#52bb54"/><path d="M85.662 15.636c-24.402-3.768-37.998-3.699-62.171 0-2.284 34.43 6.596 54.198 20.453 65.099m41.718-65.099c2.312 40.895-8.136 59.552-30.976 71.493-3.81-1.675-7.419-3.779-10.742-6.393m41.718-65.1c0 10.149-3.21 15.373-14.106 14.925H43.795v14.627h29.254c.149 15.373-2.537 17.164-14.627 17.612H43.944v17.936" stroke="#52bb54" stroke-width=".299"/><path d="M119.337 38.714h-10.699v6.343h10.393v5.044h-10.393v10.316h-5.273V33.671h15.971zm6.631 5.884q.688-1.834 2.254-2.751 1.605-.917 3.553-.917v5.502q-2.254-.267-4.05.917-1.758 1.184-1.758 3.936v9.132h-4.928V41.313h4.929zm10.236 8.291q.994 3.592 5.387 3.592 2.827 0 4.279-1.91l3.974 2.293q-2.827 4.088-8.33 4.088-4.738 0-7.604-2.866t-2.866-7.222q0-4.318 2.827-7.183 2.827-2.904 7.26-2.904 4.203 0 6.916 2.904 2.751 2.904 2.751 7.183 0 .955-.191 2.025zm-.076-3.821h9.743q-.42-1.949-1.758-2.904-1.299-.955-2.98-.955-1.987 0-3.286 1.032-1.299.993-1.719 2.827m20.218 3.821q.993 3.592 5.387 3.592 2.827 0 4.279-1.91l3.974 2.293q-2.827 4.088-8.33 4.088-4.738 0-7.604-2.866t-2.866-7.222q0-4.318 2.827-7.183 2.827-2.904 7.26-2.904 4.203 0 6.916 2.904 2.751 2.904 2.751 7.183 0 .955-.191 2.025zm-.076-3.821h9.743q-.42-1.949-1.758-2.904-1.299-.955-2.98-.955-1.987 0-3.286 1.032-1.299.993-1.719 2.827m30.535-15.398h4.929v26.746h-4.929v-2.254q-2.178 2.789-6.19 2.789-3.859 0-6.61-2.904-2.713-2.942-2.713-7.183t2.713-7.145q2.751-2.942 6.61-2.942 4.012 0 6.19 2.789zm-9.094 21.091q1.528 1.49 3.821 1.49t3.783-1.49q1.49-1.528 1.49-3.897t-1.49-3.859q-1.49-1.528-3.783-1.528t-3.821 1.528q-1.49 1.49-1.49 3.859t1.49 3.897m32.897 3.286q-2.942 2.904-7.183 2.904t-7.183-2.904q-2.904-2.942-2.904-7.183t2.904-7.145q2.942-2.942 7.183-2.942t7.183 2.942q2.942 2.904 2.942 7.145t-2.942 7.183m-10.89-3.401q1.49 1.49 3.706 1.49t3.706-1.49 1.49-3.783-1.49-3.783-3.706-1.49-3.706 1.49q-1.452 1.49-1.452 3.783t1.452 3.783m36.518-13.87q3.286 0 5.235 2.14 1.987 2.14 1.987 5.731v11.768h-4.929V48.991q0-1.719-.841-2.675t-2.369-.955q-1.681 0-2.636 1.108-.917 1.108-.917 3.21v10.737h-4.929V48.992q0-1.719-.841-2.675t-2.369-.955q-1.643 0-2.636 1.108-.955 1.108-.955 3.21v10.737h-4.929V41.313h4.929v2.025q1.719-2.56 5.311-2.56 3.515 0 5.196 2.751 1.91-2.751 5.693-2.751" fill="#fff"/><path d="m268.824 60.119-2.178-5.999H254.61l-2.178 5.999h-3.783l9.973-26.746h4.012l9.973 26.746zm-12.991-9.323h9.59l-4.814-13.182zm18.019-17.423h3.553v26.746h-3.553zm18.576 23.384h11.54v3.362h-15.093V33.373h3.553zm27.922-15.742h3.322v19.104h-3.322v-3.286q-2.485 3.783-7.221 3.783-4.012 0-6.842-2.904-2.826-2.942-2.827-7.145c-.001-4.203.943-5.171 2.827-7.107q2.83-2.942 6.842-2.942 4.736 0 7.221 3.783zm-6.803 16.392q2.906 0 4.854-1.949 1.949-1.986 1.949-4.891c0-2.905-.651-3.553-1.949-4.853q-1.948-1.987-4.854-1.987-2.864 0-4.812 1.987-1.95 1.949-1.949 4.853c.001 2.904.648 3.566 1.949 4.891q1.947 1.949 4.812 1.949m23.797-16.888q4.012 0 6.842 2.942 2.826 2.904 2.827 7.107c.001 4.203-.943 5.184-2.827 7.145q-2.83 2.904-6.842 2.904-4.736 0-7.221-3.783v3.286h-3.322V33.374h3.322v10.928q2.485-3.783 7.221-3.783m-.418 16.888q2.864 0 4.812-1.949 1.95-1.986 1.949-4.891c-.001-2.905-.648-3.553-1.949-4.853q-1.947-1.986-4.812-1.987-2.906 0-4.854 1.987-1.949 1.949-1.949 4.853c0 2.904.651 3.566 1.949 4.891q1.948 1.949 4.854 1.949m14.597-11.233q0 1.108 1.107 1.796 1.109.65 2.675 1.07 1.567.382 3.134.917a5.87 5.87 0 0 1 2.675 1.758q1.106 1.222 1.107 3.171 0 2.598-2.024 4.165-1.989 1.566-5.119 1.567-2.792 0-4.776-1.223-1.988-1.223-2.83-3.248l2.866-1.643q.461 1.376 1.719 2.178 1.262.802 3.021.802 1.64 0 2.71-.611 1.07-.65 1.072-1.987 0-1.108-1.107-1.758-1.111-.688-2.675-1.07-1.567-.42-3.134-.955a6.3 6.3 0 0 1-2.675-1.758q-1.108-1.222-1.107-3.133 0-2.484 1.91-4.088 1.948-1.605 4.851-1.605 2.333 0 4.128 1.07a6.6 6.6 0 0 1 2.749 2.904l-2.788 1.567q-1.031-2.445-4.09-2.445-1.41 0-2.406.688-.994.65-.994 1.872" fill="#4c9e4a"/></svg>