<svg width="1286" height="335" viewBox="0 0 1286 335" fill="none" xmlns="http://www.w3.org/2000/svg">
<rect width="1286" height="335" fill="white"/>
<path fill-rule="evenodd" clip-rule="evenodd" d="M183.197 291.881C259.713 251.879 294.713 189.379 286.968 52.381C286.968 86.3794 276.213 103.879 239.713 102.379H146.713V151.379H244.713C245.213 202.879 236.213 208.879 195.713 210.379H147.213V270.464C158.344 279.222 170.434 286.271 183.197 291.881Z" fill="#0C6138"/>
<path d="M286.968 52.381C205.223 39.759 159.676 39.9876 78.6967 52.381C71.0473 167.72 100.795 233.943 147.213 270.464V210.379H195.713C236.213 208.879 245.213 202.879 244.713 151.379H146.713V102.379H239.713C276.213 103.879 286.968 86.3794 286.968 52.381Z" fill="#52BB54"/>
<path d="M286.968 52.381C205.223 39.759 159.676 39.9876 78.6967 52.381C71.0473 167.72 100.795 233.943 147.213 270.464M286.968 52.381C294.713 189.379 259.713 251.879 183.197 291.881C170.434 286.271 158.344 279.222 147.213 270.464M286.968 52.381C286.968 86.3794 276.213 103.879 239.713 102.379H146.713V151.379H244.713C245.213 202.879 236.213 208.879 195.713 210.379H147.213V270.464" stroke="#52BB54"/>
<path d="M399.777 129.693H363.937V150.941H398.753V167.837H363.937V202.397H346.273V112.797H399.777V129.693ZM421.992 149.405C423.528 145.309 426.045 142.237 429.544 140.189C433.128 138.141 437.096 137.117 441.448 137.117V155.549C436.413 154.952 431.891 155.976 427.88 158.621C423.955 161.266 421.992 165.661 421.992 171.805V202.397H405.48V138.397H421.992V149.405ZM456.282 177.181C458.501 185.202 464.517 189.213 474.33 189.213C480.645 189.213 485.423 187.08 488.666 182.813L501.978 190.493C495.663 199.624 486.362 204.189 474.074 204.189C463.493 204.189 455.002 200.989 448.602 194.589C442.202 188.189 439.002 180.125 439.002 170.397C439.002 160.754 442.159 152.733 448.474 146.333C454.789 139.848 462.895 136.605 472.794 136.605C482.181 136.605 489.903 139.848 495.962 146.333C502.106 152.818 505.178 160.84 505.178 170.397C505.178 172.53 504.965 174.792 504.538 177.181H456.282ZM456.026 164.381H488.666C487.727 160.029 485.765 156.786 482.778 154.653C479.877 152.52 476.549 151.453 472.794 151.453C468.357 151.453 464.687 152.605 461.786 154.909C458.885 157.128 456.965 160.285 456.026 164.381ZM523.757 177.181C525.976 185.202 531.992 189.213 541.805 189.213C548.12 189.213 552.898 187.08 556.141 182.813L569.453 190.493C563.138 199.624 553.837 204.189 541.549 204.189C530.968 204.189 522.477 200.989 516.077 194.589C509.677 188.189 506.477 180.125 506.477 170.397C506.477 160.754 509.634 152.733 515.949 146.333C522.264 139.848 530.37 136.605 540.269 136.605C549.656 136.605 557.378 139.848 563.437 146.333C569.581 152.818 572.653 160.84 572.653 170.397C572.653 172.53 572.44 174.792 572.013 177.181H523.757ZM523.501 164.381H556.141C555.202 160.029 553.24 156.786 550.253 154.653C547.352 152.52 544.024 151.453 540.269 151.453C535.832 151.453 532.162 152.605 529.261 154.909C526.36 157.128 524.44 160.285 523.501 164.381ZM625.792 112.797H642.304V202.397H625.792V194.845C620.928 201.074 614.016 204.189 605.056 204.189C596.437 204.189 589.056 200.946 582.912 194.461C576.853 187.89 573.824 179.869 573.824 170.397C573.824 160.925 576.853 152.946 582.912 146.461C589.056 139.89 596.437 136.605 605.056 136.605C614.016 136.605 620.928 139.72 625.792 145.949V112.797ZM595.328 183.453C598.741 186.781 603.008 188.445 608.128 188.445C613.248 188.445 617.472 186.781 620.8 183.453C624.128 180.04 625.792 175.688 625.792 170.397C625.792 165.106 624.128 160.797 620.8 157.469C617.472 154.056 613.248 152.349 608.128 152.349C603.008 152.349 598.741 154.056 595.328 157.469C592 160.797 590.336 165.106 590.336 170.397C590.336 175.688 592 180.04 595.328 183.453ZM705.533 194.461C698.962 200.946 690.941 204.189 681.469 204.189C671.997 204.189 663.976 200.946 657.405 194.461C650.92 187.89 647.677 179.869 647.677 170.397C647.677 160.925 650.92 152.946 657.405 146.461C663.976 139.89 671.997 136.605 681.469 136.605C690.941 136.605 698.962 139.89 705.533 146.461C712.104 152.946 715.389 160.925 715.389 170.397C715.389 179.869 712.104 187.89 705.533 194.461ZM669.053 183.069C672.381 186.397 676.52 188.061 681.469 188.061C686.418 188.061 690.557 186.397 693.885 183.069C697.213 179.741 698.877 175.517 698.877 170.397C698.877 165.277 697.213 161.053 693.885 157.725C690.557 154.397 686.418 152.733 681.469 152.733C676.52 152.733 672.381 154.397 669.053 157.725C665.81 161.053 664.189 165.277 664.189 170.397C664.189 175.517 665.81 179.741 669.053 183.069ZM791.389 136.605C798.728 136.605 804.573 138.994 808.925 143.773C813.362 148.552 815.581 154.952 815.581 162.973V202.397H799.069V164.125C799.069 160.285 798.13 157.298 796.253 155.165C794.376 153.032 791.73 151.965 788.317 151.965C784.562 151.965 781.618 153.202 779.485 155.677C777.437 158.152 776.413 161.736 776.413 166.429V202.397H759.901V164.125C759.901 160.285 758.962 157.298 757.085 155.165C755.208 153.032 752.562 151.965 749.149 151.965C745.48 151.965 742.536 153.202 740.317 155.677C738.184 158.152 737.117 161.736 737.117 166.429V202.397H720.605V138.397H737.117V145.181C740.957 139.464 746.888 136.605 754.909 136.605C762.76 136.605 768.562 139.677 772.317 145.821C776.584 139.677 782.941 136.605 791.389 136.605Z" fill="black"/>
<path d="M900.561 201.397L893.265 181.301H852.945L845.649 201.397H832.977L866.385 111.797H879.825L913.233 201.397H900.561ZM857.041 170.165H889.169L873.041 126.005L857.041 170.165ZM917.403 111.797H929.307V201.397H917.403V111.797ZM979.632 190.133H1018.29V201.397H967.728V111.797H979.632V190.133ZM1073.17 137.397H1084.3V201.397H1073.17V190.389C1067.62 198.837 1059.56 203.061 1048.98 203.061C1040.02 203.061 1032.38 199.818 1026.06 193.333C1019.75 186.762 1016.59 178.784 1016.59 169.397C1016.59 160.01 1019.75 152.074 1026.06 145.589C1032.38 139.018 1040.02 135.733 1048.98 135.733C1059.56 135.733 1067.62 139.957 1073.17 148.405V137.397ZM1050.38 192.309C1056.87 192.309 1062.29 190.133 1066.64 185.781C1070.99 181.344 1073.17 175.882 1073.17 169.397C1073.17 162.912 1070.99 157.493 1066.64 153.141C1062.29 148.704 1056.87 146.485 1050.38 146.485C1043.98 146.485 1038.61 148.704 1034.26 153.141C1029.9 157.493 1027.73 162.912 1027.73 169.397C1027.73 175.882 1029.9 181.344 1034.26 185.781C1038.61 190.133 1043.98 192.309 1050.38 192.309ZM1130.1 135.733C1139.06 135.733 1146.7 139.018 1153.02 145.589C1159.33 152.074 1162.49 160.01 1162.49 169.397C1162.49 178.784 1159.33 186.762 1153.02 193.333C1146.7 199.818 1139.06 203.061 1130.1 203.061C1119.52 203.061 1111.46 198.837 1105.91 190.389V201.397H1094.78V111.797H1105.91V148.405C1111.46 139.957 1119.52 135.733 1130.1 135.733ZM1128.7 192.309C1135.1 192.309 1140.47 190.133 1144.82 185.781C1149.18 181.344 1151.35 175.882 1151.35 169.397C1151.35 162.912 1149.18 157.493 1144.82 153.141C1140.47 148.704 1135.1 146.485 1128.7 146.485C1122.21 146.485 1116.79 148.704 1112.44 153.141C1108.09 157.493 1105.91 162.912 1105.91 169.397C1105.91 175.882 1108.09 181.344 1112.44 185.781C1116.79 190.133 1122.21 192.309 1128.7 192.309ZM1177.6 154.677C1177.6 157.152 1178.84 159.157 1181.31 160.693C1183.79 162.144 1186.77 163.338 1190.27 164.277C1193.77 165.13 1197.27 166.154 1200.77 167.349C1204.27 168.458 1207.25 170.421 1209.73 173.237C1212.2 175.968 1213.44 179.509 1213.44 183.861C1213.44 189.664 1211.18 194.314 1206.66 197.813C1202.22 201.312 1196.5 203.061 1189.51 203.061C1183.28 203.061 1177.94 201.696 1173.51 198.965C1169.07 196.234 1165.91 192.608 1164.03 188.085L1173.63 182.581C1174.66 185.653 1176.58 188.085 1179.39 189.877C1182.21 191.669 1185.58 192.565 1189.51 192.565C1193.17 192.565 1196.2 191.882 1198.59 190.517C1200.98 189.066 1202.18 186.848 1202.18 183.861C1202.18 181.386 1200.94 179.424 1198.47 177.973C1195.99 176.437 1193 175.242 1189.51 174.389C1186.01 173.45 1182.51 172.384 1179.01 171.189C1175.51 169.994 1172.52 168.032 1170.05 165.301C1167.57 162.57 1166.34 159.072 1166.34 154.805C1166.34 149.258 1168.47 144.693 1172.74 141.109C1177.09 137.525 1182.51 135.733 1188.99 135.733C1194.2 135.733 1198.81 136.928 1202.82 139.317C1206.91 141.621 1209.99 144.864 1212.03 149.045L1202.69 154.293C1200.39 148.832 1195.82 146.101 1188.99 146.101C1185.84 146.101 1183.15 146.869 1180.93 148.405C1178.71 149.856 1177.6 151.946 1177.6 154.677Z" fill="#4C9E4A"/>
</svg>
