<svg width="601" height="189" viewBox="0 0 601 189" fill="none" xmlns="http://www.w3.org/2000/svg">
<path d="M205.611 90.9915V38.0498H241.077V41.9384C241.07 43.8475 240.236 45.6765 238.758 47.0243C237.28 48.3722 235.278 49.1291 233.19 49.1291H219.864V60.2519H237.442V64.0102C237.446 64.9799 237.239 65.9406 236.834 66.8369C236.429 67.733 235.833 68.547 235.082 69.2318C234.332 69.9165 233.44 70.4583 232.458 70.8261C231.477 71.1941 230.426 71.3805 229.366 71.3746H219.864V90.9264L205.611 90.9915Z" fill="white"/>
<path d="M249.082 90.9916V38.0498H269.25C273.054 37.8802 276.864 38.3062 280.51 39.3098C283.727 40.405 286.475 42.4153 288.349 45.045C290.3 47.9454 291.266 51.3096 291.129 54.7123C291.103 57.6711 290.285 60.5791 288.753 63.1847C287.38 65.7525 285.14 67.8473 282.363 69.1588V69.2892C283.159 70.3135 283.888 71.3799 284.549 72.4826L295.88 90.9916H280.083L269.797 73.1561H263.169V90.9916H249.082ZM263.335 62.0333H269.488C271.467 62.1378 273.41 61.5295 274.904 60.3388C275.579 59.7079 276.099 58.9545 276.436 58.1275C276.771 57.3005 276.914 56.4183 276.852 55.5378C277.023 54.3877 276.785 53.2174 276.175 52.2003C275.562 51.1832 274.609 50.3731 273.455 49.8895C271.742 49.3338 269.927 49.0831 268.11 49.1509H263.359L263.335 62.0333Z" fill="white"/>
<path d="M302.365 90.9915V38.0498H338.639V49.1508H316.523V58.7746H334.173V69.8974H316.523V79.8905H339.755V90.9915H302.365Z" fill="white"/>
<path d="M348.829 90.9915V38.0498H385.103V49.1508H363.011V58.7746H380.637V69.8974H363.011V79.8905H386.148V90.9915H348.829Z" fill="white"/>
<path d="M395.294 90.9915V38.0498H415.866C425.035 38.0498 432.304 40.3815 437.673 45.045C443.041 49.7085 445.733 56.1606 445.75 64.4012C445.75 72.6998 443.058 79.217 437.673 83.9529C432.288 88.6888 425.019 91.0495 415.866 91.035L395.294 90.9915ZM409.547 79.8905H415.367C417.5 80.0006 419.636 79.7021 421.636 79.0137C423.636 78.3255 425.458 77.2625 426.983 75.8933C429.967 72.7098 431.468 68.5844 431.164 64.4012C431.316 62.3541 431.022 60.3001 430.299 58.3573C429.577 56.4147 428.444 54.6221 426.959 53.0829C425.422 51.7388 423.6 50.6967 421.607 50.0205C419.614 49.3442 417.491 49.0483 415.367 49.1508H409.547V79.8905Z" fill="white"/>
<path d="M451.807 64.184C451.7 60.6069 452.401 57.048 453.864 53.7292C455.328 50.4104 457.523 47.4025 460.311 44.8929C466.262 39.9179 474.032 37.1589 482.095 37.1589C490.157 37.1589 497.927 39.9179 503.878 44.8929C506.657 47.4082 508.843 50.4176 510.301 53.7355C511.76 57.0532 512.461 60.6093 512.358 64.184C512.472 67.8315 511.779 71.4624 510.323 74.8594C508.866 78.2562 506.674 81.3493 503.878 83.9529C497.994 89.0468 490.197 91.8855 482.095 91.8855C473.992 91.8855 466.195 89.0468 460.311 83.9529C457.508 81.3532 455.309 78.2617 453.848 74.864C452.387 71.4666 451.693 67.8334 451.807 64.184ZM466.464 64.184C466.312 68.3396 467.892 72.3929 470.882 75.524C472.308 76.9465 474.039 78.0822 475.968 78.8595C477.9 79.6366 479.985 80.0378 482.095 80.0378C484.204 80.0378 486.29 79.6366 488.221 78.8595C490.15 78.0822 491.882 76.9465 493.307 75.524C496.326 72.4037 497.932 68.3487 497.797 64.184C497.956 60.175 496.376 56.2707 493.402 53.3219C491.943 51.9529 490.2 50.8649 488.273 50.1219C486.349 49.3792 484.28 48.9964 482.19 48.9964C480.099 48.9964 478.03 49.3792 476.106 50.1219C474.18 50.8649 472.436 51.9529 470.977 53.3219C467.96 56.2534 466.336 60.1596 466.464 64.184Z" fill="white"/>
<path d="M519.176 90.9915L523.927 38.0498H539.32L547.682 60.4039L550.604 69.0936H550.77C551.839 65.5308 552.813 62.5764 553.668 60.4039L562.101 38.0498H577.494L582.245 90.9915H567.992L566.211 67.095C566.092 65.9219 566.045 64.5967 566.045 63.1195C566.045 61.6422 566.045 60.4474 566.045 59.5567V58.2315H565.878C564.572 61.9246 563.503 64.8791 562.648 67.095L556.566 82.4322H544.594L538.513 67.095L535.282 58.2315H535.116C535.329 61.1828 535.329 64.1438 535.116 67.095L533.334 90.9915H519.176Z" fill="white"/>
<path d="M233.346 152L230.394 143.949H214.079L211.127 152H206L219.517 116.104H224.956L238.473 152H233.346ZM215.737 139.488H228.736L222.211 121.796L215.737 139.488ZM240.16 116.104H244.977V152H240.16V116.104ZM265.339 147.487H280.981V152H260.523V116.104H265.339V147.487ZM353.046 126.129C353.046 127.453 353.702 128.525 355.008 129.346C356.32 130.122 357.896 130.76 359.747 131.262C361.598 131.718 363.449 132.266 365.3 132.905C367.151 133.498 368.726 134.547 370.038 136.053C371.344 137.513 372 139.407 372 141.734C372 144.837 370.805 147.323 368.414 149.194C366.066 151.065 363.041 152 359.345 152C356.05 152 353.226 151.27 350.883 149.81C348.535 148.35 346.864 146.411 345.87 143.992L350.947 141.049C351.491 142.692 352.507 143.992 353.993 144.951C355.484 145.909 357.266 146.388 359.345 146.388C361.28 146.388 362.883 146.023 364.147 145.293C365.411 144.517 366.045 143.331 366.045 141.734C366.045 140.41 365.389 139.361 364.083 138.586C362.772 137.764 361.19 137.125 359.345 136.669C357.494 136.167 355.643 135.597 353.792 134.958C351.941 134.319 350.36 133.27 349.053 131.81C347.742 130.35 347.091 128.479 347.091 126.198C347.091 123.232 348.218 120.791 350.476 118.875C352.776 116.958 355.643 116 359.07 116C361.825 116 364.263 116.639 366.384 117.916C368.547 119.148 370.176 120.882 371.254 123.118L366.315 125.924C365.099 123.004 362.682 121.544 359.07 121.544C357.404 121.544 355.981 121.954 354.807 122.776C353.633 123.552 353.046 124.669 353.046 126.129Z" fill="white"/>
<path fill-rule="evenodd" clip-rule="evenodd" d="M310.033 152L307.081 143.949H290.766L287.814 152H282.687L296.204 116.104H301.642L315.16 152H310.033ZM305.423 139.488H292.424L298.898 121.796L305.423 139.488Z" fill="white"/>
<path fill-rule="evenodd" clip-rule="evenodd" d="M316.891 152V116.104H321.707H334.225C340.909 116.104 342.461 122.562 342.461 125.481C342.461 128.4 341.826 131.83 340.189 133.918C341.826 136.007 343.75 139.262 343.75 142.531C343.75 146.98 340.869 152 335.361 152H316.891ZM321.707 136.45H334.225C336.933 136.45 338.64 139.543 338.64 141.969C338.64 144.394 336.933 147.487 334.225 147.487H321.707V144.728V141.969V139.209V136.45ZM321.707 123.563V120.804H333.088C335.797 120.804 337.788 123.898 337.788 126.323C337.788 128.502 336.387 131.312 334.225 131.841H321.707V131.75V129.082V126.323V123.563Z" fill="white"/>
<path d="M93.4265 172.11C93.4265 172.11 20 152.276 20 54.4524V17H166.877V54.4524C166.877 148.779 93.4265 172.11 93.4265 172.11Z" fill="#4FB84F"/>
<path d="M93.4265 172.11C93.4265 172.11 20 152.276 20 54.4524V17H166.877V54.4524C166.877 148.779 93.4265 172.11 93.4265 172.11Z" fill="#4FB84F"/>
<path d="M135.829 54.7349H76.6791V85.8221H135.829V95.2069C135.829 110.957 131.078 123.666 104.805 123.709H76.6791V164.724C81.913 167.81 87.5363 170.305 93.4263 172.154C93.4263 172.154 166.877 148.779 166.877 54.4524V26.2111C166.877 41.9828 159.251 54.4524 135.829 54.7349Z" fill="#045433"/>
</svg>
