<svg width="267.568" height="100" viewBox="0 0 267.568 100" fill="none" xmlns="http://www.w3.org/2000/svg"><path d="M66.762.792H58.77v47.281h7.992zm35.757 26.478a21.6 21.6 0 0 0-3.811-3.143 62 62 0 0 0-4.616-2.703 105 105 0 0 1-4.192-1.962 19.7 19.7 0 0 1-3.108-1.862 7 7 0 0 1-1.903-2.114 5.4 5.4 0 0 1-.651-2.73 4.8 4.8 0 0 1 .846-2.876 6.7 6.7 0 0 1 2.197-1.941 10 10 0 0 1 3.108-1.092q1.703-.33 3.441-.33 6.251 0 10.235 2.905V1.681Q100.67 0 93.333 0a26 26 0 0 0-6.346.784 17.6 17.6 0 0 0-5.53 2.357 12.7 12.7 0 0 0-3.884 4.054 11.1 11.1 0 0 0-1.459 5.795 11.6 11.6 0 0 0 .87 4.714 12.2 12.2 0 0 0 2.376 3.614 19 19 0 0 0 3.573 2.919q2.054 1.324 4.432 2.6 2.216 1.022 4.157 1.965 1.768.843 3.378 1.962a8.7 8.7 0 0 1 2.184 2.224c.541.873.811 1.892.776 2.919.057.941-.127 1.876-.535 2.722s-1.027 1.565-1.795 2.095q-2.392 1.649-7.286 1.649a18 18 0 0 1-3.108-.297 24 24 0 0 1-3.322-.841 19 19 0 0 1-3.108-1.335 12.4 12.4 0 0 1-2.595-1.784v8.081c.805.486 1.67.862 2.573 1.116q1.676.514 3.395.841c1.195.235 2.33.408 3.503.535 1.173.124 2.105.181 2.889.181a31.5 31.5 0 0 0 6.678-.692 17 17 0 0 0 5.595-2.246 11.6 11.6 0 0 0 3.881-4.022 11.9 11.9 0 0 0 1.43-6.07 11.35 11.35 0 0 0-.957-4.759 13.8 13.8 0 0 0-2.578-3.811m36.319.003a21.6 21.6 0 0 0-3.814-3.143 60 60 0 0 0-4.622-2.703 108 108 0 0 1-4.189-1.962 19.7 19.7 0 0 1-3.065-1.862 7 7 0 0 1-1.903-2.114 5.4 5.4 0 0 1-.654-2.73 4.83 4.83 0 0 1 .849-2.876 6.7 6.7 0 0 1 2.197-1.941 10 10 0 0 1 3.068-1.092q1.705-.33 3.441-.33 6.259 0 10.235 2.905V1.681Q137.03 0 129.706 0a26 26 0 0 0-6.324.784 17.8 17.8 0 0 0-5.53 2.357 12.7 12.7 0 0 0-3.884 4.054 11.1 11.1 0 0 0-1.484 5.786 11.6 11.6 0 0 0 .87 4.714 12.2 12.2 0 0 0 2.378 3.614 19 19 0 0 0 3.57 2.919q2.051 1.322 4.435 2.603 2.216 1.019 4.157 1.962 1.765.841 3.37 1.962a8.6 8.6 0 0 1 2.189 2.232 5.23 5.23 0 0 1 .778 2.919 5.49 5.49 0 0 1-2.4 4.786q-2.362 1.719-7.262 1.719-1.546-.016-3.068-.297a24 24 0 0 1-3.324-.843 19 19 0 0 1-3.108-1.332q-1.389-.73-2.562-1.784v8.043c.808.481 1.676.857 2.578 1.114q1.676.514 3.395.841c1.195.235 2.33.408 3.503.535 1.173.124 2.105.181 2.889.181a31.6 31.6 0 0 0 6.678-.692 17 17 0 0 0 5.595-2.246 11.6 11.6 0 0 0 3.881-4.022 11.9 11.9 0 0 0 1.43-6.07 11.35 11.35 0 0 0-.957-4.759 13.8 13.8 0 0 0-2.662-3.811M199.649.841v.784l-16.73 17.487L174.514.957l.049-.119h-9.257l.054.119-21.795 47.06h9.149l.257-.551 30.46-7.484 3.746 8.035h9.157l-6.681-14.414 9.951-24.289-.189 38.703h9.151l.232-47.179zm-6.516 11.081-7.838 12.332-1.289-2.789zm-23.2-1.081 6.586 14.222-20.497 15.816zm7.627 16.492 1.616 3.486L159.86 41.03zM161.436 42.89l18.749-9.903 2.189 4.711zm26.819-12.259-1.757-3.778 9.322-14.67zm-73.533 46.72h-1.719V67.197h1.719zm8.378 0h-1.622V73.27q0-2.038-1.424-2.035a1.54 1.54 0 0 0-1.216.565 2.08 2.08 0 0 0-.492 1.414v4.138h-1.63v-7.249h1.63v1.203a2.57 2.57 0 0 1 2.33-1.376 2.16 2.16 0 0 1 1.786.784 3.48 3.48 0 0 1 .614 2.224zm1.251-.227V75.6a3.15 3.15 0 0 0 2.003.697q1.478 0 1.476-.87a.7.7 0 0 0-.132-.424 1.1 1.1 0 0 0-.332-.305 2.7 2.7 0 0 0-.505-.243l-.646-.238a8 8 0 0 1-.776-.378 2.7 2.7 0 0 1-.589-.454 1.6 1.6 0 0 1-.351-.565 2.2 2.2 0 0 1-.116-.784 1.73 1.73 0 0 1 .243-.919 2.2 2.2 0 0 1 .659-.676q.435-.284.938-.408.53-.146 1.081-.143a4.9 4.9 0 0 1 1.778.305v1.438a2.97 2.97 0 0 0-2.292-.462 1.6 1.6 0 0 0-.419.181 1.1 1.1 0 0 0-.278.273.65.65 0 0 0-.095.346.8.8 0 0 0 .095.4q.111.181.295.284.216.141.459.227l.622.222q.459.197.83.392.341.186.627.449a1.9 1.9 0 0 1 .397.581 1.9 1.9 0 0 1 .141.784 1.9 1.9 0 0 1-.249.959 2.2 2.2 0 0 1-.676.684q-.449.286-.973.4-.57.13-1.157.124a4.9 4.9 0 0 1-2.057-.351m10.119.146a2.84 2.84 0 0 1-1.249.238q-2.089.005-2.089-2.019v-4.1h-1.197v-1.286h1.197v-1.681l1.622-.462v2.143h1.716v1.286h-1.716v3.622c-.027.324.054.649.235.919a.95.95 0 0 0 .776.284 1.14 1.14 0 0 0 .714-.243zm1.935-8.692a.97.97 0 0 1-.684-.259.9.9 0 0 1-.289-.668.92.92 0 0 1 .289-.676.97.97 0 0 1 .684-.265 1.03 1.03 0 0 1 .697.265.9.9 0 0 1 .286.676.87.87 0 0 1-.286.654.97.97 0 0 1-.697.273m.776 8.773h-1.63v-7.249h1.63zm5.641-.081a2.7 2.7 0 0 1-1.249.238q-2.089.005-2.089-2.019v-4.1h-1.197v-1.286h1.197v-1.681l1.63-.462v2.143h1.708v1.286h-1.708v3.622c-.032.324.046.649.224.919a.95.95 0 0 0 .778.284 1.08 1.08 0 0 0 .714-.243zm7.368.081h-1.63v-1.17a2.35 2.35 0 0 1-2.197 1.311q-2.541 0-2.541-3.086v-4.303h1.622v4.162q0 1.957 1.492 1.957a1.49 1.49 0 0 0 1.189-.541 2.05 2.05 0 0 0 .459-1.408v-4.17h1.63zm5.608-.081a2.9 2.9 0 0 1-1.259.238q-2.081.005-2.081-2.019v-4.1h-1.203v-1.286h1.203v-1.681l1.622-.462v2.143h1.719v1.286h-1.716v3.622c-.027.324.051.649.224.919a.95.95 0 0 0 .778.284 1.16 1.16 0 0 0 .714-.243zm7.095-3.1h-4.886a2.16 2.16 0 0 0 .614 1.57 2.27 2.27 0 0 0 1.608.543c.757 0 1.495-.243 2.105-.692v1.319a4.76 4.76 0 0 1-2.586.622 3.19 3.19 0 0 1-2.486-.981 3.95 3.95 0 0 1-.892-2.781 3.87 3.87 0 0 1 .986-2.757 3.24 3.24 0 0 1 2.459-1.114 2.81 2.81 0 0 1 2.278.957c.565.762.838 1.703.776 2.654zm-1.554-1.162a2.16 2.16 0 0 0-.419-1.373 1.35 1.35 0 0 0-1.119-.495 1.54 1.54 0 0 0-1.189.516 2.43 2.43 0 0 0-.597 1.351zm7.646-.03a1.35 1.35 0 0 1 .7.17c.208.105.378.27.486.481q.168.319.165.676c0 .551-.146 1.092-.419 1.568a3.24 3.24 0 0 1-1.119 1.203 2.54 2.54 0 0 1-1.389.449 1.27 1.27 0 0 1-.978-.384 1.35 1.35 0 0 1-.351-.935 3 3 0 0 1 .257-1.232q.254-.551.659-1a3.2 3.2 0 0 1 .919-.689 2.3 2.3 0 0 1 1.07-.305m-.186.251a.62.62 0 0 0-.411.141 4.1 4.1 0 0 0-.738 1.389 6 6 0 0 0-.414 1.973.54.54 0 0 0 .135.359.4.4 0 0 0 .308.141.5.5 0 0 0 .319-.116 2.4 2.4 0 0 0 .505-.784 6.2 6.2 0 0 0 .489-1.305q.178-.643.195-1.311a.54.54 0 0 0-.116-.378.35.35 0 0 0-.27-.108m4.141.43-.522 2.176a10 10 0 0 1-.776 2.238 2.8 2.8 0 0 1-.849 1.03 1.9 1.9 0 0 1-1.116.33.92.92 0 0 1-.584-.149.46.46 0 0 1-.149-.546.5.5 0 0 1 .108-.154.6.6 0 0 1 .414-.141.43.43 0 0 1 .319.108.35.35 0 0 1 .116.276.27.27 0 0 1-.07.222q-.07.081-.07.103a.08.08 0 0 0 .062 0 .35.35 0 0 0 .243-.095 1.35 1.35 0 0 0 .362-.535q.081-.216.327-1.146l.946-3.77h-.643l.149-.549a1.1 1.1 0 0 0 .514-.095 1.1 1.1 0 0 0 .332-.424 4.05 4.05 0 0 1 1.086-1.376 2.1 2.1 0 0 1 1.268-.416 1 1 0 0 1 .651.181.614.614 0 0 1 .07.841.46.46 0 0 1-.343.141.4.4 0 0 1-.303-.116.35.35 0 0 1-.124-.284.54.54 0 0 1 .081-.251.5.5 0 0 0 .076-.181l.008-.038-.008-.041a.14.14 0 0 0-.086 0 .78.78 0 0 0-.568.346 4.3 4.3 0 0 0-.776 1.751h.684l-.17.551zm3.462 3.308v-1.73q.249.227.549.378.324.178.676.289.351.114.716.181.324.057.651.062a2.8 2.8 0 0 0 1.554-.351 1.16 1.16 0 0 0 .514-1.03 1.1 1.1 0 0 0-.173-.63 1.9 1.9 0 0 0-.481-.478 4.3 4.3 0 0 0-.722-.424l-.892-.424a14 14 0 0 1-.957-.557 4 4 0 0 1-.776-.63 2.7 2.7 0 0 1-.514-.784 2.7 2.7 0 0 1-.186-1.014 2.43 2.43 0 0 1 .319-1.241 2.7 2.7 0 0 1 .838-.873q.551-.351 1.189-.508.67-.168 1.359-.165a5.4 5.4 0 0 1 2.33.359v1.657a3.68 3.68 0 0 0-2.197-.622q-.373 0-.738.073a2.2 2.2 0 0 0-.654.235 1.35 1.35 0 0 0-.473.416 1.1 1.1 0 0 0-.186.622 1.16 1.16 0 0 0 .141.581q.157.27.411.454.319.23.659.4l.903.424q.522.276.986.573.449.297.822.676.343.349.559.786.208.489.203 1.022a2.6 2.6 0 0 1-.319 1.324 2.4 2.4 0 0 1-.83.865 3.5 3.5 0 0 1-1.205.481 6.5 6.5 0 0 1-1.43.149 5 5 0 0 1-.622 0c-.246 0-.495-.062-.776-.108a8 8 0 0 1-.73-.181 2.2 2.2 0 0 1-.519-.259m18.538.384h-1.622v-3.927a3.24 3.24 0 0 0-.319-1.649 1.19 1.19 0 0 0-1.081-.511 1.27 1.27 0 0 0-1.078.646 2.7 2.7 0 0 0-.443 1.568v3.93h-1.67v-4.087q0-2.027-1.411-2.027a1.27 1.27 0 0 0-1.081.605 2.7 2.7 0 0 0-.427 1.568v3.93h-1.622v-7.297h1.622v1.149a2.49 2.49 0 0 1 2.308-1.351 2.16 2.16 0 0 1 1.297.416 2.08 2.08 0 0 1 .776 1.081 2.54 2.54 0 0 1 2.362-1.5q2.327 0 2.368 2.954zm7.168 0h-1.551v-1.13a2.4 2.4 0 0 1-2.176 1.297 2.32 2.32 0 0 1-1.654-.576 2.03 2.03 0 0 1-.597-1.57q0-2.049 2.33-2.397l2.127-.305c0-1.027-.486-1.57-1.459-1.57a3.4 3.4 0 0 0-2.33.895v-1.381a4.95 4.95 0 0 1 2.616-.684q2.716 0 2.711 2.711zm-1.551-3.568-1.508.216a2.4 2.4 0 0 0-1.054.343 1 1 0 0 0-.351.878.97.97 0 0 0 .324.786c.243.208.557.314.873.297a1.62 1.62 0 0 0 1.227-.524 1.9 1.9 0 0 0 .486-1.327zm7.411-2.119a1.35 1.35 0 0 0-.849-.235 1.43 1.43 0 0 0-1.203.659 2.97 2.97 0 0 0-.481 1.792v3.47h-1.622v-7.249h1.622v1.492a2.57 2.57 0 0 1 .73-1.195 1.68 1.68 0 0 1 1.103-.424 1.35 1.35 0 0 1 .676.135zm5.057 5.605a2.9 2.9 0 0 1-1.259.238q-2.081.005-2.081-2.019v-4.1h-1.195v-1.286h1.211v-1.681l1.622-.462v2.143h1.719v1.286h-1.719v3.622c-.027.324.054.649.235.919a.95.95 0 0 0 .776.284 1.16 1.16 0 0 0 .714-.243zm4.486-.305V75.24q.243.227.543.378.324.17.676.289.351.111.714.181.33.057.662.062a2.77 2.77 0 0 0 1.551-.351 1.16 1.16 0 0 0 .522-1.03 1.1 1.1 0 0 0-.178-.63 1.6 1.6 0 0 0-.473-.478 5.4 5.4 0 0 0-.73-.424l-.886-.424a14 14 0 0 1-.957-.557 3.8 3.8 0 0 1-.776-.63 2.57 2.57 0 0 1-.692-1.797 2.3 2.3 0 0 1 .319-1.243 2.7 2.7 0 0 1 .838-.87 3.8 3.8 0 0 1 1.189-.511q.668-.162 1.351-.162a5.4 5.4 0 0 1 2.33.359v1.657a3.68 3.68 0 0 0-2.197-.622q-.373 0-.738.073a2.2 2.2 0 0 0-.659.235 1.35 1.35 0 0 0-.476.416 1.1 1.1 0 0 0-.178.622 1.16 1.16 0 0 0 .141.581q.159.27.411.454.311.227.654.4l.9.424q.527.276.995.573.422.297.776.676.351.343.559.784a2.4 2.4 0 0 1 .211 1.022 2.5 2.5 0 0 1-.311 1.305 2.4 2.4 0 0 1-.832.865 3.5 3.5 0 0 1-1.195.478 6.5 6.5 0 0 1-1.438.149 5 5 0 0 1-.622 0c-.241 0-.486-.062-.776-.108q-.368-.07-.722-.184a2.2 2.2 0 0 1-.505-.235m13.662-6.862-3.232 8.432q-1.008 2.251-2.832 2.249a3.2 3.2 0 0 1-.857-.095v-1.368q.346.122.708.135a1.43 1.43 0 0 0 1.351-.911l.489-1.186-2.851-7.232h1.795l1.708 5.262c0 .07.062.243.135.524 0-.108.059-.273.122-.511l1.795-5.276zm.341 7.022v-1.524a3.2 3.2 0 0 0 2.011.7q1.468 0 1.47-.873a.7.7 0 0 0-.124-.424 1.1 1.1 0 0 0-.343-.305 2.7 2.7 0 0 0-.505-.243l-.643-.235a8 8 0 0 1-.776-.378 2.2 2.2 0 0 1-.592-.454 1.9 1.9 0 0 1-.357-.568 2.2 2.2 0 0 1-.116-.784 1.73 1.73 0 0 1 .249-.919 2.2 2.2 0 0 1 .651-.676q.441-.278.941-.408a4.87 4.87 0 0 1 2.865.165v1.438a2.97 2.97 0 0 0-2.289-.465 1.4 1.4 0 0 0-.43.181.8.8 0 0 0-.27.276.6.6 0 0 0-.103.346.73.73 0 0 0 .103.4q.108.176.286.284a2.7 2.7 0 0 0 .468.227l.614.219q.468.197.83.392.346.181.63.449a1.9 1.9 0 0 1 .395.581 1.9 1.9 0 0 1 .141.784 1.76 1.76 0 0 1-.249.959 2.2 2.2 0 0 1-.676.684q-.449.284-.962.4a5.4 5.4 0 0 1-1.165.127 4.9 4.9 0 0 1-2.051-.354m10.122.146a2.8 2.8 0 0 1-1.251.238q-2.086.005-2.089-2.019v-4.1h-1.195v-1.286h1.195v-1.681l1.632-.462v2.143h1.708v1.286h-1.708v3.622c-.032.324.046.649.224.919a.95.95 0 0 0 .776.284 1.08 1.08 0 0 0 .716-.243zm7.097-3.1h-4.862a2.16 2.16 0 0 0 .614 1.57 2.27 2.27 0 0 0 1.608.543c.757 0 1.495-.243 2.105-.692v1.319a4.76 4.76 0 0 1-2.586.622 3.16 3.16 0 0 1-2.486-.981 3.95 3.95 0 0 1-.9-2.781 3.9 3.9 0 0 1 .995-2.757 3.24 3.24 0 0 1 2.438-1.114 2.81 2.81 0 0 1 2.276.957c.568.762.841 1.703.778 2.654zm-1.554-1.162a2.1 2.1 0 0 0-.411-1.373 1.38 1.38 0 0 0-1.119-.495 1.54 1.54 0 0 0-1.189.516 2.43 2.43 0 0 0-.589 1.384zm13.532 4.343h-1.622v-3.927a3.24 3.24 0 0 0-.322-1.649 1.16 1.16 0 0 0-1.07-.511 1.27 1.27 0 0 0-1.081.646 2.7 2.7 0 0 0-.441 1.568v3.93h-1.632v-4.089q0-2.027-1.422-2.027a1.27 1.27 0 0 0-1.081.605 2.7 2.7 0 0 0-.416 1.568v3.93H250v-7.297h1.638v1.146a2.51 2.51 0 0 1 2.27-1.351 2.135 2.135 0 0 1 2.081 1.503 2.54 2.54 0 0 1 2.362-1.5q2.327 0 2.327 2.951zm1.249-.227v-1.524a3.2 3.2 0 0 0 2.011.7q1.468 0 1.468-.873a.8.8 0 0 0-.124-.424 1.1 1.1 0 0 0-.341-.305 2.7 2.7 0 0 0-.505-.243l-.643-.235a8 8 0 0 1-.778-.378 2.4 2.4 0 0 1-.581-.454 1.6 1.6 0 0 1-.359-.568 2.2 2.2 0 0 1-.116-.784 1.73 1.73 0 0 1 .243-.919 2.2 2.2 0 0 1 .659-.676q.435-.278.938-.408a4.87 4.87 0 0 1 2.865.165v1.438a2.97 2.97 0 0 0-2.297-.465 1.6 1.6 0 0 0-.419.181.8.8 0 0 0-.27.276.6.6 0 0 0-.103.346.73.73 0 0 0 .1.4q.108.176.289.284a2.7 2.7 0 0 0 .465.227l.614.219q.468.197.832.392.343.181.627.449a1.9 1.9 0 0 1 .397.581 1.9 1.9 0 0 1 .141.784 1.9 1.9 0 0 1-.249.959 2.2 2.2 0 0 1-.676.684q-.449.284-.973.4-.57.13-1.157.127a4.9 4.9 0 0 1-2.057-.354M116.352 90.435l-.905 3.143-.095.376v.108q0 .057.038.097a.11.11 0 0 0 .086.046.54.54 0 0 0 .27-.149q.181-.211.335-.441l.162.086q-.259.522-.705.895a1.35 1.35 0 0 1-.776.284.54.54 0 0 1-.414-.143.5.5 0 0 1-.138-.351q.035-.351.154-.684l.108-.384a4.6 4.6 0 0 1-1.041 1.335 1 1 0 0 1-.614.227.65.65 0 0 1-.622-.362 1.6 1.6 0 0 1-.195-.784 3.7 3.7 0 0 1 .405-1.573 3.8 3.8 0 0 1 1.054-1.381 1.62 1.62 0 0 1 1.003-.432.54.54 0 0 1 .422.149q.203.243.241.559l.162-.573zm-1.497.895a1 1 0 0 0-.116-.549.27.27 0 0 0-.224-.119.46.46 0 0 0-.303.143q-.449.532-.676 1.184a4.3 4.3 0 0 0-.359 1.573.6.6 0 0 0 .081.359.24.24 0 0 0 .184.111.54.54 0 0 0 .419-.243 4.3 4.3 0 0 0 .995-2.432zm4.381-.954-.576 2.027q.397-.641.87-1.219.324-.373.73-.646a1.35 1.35 0 0 1 .584-.162.54.54 0 0 1 .411.178.65.65 0 0 1 .178.473 2.2 2.2 0 0 1-.116.643l-.597 2.019a3 3 0 0 0-.07.338.1.1 0 0 0 0 .086.08.08 0 0 0 .078 0 .14.14 0 0 0 .092 0 2 2 0 0 0 .335-.386l.132-.195.178.108c-.459.784-.941 1.162-1.446 1.162a.65.65 0 0 1-.449-.149.5.5 0 0 1-.162-.378 2.2 2.2 0 0 1 .114-.586l.584-2.019a1 1 0 0 0 .054-.292.11.11 0 0 0-.038-.092.16.16 0 0 0-.103 0 .7.7 0 0 0-.427.243 6.7 6.7 0 0 0-1.243 1.851l-.386 1.405h-1.189l.878-3.03a2.7 2.7 0 0 0 .124-.635.216.216 0 0 0-.162-.222.8.8 0 0 0-.314 0l.049-.181 1.551-.273zm8.138-2.178-1.554 5.262a4 4 0 0 0-.146.597.1.1 0 0 0 .038.086l.038.008q.022 0 .041-.008a.32.32 0 0 0 .186-.081 1.9 1.9 0 0 0 .419-.5l.17.095c-.443.784-.924 1.162-1.451 1.162a.6.6 0 0 1-.427-.149.54.54 0 0 1-.157-.386 2.2 2.2 0 0 1 .124-.627l.141-.486a5 5 0 0 1-1.011 1.389 1.08 1.08 0 0 1-.635.259.76.76 0 0 1-.592-.292 1.27 1.27 0 0 1-.241-.838c0-.481.108-.954.303-1.392q.273-.622.716-1.138.33-.397.776-.654a1.6 1.6 0 0 1 .722-.195q.173-.003.324.07.186.119.33.284l.332-1.132a2.7 2.7 0 0 0 .124-.627.27.27 0 0 0-.078-.189.32.32 0 0 0-.224-.081h-.162l.046-.178 1.554-.289zm-2.051 2.992a.68.68 0 0 0-.108-.416.35.35 0 0 0-.265-.135.54.54 0 0 0-.324.162 3.5 3.5 0 0 0-.692 1.216 4.3 4.3 0 0 0-.357 1.568.54.54 0 0 0 .076.341.22.22 0 0 0 .181.108.5.5 0 0 0 .324-.157c.341-.351.605-.773.778-1.232a3.8 3.8 0 0 0 .357-1.454zm13.703 3.559h-1.827l-.908-2.584h-3.946l-.87 2.584h-1.77l3.759-10.157h1.873zm-3.17-3.927-1.397-4.054a5 5 0 0 1-.132-.635q-.041.324-.141.635l-1.373 4.022zm8.751-1.759a1.35 1.35 0 0 0-.846-.235 1.43 1.43 0 0 0-1.203.659 3 3 0 0 0-.484 1.792v3.47h-1.622V87.5h1.622v1.492a2.5 2.5 0 0 1 .738-1.195 1.62 1.62 0 0 1 1.103-.424 1.35 1.35 0 0 1 .67.135zm5.546 5.608a3 3 0 0 1-1.257.235q-2.084.005-2.081-2.019v-4.1h-1.197v-1.286h1.173V85.82l1.622-.465v2.146h1.719v1.286h-1.719v3.622a1.46 1.46 0 0 0 .235.927.95.95 0 0 0 .776.276 1.16 1.16 0 0 0 .714-.243zm2.416-8.697a1 1 0 0 1-.686-.257.87.87 0 0 1-.278-.668.92.92 0 0 1 .278-.676 1.027 1.027 0 0 1 1.384 0 .9.9 0 0 1 .286.676.87.87 0 0 1-.286.651.95.95 0 0 1-.7.276m.776 8.776h-1.624v-7.251h1.622zm6.411-9.397a1.54 1.54 0 0 0-.776-.195c-.778 0-1.181.454-1.181 1.357v.984h1.662v1.286h-1.654v5.962h-1.622v-5.965h-1.23v-1.286h1.227V86.32a2.32 2.32 0 0 1 .738-1.808 2.7 2.7 0 0 1 1.857-.659q.492-.019.954.135zm1.905.619a.95.95 0 0 1-.892-.559.8.8 0 0 1-.073-.365.9.9 0 0 1 .286-.676 1.027 1.027 0 0 1 1.381 0 .9.9 0 0 1 .284.676.9.9 0 0 1-.281.651.97.97 0 0 1-.705.276m.776 8.776h-1.622v-7.251h1.622zm7.486-.343a4 4 0 0 1-2.043.503 3.38 3.38 0 0 1-2.573-1.005 3.6 3.6 0 0 1-.986-2.614 3.97 3.97 0 0 1 1.057-2.876 3.73 3.73 0 0 1 2.819-1.092 4.1 4.1 0 0 1 1.732.346v1.57a2.62 2.62 0 0 0-1.6-.565 2.16 2.16 0 0 0-1.684.708 2.54 2.54 0 0 0-.662 1.838 2.5 2.5 0 0 0 .622 1.784 2.16 2.16 0 0 0 1.662.649 2.57 2.57 0 0 0 1.654-.635zm2.622-8.435a1 1 0 0 1-.681-.257.87.87 0 0 1-.281-.668.92.92 0 0 1 .281-.676 1.027 1.027 0 0 1 1.384 0 .9.9 0 0 1 .286.676.87.87 0 0 1-.286.651.95.95 0 0 1-.703.276m.778 8.776h-1.622v-7.251h1.622zm7.851-.003h-1.554v-1.132a2.4 2.4 0 0 1-2.173 1.297 2.32 2.32 0 0 1-1.662-.576 2.05 2.05 0 0 1-.6-1.568c0-1.368.778-2.17 2.332-2.359l2.127-.297c0-1.038-.481-1.57-1.451-1.57a3.46 3.46 0 0 0-2.332.895v-1.438a5 5 0 0 1 2.627-.684q2.716 0 2.711 2.711zm-1.554-3.568-1.497.214a2.4 2.4 0 0 0-1.057.343 1.03 1.03 0 0 0-.357.881.97.97 0 0 0 .324.784 1.27 1.27 0 0 0 .878.3 1.62 1.62 0 0 0 1.227-.527 1.9 1.9 0 0 0 .481-1.324zm5.37 3.568h-1.63V84.036h1.63zm8.349 0h-1.719V84.593h1.719zm8.868 0h-1.622v-4.084q0-2.038-1.422-2.035a1.54 1.54 0 0 0-1.227.568 2.1 2.1 0 0 0-.481 1.411v4.141h-1.632v-7.249h1.632v1.2a2.57 2.57 0 0 1 2.33-1.373 2.16 2.16 0 0 1 1.784.784c.454.649.67 1.432.616 2.224zm5.943-.078a2.84 2.84 0 0 1-1.249.235q-2.089.005-2.092-2.019v-4.1h-1.195v-1.286h1.195v-1.681l1.624-.465v2.146h1.716v1.286h-1.716v3.622a1.48 1.48 0 0 0 .232.927.97.97 0 0 0 .778.276 1.16 1.16 0 0 0 .714-.243zm7.611-3.103h-4.886a2.16 2.16 0 0 0 .608 1.57 2.3 2.3 0 0 0 1.605.541c.759 0 1.5-.241 2.114-.689v1.319a4.87 4.87 0 0 1-2.595.622 3.16 3.16 0 0 1-2.476-.984 3.95 3.95 0 0 1-.903-2.778 3.87 3.87 0 0 1 .986-2.757 3.24 3.24 0 0 1 2.462-1.068 2.81 2.81 0 0 1 2.276.957c.568.762.841 1.703.776 2.654zm-1.554-1.162a2.16 2.16 0 0 0-.411-1.376 1.38 1.38 0 0 0-1.127-.495 1.54 1.54 0 0 0-1.181.519 2.38 2.38 0 0 0-.595 1.351zm4.932 4.343h-1.63V84.036h1.63zm3.946 0h-1.632V84.036h1.632zm3.127-8.776a1 1 0 0 1-.684-.257.87.87 0 0 1-.278-.668.92.92 0 0 1 .278-.676 1.027 1.027 0 0 1 1.384 0 .9.9 0 0 1 .286.676.87.87 0 0 1-.286.651.95.95 0 0 1-.7.276m.778 8.776h-1.622v-7.251h1.622zm8.878-.584q-.005 3.992-3.97 3.989a5.95 5.95 0 0 1-2.446-.47v-1.5a4.56 4.56 0 0 0 2.238.676q2.554 0 2.554-2.541v-.784a2.84 2.84 0 0 1-2.162 1.368 2.78 2.78 0 0 1-2.373-.951 3.95 3.95 0 0 1-.776-2.592 4.6 4.6 0 0 1 .862-2.938 2.87 2.87 0 0 1 2.368-1.089 2.27 2.27 0 0 1 2.105 1.176v-1.003h1.622zm-1.616-2.741v-.946a1.84 1.84 0 0 0-1.065-1.708 1.6 1.6 0 0 0-.684-.135 1.7 1.7 0 0 0-1.443.692 3.14 3.14 0 0 0-.522 1.924 2.7 2.7 0 0 0 .497 1.711 1.62 1.62 0 0 0 1.33.643 1.7 1.7 0 0 0 1.365-.611c.357-.443.541-1 .522-1.57m9.997.141h-4.886a2.16 2.16 0 0 0 .614 1.57 2.27 2.27 0 0 0 1.608.541c.757 0 1.495-.241 2.105-.689v1.319a4.76 4.76 0 0 1-2.586.622 3.16 3.16 0 0 1-2.486-.984 3.95 3.95 0 0 1-.9-2.778 3.9 3.9 0 0 1 .995-2.757 3.24 3.24 0 0 1 2.462-1.07 2.81 2.81 0 0 1 2.276.959c.568.762.841 1.703.776 2.654zm-1.554-1.162a2.1 2.1 0 0 0-.411-1.376 1.38 1.38 0 0 0-1.119-.495 1.54 1.54 0 0 0-1.189.519 2.38 2.38 0 0 0-.595 1.351zm9.722 4.343h-1.622v-4.084q0-2.038-1.422-2.035a1.54 1.54 0 0 0-1.227.568 2.1 2.1 0 0 0-.481 1.411v4.141h-1.632v-7.249h1.632v1.2a2.6 2.6 0 0 1 2.33-1.373 2.16 2.16 0 0 1 1.784.784 3.45 3.45 0 0 1 .638 2.208zm7.278-.338a4 4 0 0 1-2.041.503 3.38 3.38 0 0 1-2.573-1.005 3.6 3.6 0 0 1-.978-2.614 3.97 3.97 0 0 1 1.049-2.876 3.78 3.78 0 0 1 2.819-1.092 4.1 4.1 0 0 1 1.732.346v1.57a2.62 2.62 0 0 0-1.6-.565 2.16 2.16 0 0 0-1.684.705 2.54 2.54 0 0 0-.662 1.838 2.5 2.5 0 0 0 .622 1.784 2.16 2.16 0 0 0 1.662.651 2.57 2.57 0 0 0 1.654-.635zm7.875-2.843h-4.886a2.16 2.16 0 0 0 .614 1.57 2.27 2.27 0 0 0 1.608.541c.757 0 1.495-.241 2.105-.689v1.319a4.76 4.76 0 0 1-2.586.622 3.16 3.16 0 0 1-2.486-.984 3.95 3.95 0 0 1-.9-2.778 3.9 3.9 0 0 1 .995-2.757 3.24 3.24 0 0 1 2.459-1.068 2.81 2.81 0 0 1 2.278.957c.565.762.841 1.703.776 2.654zm-1.554-1.162a2.1 2.1 0 0 0-.411-1.376 1.38 1.38 0 0 0-1.119-.495 1.54 1.54 0 0 0-1.189.519 2.38 2.38 0 0 0-.595 1.351zM102.23 63.419h-1.514v34.989h1.514zM0 70.197h2.516l5.676 7.07v-5.443A1.9 1.9 0 0 0 8 70.748a1 1 0 0 0-.778-.292h-.341v-.259h3.216v.259h-.335a.92.92 0 0 0-.83.362 2.05 2.05 0 0 0-.157 1.005v7.916h-.232L2.43 72.176v5.784a1.9 1.9 0 0 0 .189 1.073 1.03 1.03 0 0 0 .776.297h.324v.254H.514v-.259h.324a.95.95 0 0 0 .838-.362 2.16 2.16 0 0 0 .149-1.014v-6.478a3.8 3.8 0 0 0-.614-.63 2.2 2.2 0 0 0-.605-.281 1.9 1.9 0 0 0-.605-.103zm16.162 6.243h-3.594l-.627 1.484a2.4 2.4 0 0 0-.235.784.49.49 0 0 0 .203.378c.27.138.568.211.87.211v.251H9.86v-.227a1.6 1.6 0 0 0 .776-.276q.514-.6.776-1.351l3.262-7.719h.243l3.23 7.808c.149.449.389.865.705 1.216a1.4 1.4 0 0 0 .886.324v.249h-3.684v-.251c.27.011.541-.054.776-.189a.49.49 0 0 0 .195-.392 3 3 0 0 0-.27-.957zm-.192-.514-1.554-3.792-1.614 3.795z" fill="#fff"/><path d="m27.37 70.197-6.1 8.819h3.805a2.08 2.08 0 0 0 1.343-.384c.414-.438.7-.981.832-1.57l.224.046-.435 2.484h-7.552v-.27l5.957-8.559h-2.973a2.7 2.7 0 0 0-1.073.159 1.2 1.2 0 0 0-.505.47c-.165.365-.27.757-.319 1.154h-.257l.189-2.357zm6.351 6.243h-3.595l-.616 1.484a2.4 2.4 0 0 0-.232.784.49.49 0 0 0 .203.378c.27.138.573.211.878.211v.251h-2.946v-.227a1.54 1.54 0 0 0 .778-.276 4.1 4.1 0 0 0 .776-1.351l3.262-7.719h.243l3.23 7.808c.151.449.392.862.705 1.216a1.46 1.46 0 0 0 .87.324v.249h-3.665v-.251c.27.011.541-.054.776-.189a.54.54 0 0 0 .195-.392 3 3 0 0 0-.278-.957zm-.195-.514-1.554-3.792-1.614 3.795z" fill="#fff"/><path d="M46.343 79.584h-2.476l-3.108-4.392h-.978v2.732a1.97 1.97 0 0 0 .195 1.1.97.97 0 0 0 .776.308h.357v.251h-4v-.259h.351a.92.92 0 0 0 .846-.395 2.16 2.16 0 0 0 .141-1.011v-6.054a1.97 1.97 0 0 0-.189-1.103 1.03 1.03 0 0 0-.776-.305h-.349v-.259h3.386a7.7 7.7 0 0 1 2.176.222c.465.135.884.405 1.195.784.324.389.5.886.489 1.397a2.22 2.22 0 0 1-.559 1.5 3.1 3.1 0 0 1-1.73.897l1.919 2.692c.297.478.684.895 1.132 1.235.373.222.795.354 1.227.392zm-6.595-4.824h.389a3 3 0 0 0 2.005-.581 1.87 1.87 0 0 0 .668-1.484 1.9 1.9 0 0 0-.551-1.438 1.9 1.9 0 0 0-1.432-.541 6 6 0 0 0-1.078.135z" fill="#fff"/><path d="M52.135 74.792a2.9 2.9 0 0 1 1.446.668 2.05 2.05 0 0 1 .662 1.568 2.43 2.43 0 0 1-.435 1.346 2.54 2.54 0 0 1-1.205.949c-.754.23-1.541.33-2.33.292h-4.378v-.292h.349a.95.95 0 0 0 .838-.378 2.16 2.16 0 0 0 .157-1.027v-6.054a1.9 1.9 0 0 0-.203-1.1 1 1 0 0 0-.776-.308h-.351v-.259h4.008a8 8 0 0 1 1.803.165 2.87 2.87 0 0 1 1.551.889c.354.4.549.919.546 1.454a2.05 2.05 0 0 1-.43 1.262 2.43 2.43 0 0 1-1.249.824m-3.586-.37q.286.049.576.07h.722a3.9 3.9 0 0 0 1.5-.219 1.62 1.62 0 0 0 .776-.668 1.89 1.89 0 0 0 .095-1.762 1.9 1.9 0 0 0-.489-.627 2.87 2.87 0 0 0-1.943-.532 4.6 4.6 0 0 0-1.235.157zm0 4.486q.768.184 1.554.186a2.8 2.8 0 0 0 1.932-.557 1.76 1.76 0 0 0 .654-1.4 2.16 2.16 0 0 0-.297-1.054 2 2 0 0 0-.962-.784 4.1 4.1 0 0 0-1.638-.289h-.722q-.243.005-.489.046zm12.308-2.465h-3.59l-.627 1.484a2.4 2.4 0 0 0-.235.784.46.46 0 0 0 .203.378 1.9 1.9 0 0 0 .865.235v.251h-2.914v-.251a1.6 1.6 0 0 0 .776-.276 4.1 4.1 0 0 0 .776-1.351l3.27-7.719h.243l3.222 7.808c.151.451.395.865.714 1.216a1.4 1.4 0 0 0 .886.324v.249h-3.697v-.251c.27.011.541-.054.776-.189a.49.49 0 0 0 .195-.392 3 3 0 0 0-.27-.957zm-.186-.514-1.554-3.792-1.646 3.795zm8.732-5.73h3.238v.259h-.181a2.03 2.03 0 0 0-1.141.614 6 6 0 0 0-.692.973l-2.235 3.557v2.357a1.9 1.9 0 0 0 .195 1.076 1.03 1.03 0 0 0 .776.297h.303v.254h-3.905v-.259h.332a.95.95 0 0 0 .832-.362 2.16 2.16 0 0 0 .154-1.014v-2.216l-2.546-3.924a8 8 0 0 0-.614-.873 2.4 2.4 0 0 0-.67-.405.8.8 0 0 0-.395-.073V70.2h3.938v.259h-.203a1.2 1.2 0 0 0-.597.149.49.49 0 0 0-.265.457 2.16 2.16 0 0 0 .411.903l1.943 3.024L69.9 72.1a2.16 2.16 0 0 0 .411-.973.6.6 0 0 0-.1-.346.6.6 0 0 0-.278-.235 1.35 1.35 0 0 0-.559-.086z" fill="#fff"/><path d="M75.214 70.684V74.4h2.041a1.68 1.68 0 0 0 1.065-.243 1.62 1.62 0 0 0 .397-1.124h.249v3.268h-.249a3.8 3.8 0 0 0-.195-.878.8.8 0 0 0-.405-.378 2 2 0 0 0-.862-.141h-2.041v3.095a2.7 2.7 0 0 0 .062.784.38.38 0 0 0 .186.222 1.1 1.1 0 0 0 .519.078h1.554q.578.019 1.141-.111a1.6 1.6 0 0 0 .684-.441 5.1 5.1 0 0 0 .87-1.286h.27l-.776 2.357h-7.151v-.276h.332a1.24 1.24 0 0 0 .803-.297.5.5 0 0 0 .114-.197q.105-.446.078-.905v-6.092a2 2 0 0 0-.178-1.1 1.08 1.08 0 0 0-.778-.276h-.332V70.2h7.154l.1 2.059h-.265a3.2 3.2 0 0 0-.319-1.022 1.1 1.1 0 0 0-.514-.416 3 3 0 0 0-.968-.111zm15.027-.486v.259a1.5 1.5 0 0 0-.778.314 2.9 2.9 0 0 0-.643 1.035l-3.238 7.989h-.249l-3.481-8.092a4 4 0 0 0-.378-.784 1.1 1.1 0 0 0-.422-.33 1.9 1.9 0 0 0-.676-.157v-.259h3.8v.259a1.6 1.6 0 0 0-.838.219.51.51 0 0 0-.189.408q.057.568.311 1.076l2.33 5.497 2.251-5.378q.251-.532.319-1.116a.54.54 0 0 0-.195-.384 1.35 1.35 0 0 0-.668-.259h-.116v-.259zM6.773 85.749v-.251H10v.251h-.341a.92.92 0 0 0-.832.454 2.16 2.16 0 0 0-.138.984v3.746a6.9 6.9 0 0 1-.273 2.159 2.73 2.73 0 0 1-1.073 1.311 3.8 3.8 0 0 1-2.173.549 4.05 4.05 0 0 1-2.27-.516 2.87 2.87 0 0 1-1.1-1.414 8.1 8.1 0 0 1-.216-2.278V87.13a1.8 1.8 0 0 0-.235-1.114.92.92 0 0 0-.776-.27H.257v-.249h3.951v.251h-.324a.89.89 0 0 0-.778.359 2 2 0 0 0-.17 1.022v4.027q.005.622.1 1.235a2.7 2.7 0 0 0 .297 1.068 2 2 0 0 0 .776.646 2.6 2.6 0 0 0 1.181.251 3.24 3.24 0 0 0 1.608-.403 2.16 2.16 0 0 0 .97-1.003 6 6 0 0 0 .257-2.092v-3.746a1.97 1.97 0 0 0-.189-1.081 1.03 1.03 0 0 0-.776-.3zm4.022-.251h2.486l5.584 6.927v-5.324a1.9 1.9 0 0 0-.189-1.07 1 1 0 0 0-.773-.281h-.319v-.251h3.184v.251h-.343a.92.92 0 0 0-.814.351 2.05 2.05 0 0 0-.157 1v7.789h-.238l-6.011-7.443v5.692a1.9 1.9 0 0 0 .186 1.059 1.03 1.03 0 0 0 .776.284h.327v.259h-3.186v-.259h.341a.95.95 0 0 0 .832-.351 2 2 0 0 0 .146-.992v-6.432a4.6 4.6 0 0 0-.595-.622 2.7 2.7 0 0 0-.608-.273 2.2 2.2 0 0 0-.597-.062zm15.238 8.984v.259h-3.884v-.259h.327a.97.97 0 0 0 .824-.33 2.16 2.16 0 0 0 .154-1.054V87.13a3 3 0 0 0-.086-.927.6.6 0 0 0-.27-.289 1.35 1.35 0 0 0-.622-.165h-.324v-.251h3.881v.251h-.324a.95.95 0 0 0-.816.338 1.9 1.9 0 0 0-.173 1.043v5.97q-.022.468.086.927.095.2.286.297.289.162.614.157zm10.968-8.984v.251a1.54 1.54 0 0 0-.778.314 2.8 2.8 0 0 0-.627 1.022l-3.192 7.854h-.249l-3.419-7.957a4 4 0 0 0-.365-.784 1.4 1.4 0 0 0-.419-.332 1.9 1.9 0 0 0-.659-.157v-.251h3.773v.251a1.6 1.6 0 0 0-.822.222.49.49 0 0 0-.195.4c.041.368.146.73.311 1.059l2.33 5.419 2.151-5.349q.249-.522.319-1.1a.54.54 0 0 0-.195-.378 1.35 1.35 0 0 0-.659-.249h-.116v-.251zm3.884.503v3.649h2.003a1.62 1.62 0 0 0 1.049-.235 1.62 1.62 0 0 0 .389-1.108h.249v3.222h-.251a3.5 3.5 0 0 0-.189-.865.9.9 0 0 0-.395-.376 2 2 0 0 0-.854-.135h-2.003v3.041q-.032.397.054.784a.35.35 0 0 0 .186.216q.246.1.514.076h1.551q.568.027 1.127-.108a1.6 1.6 0 0 0 .676-.424q.522-.573.854-1.273h.27l-.776 2.316H38.28v-.259h.319a1.22 1.22 0 0 0 .792-.286.5.5 0 0 0 .116-.192q.103-.441.078-.895v-6a1.97 1.97 0 0 0-.178-1.084 1.03 1.03 0 0 0-.778-.276h-.316v-.251h7.035l.1 2.027h-.254q-.081-.532-.319-1.005a1.1 1.1 0 0 0-.505-.416 3 3 0 0 0-.957-.103zm15.697 8.741h-2.441l-3.108-4.33h-.954v2.686a1.9 1.9 0 0 0 .189 1.084.95.95 0 0 0 .776.297h.357v.262h-3.887v-.259h.343a.92.92 0 0 0 .83-.378 2.16 2.16 0 0 0 .141-1.005v-5.968a1.9 1.9 0 0 0-.189-1.084 1.03 1.03 0 0 0-.776-.297h-.341v-.254h3.324a8 8 0 0 1 2.151.214 2.47 2.47 0 0 1 1.173.784 2.08 2.08 0 0 1 .481 1.376 2.16 2.16 0 0 1-.551 1.476 3.1 3.1 0 0 1-1.703.889l1.889 2.646c.297.468.673.881 1.108 1.216.37.219.786.351 1.216.378zm-6.486-4.714h.389a2.98 2.98 0 0 0 1.973-.573 1.84 1.84 0 0 0 .668-1.459 1.9 1.9 0 0 0-.535-1.405 1.9 1.9 0 0 0-1.422-.543 5.4 5.4 0 0 0-1.057.124zm13.524-4.743v3.197h-.249a4.1 4.1 0 0 0-.435-1.47 2.27 2.27 0 0 0-.892-.865 2.43 2.43 0 0 0-1.205-.319 1.62 1.62 0 0 0-1.157.438 1.3 1.3 0 0 0-.459.984c0 .289.105.568.297.784a7.5 7.5 0 0 0 1.978 1.368q.914.47 1.757 1.059a2.6 2.6 0 0 1 .714.881c.168.324.257.684.257 1.051a2.38 2.38 0 0 1-.778 1.814 2.9 2.9 0 0 1-2.065.784 5.4 5.4 0 0 1-.776-.054 8 8 0 0 1-.865-.251 4 4 0 0 0-.83-.211.35.35 0 0 0-.27.103.8.8 0 0 0-.141.416h-.249v-3.143h.249c.07.522.227 1.027.465 1.495a2.3 2.3 0 0 0 .911.784c.411.222.87.335 1.335.33a1.9 1.9 0 0 0 1.335-.454 1.38 1.38 0 0 0 .303-1.751 2.2 2.2 0 0 0-.576-.646 22 22 0 0 0-1.435-.87 13.5 13.5 0 0 1-1.67-1.059 2.7 2.7 0 0 1-.776-.873 2.16 2.16 0 0 1-.257-1.043 2.3 2.3 0 0 1 .776-1.714 2.7 2.7 0 0 1 1.927-.722c.538.008 1.065.13 1.554.359q.254.132.535.173.165.003.286-.108a.9.9 0 0 0 .178-.424zm6.435 9.197v.259h-3.884v-.259h.327a.97.97 0 0 0 .824-.33 2.16 2.16 0 0 0 .162-1.054V87.13a3 3 0 0 0-.092-.927.54.54 0 0 0-.273-.289 1.35 1.35 0 0 0-.622-.165h-.324v-.251h3.881v.251h-.332a.95.95 0 0 0-.778.338 2 2 0 0 0-.17 1.043v5.97q-.027.47.095.927a.54.54 0 0 0 .278.297q.289.162.614.157zm9.168-8.984.1 2.168h-.257q-.043-.408-.203-.784a1.3 1.3 0 0 0-.559-.584 1.9 1.9 0 0 0-.908-.189h-1.281v7.07a1.9 1.9 0 0 0 .178 1.059 1.03 1.03 0 0 0 .776.284h.319v.259h-3.881v-.259h.316a.92.92 0 0 0 .824-.354 2 2 0 0 0 .149-.989v-7.071h-1.097a3 3 0 0 0-.908.095 1.35 1.35 0 0 0-.605.495 2.16 2.16 0 0 0-.297 1h-.254l.108-2.17zm7.827 0h3.192v.251h-.146a1.4 1.4 0 0 0-.514.157 2.2 2.2 0 0 0-.614.449 7 7 0 0 0-.676.957l-2.205 3.511v2.357a1.9 1.9 0 0 0 .186 1.059 1.08 1.08 0 0 0 .776.284h.303v.259h-3.884v-.259h.327a.92.92 0 0 0 .776-.354 2 2 0 0 0 .149-.989v-2.23l-2.5-3.873a7 7 0 0 0-.605-.849 2.4 2.4 0 0 0-.662-.408.8.8 0 0 0-.386-.07v-.251h3.881v.251h-.2a1.1 1.1 0 0 0-.584.149.49.49 0 0 0-.262.449q.105.492.411.886l1.903 2.976 1.795-2.843a2.16 2.16 0 0 0 .405-.957.65.65 0 0 0-.095-.338.7.7 0 0 0-.281-.235 1.35 1.35 0 0 0-.551-.086z" fill="#fff"/></svg>