<svg width="99" height="37" viewBox="0 0 99 37" fill="none" xmlns="http://www.w3.org/2000/svg">
<path d="M24.7021 0.293457H21.7451V17.787H24.7021V0.293457Z" fill="white"/>
<path d="M37.9321 10.0893C37.5069 9.64896 37.0336 9.259 36.5212 8.92692C35.9828 8.57821 35.4139 8.245 34.8142 7.92729C34.2261 7.66576 33.7088 7.4236 33.2625 7.20082C32.8594 7.00702 32.4747 6.77651 32.113 6.51212C31.8284 6.30244 31.5889 6.0365 31.409 5.73043C31.2419 5.42069 31.1586 5.07187 31.1676 4.71918C31.1563 4.33984 31.2661 3.96692 31.4808 3.65562C31.6962 3.35863 31.9739 3.11352 32.294 2.93786C32.6528 2.7406 33.0411 2.60415 33.4435 2.53395C33.8631 2.45289 34.2893 2.41203 34.7165 2.4119C36.2587 2.4119 37.5212 2.77029 38.504 3.48708V0.621865C37.6668 0.20729 36.343 2.97435e-06 34.5326 2.97435e-06C33.7412 -0.000621124 32.9527 0.0969716 32.1848 0.290593C31.4589 0.461956 30.7671 0.756737 30.1388 1.16236C29.5557 1.54811 29.0649 2.06032 28.702 2.6618C28.328 3.31186 28.1409 4.05459 28.1617 4.80636C28.1478 5.40386 28.2574 5.99771 28.4836 6.54989C28.6954 7.045 28.9932 7.49772 29.3629 7.88661C29.7583 8.3001 30.2022 8.66313 30.6848 8.9676C31.1906 9.29306 31.7375 9.61368 32.3256 9.92945C32.8716 10.1813 33.3841 10.4235 33.863 10.6559C34.2984 10.8636 34.7165 11.1066 35.1131 11.3824C35.4295 11.6045 35.7032 11.8832 35.9206 12.2048C36.1202 12.5283 36.2202 12.9046 36.2079 13.2858C36.229 13.6327 36.1607 13.9793 36.0095 14.2916C35.8584 14.6038 35.6297 14.871 35.3458 15.0671C34.7558 15.4739 33.8573 15.6773 32.6504 15.6773C32.2648 15.6743 31.8802 15.6373 31.5009 15.5669C31.0844 15.4918 30.6735 15.3879 30.271 15.256C29.8745 15.1251 29.4899 14.9598 29.1215 14.762C28.775 14.5846 28.4524 14.3629 28.1617 14.1023V17.0925C28.4595 17.2717 28.7793 17.4105 29.1129 17.5051C29.5255 17.6322 29.9447 17.736 30.3687 17.8161C30.8112 17.9032 31.2308 17.9672 31.6647 18.0137C32.0986 18.0602 32.4435 18.0805 32.7337 18.0805C33.5641 18.0836 34.3925 17.9978 35.205 17.8248C35.9379 17.6737 36.6384 17.3923 37.2741 16.9937C37.8662 16.6242 38.3596 16.1133 38.7109 15.5059C39.0836 14.8188 39.2663 14.0428 39.2396 13.2596C39.25 12.6536 39.1293 12.0526 38.8862 11.4986C38.6486 10.978 38.3261 10.5016 37.9321 10.0893Z" fill="white"/>
<path d="M51.3696 10.0893C50.9444 9.64896 50.4711 9.259 49.9587 8.92692C49.4203 8.57821 48.8504 8.245 48.2488 7.92729C47.6626 7.66576 47.1463 7.4236 46.6999 7.20081C46.3019 7.00625 45.922 6.77575 45.5649 6.51212C45.2803 6.30244 45.0407 6.0365 44.8608 5.73043C44.6938 5.42069 44.6105 5.07187 44.6194 4.71918C44.6082 4.33984 44.718 3.96692 44.9327 3.65562C45.1481 3.35863 45.4258 3.11352 45.7459 2.93786C46.1002 2.74208 46.4835 2.60567 46.881 2.53394C47.3006 2.45289 47.7268 2.41203 48.154 2.41189C49.6981 2.41189 50.9606 2.77029 51.9415 3.48708V0.621862C51.1139 0.207287 49.7968 0 47.9902 0C47.2017 8.78865e-05 46.4162 0.0976753 45.6511 0.29059C44.9252 0.461953 44.2333 0.756734 43.605 1.16236C43.0219 1.54811 42.5311 2.06032 42.1682 2.6618C41.7917 3.31012 41.6016 4.05182 41.6193 4.80345C41.6054 5.40095 41.715 5.99481 41.9412 6.54699C42.153 7.04209 42.4508 7.49482 42.8205 7.8837C43.2159 8.29719 43.6598 8.66022 44.1424 8.96469C44.6482 9.29015 45.1951 9.61077 45.7833 9.92655C46.3293 10.1784 46.8417 10.4205 47.3207 10.653C47.7555 10.86 48.1726 11.103 48.5678 11.3795C48.886 11.6016 49.1608 11.8815 49.3782 12.2048C49.5778 12.5283 49.6778 12.9046 49.6656 13.2858C49.6818 13.6333 49.6085 13.9791 49.4529 14.2893C49.2972 14.5995 49.0645 14.8635 48.7776 15.0555C48.1952 15.4797 47.2996 15.6918 46.0907 15.6918C45.7099 15.688 45.3302 15.651 44.9556 15.5814C44.5391 15.5063 44.1282 15.4024 43.7257 15.2705C43.3292 15.1396 42.9446 14.9743 42.5763 14.7765C42.2343 14.5974 41.9157 14.3758 41.628 14.1168V17.0925C41.927 17.2711 42.2477 17.4098 42.582 17.5051C42.9946 17.6322 43.4138 17.736 43.8378 17.8161C44.2803 17.9032 44.6999 17.9672 45.1338 18.0137C45.5677 18.0602 45.9126 18.0805 46.2028 18.0805C47.0332 18.0836 47.8616 17.9978 48.6741 17.8248C49.407 17.6737 50.1075 17.3923 50.7432 16.9937C51.3353 16.6242 51.8287 16.1133 52.18 15.5059C52.5527 14.8188 52.7354 14.0428 52.7087 13.2596C52.7191 12.6536 52.5984 12.0526 52.3553 11.4986C52.1082 10.9757 51.7749 10.4991 51.3696 10.0893Z" fill="white"/>
<path d="M73.8697 0.311035V0.601625L67.6799 7.07015L64.5706 0.354624L64.5879 0.311035H61.1625L61.1826 0.354624L53.1191 17.7668H56.5043L56.5991 17.5633L67.8696 14.794L69.2547 17.7668H72.6427L70.1714 12.4344L73.8525 3.4465L73.7835 17.7668H77.1687L77.2549 0.311035H73.8697ZM71.4588 4.41126L68.5592 8.97351L68.0822 7.94192L71.4588 4.41126ZM62.8752 4.01024L65.312 9.27282L57.7285 15.1253L62.8752 4.01024ZM65.6971 10.1126L66.2948 11.4028L59.148 15.1805L65.6971 10.1126ZM59.7314 15.8692L66.6684 12.2049L67.4788 13.9484L59.7314 15.8692ZM69.6541 11.3331L69.0047 9.93537L72.453 4.50715L69.6541 11.3331Z" fill="white"/>
<path d="M42.4466 28.6201H41.8115V24.8628H42.4466V28.6201Z" fill="white"/>
<path d="M45.5467 28.6204H44.9461V27.1093C44.9461 26.6066 44.7708 26.3567 44.4202 26.3567C44.3344 26.3553 44.2492 26.3733 44.1712 26.4095C44.0931 26.4457 44.024 26.4992 43.9691 26.5659C43.8459 26.7111 43.7813 26.8978 43.788 27.089V28.6204H43.1846V25.9382H43.788V26.3829C43.8708 26.2254 43.9953 26.0944 44.1476 26.0046C44.2999 25.9148 44.4739 25.8697 44.6501 25.8743C44.7751 25.8672 44.8999 25.8898 45.0147 25.9403C45.1295 25.9907 45.231 26.0677 45.3111 26.1649C45.4781 26.4044 45.5583 26.6949 45.5381 26.9873L45.5467 28.6204Z" fill="white"/>
<path d="M46.0098 28.5355V27.9717C46.2207 28.1406 46.4822 28.2318 46.7512 28.2304C47.1161 28.2304 47.2972 28.1229 47.2972 27.9078C47.2982 27.8515 47.281 27.7964 47.2483 27.7509C47.2157 27.7046 47.1735 27.6659 47.1247 27.6376C47.0659 27.6007 47.0033 27.5705 46.938 27.5475L46.6994 27.4603C46.6014 27.4187 46.5055 27.3721 46.4121 27.3208C46.3314 27.2759 46.2578 27.2191 46.1937 27.1523C46.1368 27.0923 46.0928 27.0211 46.0644 26.9431C46.0324 26.8497 46.0177 26.7512 46.0213 26.6525C46.0186 26.5329 46.0495 26.415 46.1103 26.3125C46.1719 26.2115 46.2554 26.126 46.3546 26.0626C46.4618 25.9938 46.5792 25.9428 46.7023 25.9115C46.8326 25.8764 46.9669 25.8588 47.1018 25.8592C47.3262 25.8552 47.5493 25.8937 47.7598 25.9725V26.5043C47.5715 26.3733 47.3475 26.3053 47.119 26.3096C47.0494 26.3091 46.9799 26.317 46.9121 26.3328C46.8573 26.3469 46.8049 26.3694 46.7569 26.3997C46.7157 26.4258 46.6805 26.4605 46.6535 26.5014C46.6304 26.5399 46.6184 26.5842 46.619 26.6292C46.6172 26.6808 46.6291 26.732 46.6535 26.7774C46.681 26.8207 46.7185 26.8566 46.7627 26.882C46.816 26.9163 46.8728 26.9446 46.9322 26.9663L47.1621 27.0477C47.277 27.0971 47.3776 27.1436 47.4696 27.193C47.5534 27.2386 47.6316 27.2942 47.7023 27.3586C47.7645 27.42 47.8143 27.493 47.8489 27.5736C47.8855 27.6659 47.9031 27.7648 47.9006 27.8642C47.9031 27.9887 47.8712 28.1115 47.8087 28.2187C47.745 28.3208 47.6596 28.4072 47.5587 28.4716C47.4481 28.5412 47.3266 28.5913 47.1995 28.6198C47.059 28.6518 46.9153 28.6674 46.7713 28.6663C46.5111 28.6793 46.2511 28.6347 46.0098 28.5355Z" fill="white"/>
<path d="M49.7544 28.5909C49.6085 28.6546 49.4504 28.6844 49.2917 28.6781C48.7773 28.6781 48.5187 28.4311 48.5187 27.9313V26.4144H48.0762V25.9378H48.5187V25.316L49.1193 25.1445V25.9378H49.7544V26.4144H49.1193V27.754C49.1082 27.874 49.1387 27.9942 49.2055 28.094C49.2425 28.1322 49.2876 28.1615 49.3373 28.1796C49.3871 28.1977 49.4403 28.2042 49.4929 28.1986C49.5886 28.2 49.6819 28.1682 49.7573 28.1085L49.7544 28.5909Z" fill="white"/>
<path d="M50.4696 25.3742C50.3763 25.3762 50.2858 25.3418 50.2167 25.2784C50.1827 25.2471 50.1557 25.209 50.1373 25.1664C50.119 25.1238 50.1098 25.0778 50.1104 25.0314C50.11 24.9845 50.1192 24.9381 50.1375 24.8951C50.1558 24.852 50.1828 24.8133 50.2167 24.7814C50.2853 24.7169 50.3759 24.6815 50.4696 24.6826C50.565 24.6815 50.6574 24.7168 50.7282 24.7814C50.7627 24.8129 50.7901 24.8515 50.8084 24.8946C50.8268 24.9378 50.8357 24.9844 50.8345 25.0314C50.835 25.0769 50.8258 25.1221 50.8074 25.1637C50.7891 25.2053 50.762 25.2424 50.7282 25.2725C50.694 25.3061 50.6535 25.3324 50.6091 25.3499C50.5647 25.3674 50.5172 25.3756 50.4696 25.3742ZM50.7569 28.6201H50.1535V25.938H50.7569V28.6201Z" fill="white"/>
<path d="M52.8442 28.5909C52.6986 28.6551 52.5403 28.685 52.3816 28.6781C51.8672 28.6781 51.6086 28.4311 51.6086 27.9313V26.4144H51.166V25.9378H51.6086V25.316L52.212 25.1445V25.9378H52.8442V26.4144H52.212V27.754C52.2001 27.8737 52.2295 27.9938 52.2954 28.094C52.3323 28.1322 52.3774 28.1615 52.4272 28.1796C52.4769 28.1977 52.5301 28.2042 52.5827 28.1986C52.6785 28.2005 52.7719 28.1686 52.8471 28.1085L52.8442 28.5909Z" fill="white"/>
<path d="M55.5703 28.6201H54.9668V28.1872C54.8926 28.3393 54.7762 28.4662 54.6317 28.5524C54.4873 28.6386 54.3211 28.6803 54.1536 28.6724C53.5271 28.6724 53.2139 28.2918 53.2139 27.5304V25.938H53.8145V27.4781C53.8145 27.9605 53.9984 28.2017 54.3662 28.2017C54.4497 28.2037 54.5325 28.1867 54.6086 28.152C54.6847 28.1173 54.7521 28.0658 54.8059 28.0012C54.9245 27.8552 54.9849 27.6697 54.9754 27.481V25.938H55.5789L55.5703 28.6201Z" fill="white"/>
<path d="M57.645 28.5909C57.4982 28.6548 57.3391 28.6846 57.1794 28.6781C56.665 28.6781 56.4093 28.4311 56.4093 27.9313V26.4144H55.9639V25.9378H56.4093V25.316L57.0099 25.1445V25.9378H57.645V26.4144H57.0099V27.754C56.9993 27.8736 57.0287 27.9933 57.0932 28.094C57.1303 28.1321 57.1754 28.1612 57.2251 28.1793C57.2749 28.1974 57.328 28.204 57.3806 28.1986C57.4762 28.1995 57.5694 28.1678 57.645 28.1085V28.5909Z" fill="white"/>
<path d="M60.2697 27.4433H58.4621C58.4589 27.5507 58.4774 27.6576 58.5164 27.7575C58.5555 27.8574 58.6142 27.9483 58.6891 28.0244C58.8547 28.166 59.0676 28.2377 59.284 28.225C59.5638 28.2254 59.8366 28.1359 60.0628 27.9692V28.4574C59.7716 28.6237 59.4398 28.7032 59.1058 28.687C58.9358 28.6965 58.7657 28.669 58.607 28.6064C58.4484 28.5437 58.3049 28.4473 58.1863 28.3238C57.9493 28.0366 57.8309 27.6682 57.8558 27.2951C57.8396 26.9197 57.9708 26.5531 58.2207 26.2751C58.3342 26.144 58.4744 26.0393 58.6316 25.968C58.7888 25.8968 58.9594 25.8608 59.1317 25.8625C59.2894 25.8536 59.447 25.8809 59.5928 25.9423C59.7386 26.0037 59.8688 26.0976 59.9737 26.217C60.1828 26.499 60.2848 26.8475 60.261 27.1992L60.2697 27.4433ZM59.6949 27.0132C59.7031 26.8306 59.6483 26.6508 59.5397 26.5047C59.4897 26.4436 59.4262 26.3953 59.3543 26.3635C59.2825 26.3317 59.2043 26.3174 59.1259 26.3216C59.0433 26.3197 58.9613 26.3359 58.8854 26.369C58.8095 26.4021 58.7416 26.4513 58.6863 26.5134C58.5627 26.6525 58.4853 26.8273 58.465 27.0132H59.6949Z" fill="white"/>
<path d="M62.5241 27.0015C62.6142 27.0005 62.7032 27.0225 62.7827 27.0654C62.8599 27.1039 62.9233 27.1659 62.9638 27.2427C63.0042 27.3196 63.025 27.4055 63.0241 27.4926C63.0237 27.6967 62.9702 27.8972 62.8689 28.0738C62.7709 28.2553 62.6284 28.4084 62.4551 28.5184C62.3033 28.6231 62.1245 28.6807 61.9407 28.684C61.8739 28.6875 61.807 28.6766 61.7446 28.652C61.6822 28.6275 61.6256 28.5899 61.5787 28.5416C61.4929 28.4476 61.4466 28.3237 61.4493 28.1958C61.4483 28.0386 61.4806 27.8831 61.5442 27.7396C61.6064 27.6046 61.6888 27.4802 61.7884 27.3705C61.8858 27.2659 62.0006 27.1794 62.1275 27.1148C62.2487 27.0452 62.3848 27.0063 62.5241 27.0015ZM62.4551 27.0945C62.3997 27.0925 62.3456 27.1111 62.3028 27.1468C62.1783 27.2978 62.0855 27.4728 62.0298 27.6611C61.9366 27.8932 61.885 28.1402 61.8775 28.3905C61.8759 28.4398 61.8934 28.4878 61.9264 28.5242C61.9406 28.5408 61.9583 28.5542 61.9781 28.5632C61.998 28.5722 62.0195 28.5768 62.0413 28.5765C62.0845 28.5766 62.1262 28.5612 62.1591 28.5329C62.2393 28.4491 62.3027 28.3504 62.3459 28.2423C62.4238 28.0888 62.4845 27.927 62.527 27.7599C62.5713 27.6019 62.5954 27.4388 62.5988 27.2747C62.6023 27.2243 62.5869 27.1745 62.5557 27.1352C62.543 27.1213 62.5273 27.1104 62.5099 27.1034C62.4925 27.0963 62.4738 27.0933 62.4551 27.0945Z" fill="white"/>
<path d="M63.9875 27.2544L63.795 28.0594C63.7319 28.3459 63.6355 28.6239 63.5076 28.8875C63.4353 29.0383 63.3278 29.1689 63.1944 29.2682C63.0718 29.3501 62.9275 29.3926 62.7806 29.3903C62.7047 29.3969 62.6287 29.3774 62.5651 29.335C62.5443 29.3196 62.5272 29.2995 62.5153 29.2763C62.5033 29.2531 62.4968 29.2275 62.4961 29.2014C62.4957 29.1778 62.5004 29.1544 62.5098 29.1328C62.5193 29.1112 62.5332 29.092 62.5507 29.0764C62.5932 29.0403 62.6476 29.0216 62.703 29.0241C62.7243 29.0226 62.7457 29.0255 62.766 29.0325C62.7862 29.0395 62.8049 29.0504 62.8208 29.0648C62.8349 29.0775 62.8461 29.0932 62.8536 29.1108C62.861 29.1284 62.8645 29.1474 62.8639 29.1665C62.8652 29.1811 62.8636 29.1958 62.8591 29.2098C62.8547 29.2238 62.8475 29.2367 62.8381 29.2479C62.8208 29.2682 62.8122 29.2798 62.8122 29.2856C62.8196 29.2886 62.8278 29.2886 62.8352 29.2856C62.8682 29.2859 62.9001 29.2735 62.9243 29.2508C62.9854 29.1977 63.0319 29.1297 63.0594 29.0532C63.0795 29.0009 63.1197 28.8585 63.18 28.6289L63.5306 27.2341H63.2921L63.3467 27.0307C63.4118 27.035 63.477 27.023 63.5364 26.9958C63.5904 26.9553 63.633 26.9012 63.6599 26.8389C63.7553 26.6415 63.8927 26.4678 64.0623 26.3303C64.1979 26.2293 64.3622 26.1753 64.5307 26.1763C64.6163 26.1699 64.7016 26.1935 64.772 26.2432C64.8149 26.2818 64.8415 26.3356 64.8463 26.3934C64.8511 26.4513 64.8338 26.5088 64.7979 26.5541C64.7816 26.5712 64.7619 26.5847 64.7401 26.5937C64.7184 26.6027 64.695 26.607 64.6715 26.6064C64.6508 26.6072 64.6303 26.6037 64.611 26.5963C64.5917 26.5888 64.5742 26.5774 64.5594 26.5628C64.5446 26.5499 64.5327 26.5338 64.5248 26.5157C64.5168 26.4977 64.5129 26.478 64.5134 26.4582C64.5144 26.4251 64.5243 26.393 64.5422 26.3652C64.5568 26.3455 64.5666 26.3226 64.5709 26.2984C64.573 26.2938 64.574 26.2889 64.574 26.2839C64.574 26.2788 64.573 26.2739 64.5709 26.2693C64.5607 26.2655 64.5495 26.2655 64.5393 26.2693C64.4972 26.2737 64.4565 26.2874 64.4202 26.3095C64.384 26.3316 64.353 26.3616 64.3295 26.3972C64.1856 26.5879 64.0872 26.8097 64.0421 27.0452H64.295L64.2318 27.2486L63.9875 27.2544Z" fill="white"/>
<path d="M65.2685 28.4776V27.8383C65.3299 27.8939 65.3985 27.9409 65.4725 27.9777C65.5522 28.0217 65.6359 28.0578 65.7225 28.0853C65.8091 28.1133 65.8974 28.1357 65.9869 28.1521C66.0666 28.1664 66.1473 28.1741 66.2283 28.1753C66.4283 28.1883 66.6278 28.1429 66.803 28.0446C66.8644 28.0031 66.9141 27.9462 66.9474 27.8795C66.9806 27.8128 66.9962 27.7385 66.9927 27.6639C66.9951 27.5818 66.9731 27.5008 66.9294 27.4314C66.882 27.3612 66.8215 27.301 66.7513 27.2542C66.6673 27.1935 66.5778 27.1409 66.484 27.0973L66.1536 26.9403C66.0271 26.8735 65.9093 26.8038 65.8001 26.734C65.6952 26.6688 65.5986 26.5908 65.5127 26.5015C65.4329 26.4169 65.3687 26.3185 65.3231 26.211C65.275 26.0921 65.2515 25.9645 65.2541 25.8361C65.2507 25.675 65.2914 25.5161 65.3719 25.377C65.4492 25.2465 65.5555 25.1361 65.6823 25.0544C65.8174 24.9671 65.966 24.9032 66.122 24.8655C66.2865 24.8247 66.4554 24.8042 66.6248 24.8045C66.9184 24.7842 67.2128 24.8298 67.4869 24.9382V25.5513C67.2466 25.39 66.9619 25.3096 66.6737 25.3218C66.5821 25.3219 66.4907 25.3307 66.4007 25.3479C66.3161 25.3637 66.2346 25.3931 66.1593 25.4351C66.0898 25.4719 66.0298 25.5246 65.984 25.5891C65.937 25.656 65.9128 25.7366 65.915 25.8187C65.9133 25.8937 65.9311 25.9679 65.9668 26.0337C66.0055 26.0999 66.0574 26.1573 66.1191 26.2022C66.1966 26.258 66.2782 26.3076 66.3633 26.3504L66.6967 26.5074C66.826 26.5742 66.9467 26.6468 67.0616 26.7195C67.1715 26.7918 67.2736 26.8755 67.3662 26.9694C67.4501 27.0545 67.5199 27.1526 67.5731 27.26C67.624 27.3792 67.6495 27.5079 67.6479 27.6378C67.6533 27.8092 67.6126 27.979 67.53 28.1289C67.4545 28.2589 67.349 28.3686 67.2226 28.4485C67.0858 28.5342 66.935 28.5943 66.7771 28.6258C66.6034 28.6637 66.4261 28.6822 66.2484 28.681C66.1718 28.686 66.095 28.686 66.0185 28.681C65.9265 28.681 65.8346 28.6577 65.7311 28.6403C65.6399 28.6231 65.5497 28.6008 65.461 28.5735C65.3929 28.5504 65.3281 28.5181 65.2685 28.4776Z" fill="white"/>
<path d="M72.1284 28.6205H71.5278V27.1675C71.5427 26.9571 71.502 26.7465 71.41 26.5573C71.3658 26.493 71.3056 26.4417 71.2354 26.4085C71.1653 26.3754 71.0877 26.3615 71.0106 26.3684C70.9295 26.3705 70.8502 26.3934 70.7803 26.4351C70.7104 26.4768 70.6522 26.5359 70.6112 26.6067C70.497 26.7779 70.4396 26.9815 70.4474 27.1878V28.6408H69.8295V27.1297C69.8295 26.6299 69.6542 26.38 69.3065 26.38C69.2266 26.38 69.1481 26.4006 69.0782 26.4397C69.0083 26.4788 68.9495 26.5353 68.9071 26.6038C68.7956 26.776 68.7404 26.9793 68.749 27.1849V28.6379H68.1484V25.9383H68.749V26.3626C68.8291 26.2054 68.9521 26.0748 69.1034 25.9862C69.2546 25.8976 69.4279 25.8548 69.6025 25.8628C69.7748 25.8598 69.9433 25.9139 70.0824 26.0168C70.2194 26.1146 70.3205 26.2557 70.3698 26.4178C70.4466 26.2496 70.57 26.1077 70.7251 26.0091C70.8802 25.9106 71.0602 25.8598 71.2434 25.8628C71.8181 25.8628 72.1102 26.227 72.1198 26.9554L72.1284 28.6205Z" fill="white"/>
<path d="M74.7805 28.62H74.2058V28.2016C74.1297 28.3499 74.0139 28.4735 73.8716 28.5583C73.7293 28.6431 73.5662 28.6856 73.4011 28.6811C73.1776 28.6934 72.9581 28.6173 72.789 28.4689C72.7131 28.3937 72.6541 28.3029 72.6159 28.2027C72.5777 28.1024 72.5613 27.995 72.5678 27.8878C72.5678 27.3821 72.8551 27.0867 73.4299 27.0015L74.2172 26.8881C74.2172 26.5074 74.0362 26.3069 73.677 26.3069C73.3588 26.3045 73.0512 26.4227 72.8149 26.6382V26.1268C73.1086 25.9541 73.4437 25.8666 73.7833 25.874C74.4538 25.874 74.7881 26.2081 74.7862 26.8765L74.7805 28.62ZM74.2058 27.3008L73.6483 27.3792C73.5101 27.3914 73.3765 27.4351 73.2574 27.5071C73.2111 27.5464 73.175 27.5967 73.1525 27.6534C73.1299 27.7102 73.1216 27.7717 73.1281 27.8325C73.125 27.8871 73.1342 27.9416 73.1551 27.992C73.176 28.0424 73.2081 28.0872 73.2488 28.1231C73.3385 28.1996 73.4535 28.2391 73.5707 28.2336C73.6556 28.2351 73.7399 28.2185 73.8182 28.185C73.8964 28.1515 73.9667 28.1017 74.0247 28.0389C74.1464 27.9055 74.2115 27.7291 74.2058 27.5478V27.3008Z" fill="white"/>
<path d="M76.9476 26.516C76.8557 26.4523 76.7454 26.4216 76.6343 26.4289C76.5459 26.4291 76.4589 26.4516 76.3812 26.4942C76.3035 26.5368 76.2374 26.5982 76.1889 26.673C76.0599 26.8684 75.9974 27.101 76.0107 27.3355V28.6199H75.4102V25.9378H76.0107V26.4899C76.0585 26.3202 76.152 26.1672 76.2809 26.0482C76.3936 25.9477 76.5386 25.8919 76.6889 25.8913C76.7751 25.8854 76.8613 25.9024 76.9389 25.9407L76.9476 26.516Z" fill="white"/>
<path d="M78.8188 28.5909C78.6721 28.6548 78.513 28.6846 78.3533 28.6781C77.8389 28.6781 77.5832 28.4311 77.5832 27.9313V26.4144H77.1406V25.9378H77.5889V25.316L78.1895 25.1445V25.9378H78.8246V26.4144H78.1895V27.754C78.1784 27.874 78.2089 27.9942 78.2757 28.094C78.3126 28.1324 78.3576 28.1618 78.4074 28.1799C78.4572 28.1981 78.5105 28.2045 78.5631 28.1986C78.6587 28.1995 78.7519 28.1678 78.8275 28.1085L78.8188 28.5909Z" fill="white"/>
<path d="M80.4788 28.4773V27.838C80.5392 27.8937 80.6069 27.9406 80.68 27.9775C80.7601 28.0205 80.8438 28.0565 80.93 28.085C81.0168 28.1124 81.105 28.1347 81.1943 28.1519C81.275 28.1662 81.3567 28.1739 81.4386 28.1751C81.6387 28.1888 81.8383 28.1434 82.0133 28.0444C82.0751 28.003 82.1252 27.9462 82.1589 27.8795C82.1927 27.8129 82.2088 27.7385 82.2059 27.6637C82.2073 27.5813 82.1843 27.5003 82.1398 27.4312C82.0934 27.3611 82.0339 27.3008 81.9645 27.254C81.8791 27.1939 81.7887 27.1414 81.6944 27.097L81.3668 26.9401C81.2403 26.8733 81.1225 26.8035 81.0133 26.7338C80.9081 26.6691 80.8115 26.591 80.7259 26.5013C80.646 26.4173 80.5826 26.3187 80.5392 26.2107C80.491 26.0919 80.4676 25.9643 80.4702 25.8359C80.4649 25.6745 80.5058 25.5151 80.588 25.3767C80.6653 25.2463 80.7715 25.1359 80.8984 25.0542C81.0332 24.9664 81.1819 24.9025 81.338 24.8653C81.5017 24.8247 81.6696 24.8042 81.838 24.8043C82.1316 24.7846 82.4259 24.8302 82.7001 24.938V25.5511C82.4596 25.3901 82.1751 25.3098 81.8869 25.3215C81.7953 25.3214 81.7039 25.3302 81.6139 25.3477C81.5283 25.363 81.4458 25.3925 81.3696 25.4349C81.3006 25.4724 81.2408 25.525 81.1943 25.5889C81.1494 25.6567 81.1263 25.7369 81.1283 25.8184C81.1265 25.8935 81.1444 25.9676 81.18 26.0335C81.2187 26.0997 81.2706 26.1571 81.3323 26.202C81.4087 26.2578 81.4894 26.3074 81.5737 26.3502L81.907 26.5071C82.0363 26.574 82.1599 26.6466 82.2748 26.7193C82.3794 26.7916 82.4758 26.8754 82.5622 26.9692C82.6478 27.0528 82.7178 27.1512 82.7691 27.2598C82.8225 27.3782 82.8491 27.5073 82.8467 27.6375C82.8527 27.8059 82.813 27.9728 82.7317 28.1199C82.6571 28.2506 82.5514 28.3605 82.4243 28.4396C82.2886 28.5252 82.1386 28.5853 81.9817 28.6168C81.8071 28.6549 81.6288 28.6734 81.4501 28.672C81.3736 28.6769 81.2968 28.6769 81.2202 28.672C81.1311 28.672 81.0392 28.6488 80.9329 28.6313C80.8425 28.6146 80.7533 28.5922 80.6656 28.5645C80.5997 28.5442 80.5369 28.5148 80.4788 28.4773Z" fill="white"/>
<path d="M85.5338 25.938L84.3384 29.0589C84.0884 29.6139 83.7407 29.89 83.2895 29.89C83.1831 29.892 83.0769 29.8803 82.9734 29.8551V29.3495C83.0575 29.3796 83.1457 29.3962 83.2349 29.3989C83.3421 29.4003 83.4473 29.3688 83.5365 29.3087C83.6258 29.2485 83.6949 29.1625 83.7349 29.0618L83.916 28.623L82.8613 25.9467H83.5251L84.1573 27.8937C84.1573 27.9198 84.1803 27.9837 84.2062 28.0884C84.2062 28.0477 84.2292 27.9866 84.2522 27.8995L84.916 25.9467L85.5338 25.938Z" fill="white"/>
<path d="M85.6602 28.5359V27.9722C85.8719 28.1415 86.1345 28.2327 86.4044 28.2308C86.7665 28.2308 86.9476 28.1233 86.9476 27.9082C86.9494 27.8523 86.9333 27.7972 86.9016 27.7513C86.8671 27.7056 86.8242 27.6671 86.7751 27.638C86.7167 27.6005 86.654 27.5702 86.5883 27.5479L86.3498 27.4607C86.2515 27.4198 86.1556 27.3732 86.0625 27.3212C85.9809 27.2778 85.9071 27.2208 85.8441 27.1527C85.7873 27.0921 85.7424 27.0211 85.7119 26.9435C85.6799 26.8501 85.6653 26.7516 85.6688 26.6529C85.667 26.533 85.6989 26.4152 85.7607 26.3129C85.822 26.2126 85.9044 26.1273 86.0021 26.063C86.1096 25.9947 86.2269 25.9437 86.3498 25.9119C86.4811 25.8768 86.6164 25.8592 86.7521 25.8596C86.9765 25.8562 87.1996 25.8946 87.4102 25.9729V26.5047C87.2209 26.3737 86.9959 26.3057 86.7665 26.31C86.6978 26.3097 86.6294 26.3175 86.5625 26.3332C86.5066 26.3468 86.4532 26.3694 86.4044 26.4001C86.3634 26.4255 86.329 26.4603 86.3039 26.5018C86.2787 26.5395 86.2656 26.5842 86.2665 26.6296C86.2644 26.6817 86.2774 26.7332 86.3039 26.7778C86.3303 26.821 86.3668 26.8569 86.4102 26.8825C86.4648 26.9163 86.5225 26.9445 86.5826 26.9667L86.8096 27.0481C86.9246 27.0975 87.028 27.144 87.1171 27.1934C87.2018 27.2376 87.2801 27.2933 87.3499 27.359C87.4121 27.4204 87.4618 27.4934 87.4964 27.5741C87.533 27.6664 87.5506 27.7652 87.5481 27.8647C87.552 27.9893 87.5201 28.1125 87.4562 28.2192C87.3926 28.3213 87.3071 28.4077 87.2062 28.472C87.0965 28.5413 86.976 28.5914 86.8499 28.6202C86.7084 28.6522 86.5638 28.6678 86.4188 28.6667C86.1595 28.6793 85.9006 28.6347 85.6602 28.5359Z" fill="white"/>
<path d="M89.4048 28.5909C89.2591 28.6551 89.1009 28.685 88.9421 28.6781C88.4277 28.6781 88.1691 28.4311 88.1691 27.9313V26.4144H87.7266V25.9378H88.1691V25.316L88.7726 25.1445V25.9378H89.4048V26.4144H88.7726V27.754C88.7606 27.8737 88.7901 27.9938 88.8559 28.094C88.8929 28.1322 88.938 28.1615 88.9877 28.1796C89.0375 28.1977 89.0907 28.2042 89.1433 28.1986C89.239 28.2005 89.3325 28.1686 89.4076 28.1085L89.4048 28.5909Z" fill="white"/>
<path d="M92.0313 27.4433H90.2324C90.2292 27.5507 90.2476 27.6576 90.2867 27.7575C90.3257 27.8574 90.3845 27.9483 90.4594 28.0244C90.6249 28.166 90.8379 28.2377 91.0542 28.225C91.3341 28.2254 91.6068 28.1359 91.833 27.9692V28.4574C91.5418 28.6237 91.2101 28.7032 90.8761 28.687C90.706 28.6969 90.5358 28.6696 90.3771 28.6069C90.2184 28.5442 90.0749 28.4476 89.9565 28.3238C89.7185 28.0371 89.5991 27.6686 89.6232 27.2951C89.6081 26.9193 89.7403 26.5528 89.991 26.2751C90.1035 26.1451 90.2423 26.041 90.3979 25.9698C90.5536 25.8987 90.7225 25.8621 90.8933 25.8625C91.051 25.8536 91.2086 25.8809 91.3544 25.9423C91.5002 26.0037 91.6304 26.0976 91.7353 26.217C91.9444 26.499 92.0464 26.8475 92.0227 27.1992L92.0313 27.4433ZM91.4565 27.0132C91.4671 26.8308 91.4131 26.6505 91.3042 26.5047C91.2539 26.444 91.1903 26.3959 91.1185 26.3641C91.0468 26.3324 90.9687 26.3178 90.8904 26.3216C90.8078 26.3197 90.7258 26.3359 90.6499 26.369C90.574 26.4021 90.5061 26.4513 90.4508 26.5134C90.326 26.656 90.2495 26.8352 90.2324 27.0248L91.4565 27.0132Z" fill="white"/>
<path d="M96.4628 28.6203H95.8622V27.1674C95.8784 26.9569 95.8377 26.7459 95.7443 26.5571C95.701 26.4927 95.6413 26.4411 95.5716 26.4079C95.5018 26.3747 95.4245 26.361 95.3478 26.3682C95.2666 26.37 95.1872 26.3929 95.1173 26.4346C95.0473 26.4764 94.9892 26.5355 94.9483 26.6065C94.8342 26.7778 94.7768 26.9813 94.7845 27.1877V28.6406H94.1811V27.1296C94.1811 26.6298 94.0058 26.3799 93.6552 26.3799C93.5754 26.3804 93.4971 26.4012 93.4273 26.4403C93.3575 26.4794 93.2985 26.5355 93.2558 26.6036C93.1466 26.7768 93.0924 26.9796 93.1006 27.1848V28.6377H92.5V25.9382H93.1063V26.3624C93.1859 26.208 93.3067 26.0793 93.4551 25.991C93.6034 25.9026 93.7733 25.8581 93.9454 25.8626C94.1186 25.8597 94.2881 25.9137 94.4282 26.0166C94.5655 26.1142 94.6667 26.2553 94.7156 26.4176C94.793 26.25 94.9165 26.1084 95.0715 26.0099C95.2264 25.9115 95.4062 25.8603 95.5892 25.8626C96.1639 25.8626 96.4513 26.2268 96.4513 26.9552L96.4628 28.6203Z" fill="white"/>
<path d="M96.9248 28.5359V27.9722C97.1366 28.1415 97.3991 28.2327 97.6691 28.2308C98.0312 28.2308 98.2122 28.1233 98.2122 27.9082C98.2121 27.8526 98.1961 27.7981 98.1662 27.7513C98.1318 27.7056 98.0888 27.6671 98.0398 27.638C97.9813 27.6005 97.9186 27.5702 97.853 27.5479L97.6145 27.4607C97.5165 27.4191 97.4205 27.3725 97.3271 27.3212C97.2469 27.277 97.1741 27.2201 97.1116 27.1527C97.0539 27.0928 97.0089 27.0216 96.9794 26.9435C96.9474 26.8501 96.9328 26.7516 96.9363 26.6529C96.9337 26.5333 96.9645 26.4155 97.0254 26.3129C97.0878 26.2125 97.1711 26.1272 97.2696 26.063C97.3771 25.9947 97.4944 25.9437 97.6174 25.9119C97.7486 25.8768 97.8839 25.8592 98.0197 25.8596C98.244 25.8562 98.4671 25.8946 98.6777 25.9729V26.5047C98.4884 26.3737 98.2634 26.3057 98.034 26.31C97.9644 26.3099 97.895 26.3177 97.8271 26.3332C97.7723 26.3473 97.72 26.3698 97.672 26.4001C97.631 26.4255 97.5965 26.4603 97.5714 26.5018C97.5462 26.5395 97.5331 26.5842 97.534 26.6296C97.5319 26.6817 97.5449 26.7332 97.5714 26.7778C97.5978 26.821 97.6343 26.8569 97.6777 26.8825C97.732 26.9168 97.7898 26.9451 97.8501 26.9667L98.0771 27.0481C98.1921 27.0975 98.2955 27.144 98.3846 27.1934C98.4693 27.2376 98.5476 27.2933 98.6174 27.359C98.6796 27.4204 98.7293 27.4934 98.7639 27.5741C98.8005 27.6664 98.8181 27.7652 98.8157 27.8647C98.8181 27.9892 98.7863 28.1119 98.7237 28.2192C98.6601 28.3213 98.5747 28.4077 98.4737 28.472C98.3634 28.5421 98.2418 28.5922 98.1145 28.6202C97.974 28.6524 97.8303 28.668 97.6863 28.6667C97.4261 28.6797 97.1662 28.6351 96.9248 28.5359Z" fill="white"/>
<path d="M43.0507 33.4611L42.7145 34.6235L42.68 34.763C42.6792 34.7765 42.6792 34.7901 42.68 34.8036C42.6803 34.8167 42.6855 34.8291 42.6944 34.8385C42.6981 34.8436 42.7028 34.8477 42.7083 34.8507C42.7138 34.8537 42.7198 34.8555 42.726 34.8559C42.764 34.8476 42.7989 34.8285 42.8266 34.8007C42.8707 34.7489 42.912 34.6945 42.9501 34.638L43.0105 34.67C42.9467 34.7974 42.8577 34.9101 42.749 35.0012C42.6666 35.0661 42.566 35.1027 42.4616 35.1059C42.4341 35.1079 42.4064 35.1043 42.3802 35.0953C42.3541 35.0863 42.33 35.0721 42.3093 35.0535C42.2923 35.0365 42.279 35.0161 42.2701 34.9936C42.2612 34.9711 42.2569 34.947 42.2576 34.9228C42.2665 34.8365 42.2858 34.7516 42.3151 34.67L42.3553 34.5276C42.258 34.7147 42.1275 34.8822 41.9702 35.0216C41.906 35.0745 41.8261 35.1042 41.7432 35.1059C41.6961 35.1091 41.6491 35.0981 41.6082 35.0743C41.5673 35.0505 41.5343 35.015 41.5133 34.9722C41.4647 34.8833 41.4399 34.7831 41.4415 34.6816C41.4474 34.479 41.4984 34.2803 41.5909 34.1004C41.6801 33.9016 41.814 33.7265 41.9817 33.589C42.0837 33.4945 42.2144 33.4381 42.3524 33.4292C42.3806 33.4273 42.4089 33.4312 42.4356 33.4407C42.4623 33.4502 42.4867 33.4651 42.5076 33.4844C42.5566 33.5429 42.5876 33.6146 42.5967 33.6907L42.657 33.4786L43.0507 33.4611ZM42.4961 33.7924C42.5017 33.7218 42.4867 33.6511 42.453 33.589C42.4438 33.5752 42.4314 33.564 42.4168 33.5564C42.4023 33.5488 42.3861 33.545 42.3697 33.5454C42.3272 33.5482 42.2873 33.5669 42.2576 33.5977C42.1486 33.7274 42.0639 33.8761 42.0076 34.0365C41.9269 34.2198 41.882 34.4171 41.8754 34.6177C41.8711 34.6642 41.8812 34.7108 41.9041 34.7513C41.9117 34.7631 41.9219 34.7729 41.9339 34.7799C41.9458 34.787 41.9593 34.7911 41.9731 34.792C42.0039 34.7895 42.0338 34.7801 42.0607 34.7645C42.0875 34.749 42.1106 34.7276 42.1283 34.7019C42.3413 34.4481 42.47 34.133 42.4961 33.8011V33.7924Z" fill="white"/>
<path d="M44.117 33.4385L43.9043 34.1882C44.002 34.0313 44.1095 33.8808 44.2262 33.7378C44.3046 33.6458 44.3955 33.5655 44.4963 33.4995C44.5623 33.462 44.6362 33.441 44.7118 33.4385C44.7405 33.438 44.7689 33.4438 44.7951 33.4553C44.8214 33.4668 44.8449 33.4839 44.8641 33.5053C44.8861 33.5285 44.9032 33.5558 44.9146 33.5858C44.9259 33.6157 44.9312 33.6476 44.9302 33.6797C44.9277 33.7608 44.9131 33.8412 44.8871 33.918L44.6659 34.6648C44.6533 34.7055 44.6446 34.7473 44.64 34.7897C44.636 34.8 44.636 34.8114 44.64 34.8217C44.6445 34.824 44.6494 34.8252 44.6544 34.8252C44.6594 34.8252 44.6643 34.824 44.6687 34.8217C44.6798 34.8262 44.6922 34.8262 44.7032 34.8217C44.7506 34.7801 44.7922 34.7322 44.8268 34.6793C44.8414 34.654 44.8578 34.6297 44.8756 34.6067L44.9417 34.6474C44.7722 34.9379 44.594 35.0774 44.4072 35.0774C44.3468 35.0811 44.2872 35.0614 44.2406 35.0222C44.2212 35.0047 44.2058 34.9832 44.1954 34.9591C44.185 34.9351 44.1798 34.909 44.1802 34.8827C44.1848 34.8085 44.1993 34.7352 44.2233 34.6648L44.4388 33.918C44.4503 33.8832 44.457 33.847 44.459 33.8105C44.4598 33.8039 44.4589 33.7972 44.4564 33.7911C44.4539 33.785 44.4498 33.7796 44.4446 33.7756C44.4325 33.7716 44.4194 33.7716 44.4072 33.7756C44.3454 33.7851 44.2892 33.8171 44.2492 33.8657C44.0586 34.0663 43.9031 34.2982 43.7894 34.5515L43.6457 35.0716H43.2061L43.5308 33.9499C43.5543 33.8733 43.5697 33.7944 43.5768 33.7146C43.5773 33.6961 43.5717 33.678 43.5607 33.6632C43.5497 33.6484 43.5341 33.6378 43.5164 33.6332C43.4784 33.6267 43.4395 33.6267 43.4015 33.6332L43.4187 33.5664L43.9934 33.4647L44.117 33.4385Z" fill="white"/>
<path d="M47.1279 32.6332L46.5532 34.5802C46.5293 34.6522 46.511 34.7261 46.4986 34.801C46.4985 34.8071 46.4997 34.8131 46.5022 34.8186C46.5047 34.8242 46.5084 34.8291 46.513 34.833C46.5175 34.8351 46.5224 34.8361 46.5273 34.8361C46.5323 34.8361 46.5372 34.8351 46.5417 34.833C46.5672 34.8313 46.5915 34.8211 46.6107 34.8039C46.6722 34.751 46.7246 34.6882 46.7658 34.6179L46.8291 34.6528C46.6653 34.9434 46.4871 35.0829 46.2917 35.0829C46.2339 35.0858 46.1773 35.066 46.1336 35.0277C46.1149 35.0092 46.1001 34.9871 46.0902 34.9626C46.0803 34.938 46.0755 34.9117 46.0762 34.8853C46.0803 34.806 46.0958 34.7277 46.1221 34.6528L46.1739 34.4726C46.0794 34.6645 45.9531 34.8385 45.8003 34.987C45.7343 35.0442 45.6515 35.0779 45.5647 35.0829C45.5227 35.0822 45.4814 35.0722 45.4437 35.0536C45.4059 35.035 45.3727 35.0083 45.3463 34.9754C45.2805 34.886 45.2488 34.7755 45.2572 34.6644C45.2579 34.4869 45.2961 34.3115 45.3692 34.1501C45.4363 33.9972 45.5254 33.8552 45.6336 33.7287C45.7145 33.6317 45.8118 33.5501 45.921 33.4875C46.0029 33.4417 46.0946 33.4167 46.1882 33.4149C46.2299 33.414 46.2713 33.4229 46.3089 33.441C46.3538 33.4701 46.3944 33.5053 46.4296 33.5457L46.5532 33.1272C46.5785 33.0521 46.594 32.9739 46.5992 32.8947C46.5993 32.8817 46.5968 32.8689 46.5919 32.8569C46.5869 32.8449 46.5796 32.834 46.5704 32.825C46.5474 32.8048 46.5175 32.7944 46.4871 32.7959H46.4267L46.444 32.7291L47.0187 32.6216L47.1279 32.6332ZM46.3693 33.7404C46.3733 33.6859 46.3591 33.6317 46.329 33.5863C46.3173 33.5714 46.3025 33.5592 46.2856 33.5507C46.2687 33.5422 46.2502 33.5375 46.2313 33.5369C46.1855 33.5411 46.1427 33.5617 46.1106 33.5951C45.9961 33.7261 45.9091 33.8794 45.8549 34.0455C45.7745 34.2289 45.7296 34.4262 45.7227 34.6267C45.7191 34.6703 45.7292 34.714 45.7514 34.7516C45.7584 34.7633 45.768 34.7731 45.7795 34.7802C45.791 34.7873 45.8041 34.7914 45.8175 34.7923C45.8636 34.7892 45.9068 34.7684 45.9382 34.7342C46.064 34.6037 46.1618 34.4484 46.2256 34.2779C46.3052 34.1096 46.3502 33.9268 46.3578 33.7404H46.3693Z" fill="white"/>
<path d="M51.4386 35.0566H50.7633L50.4271 34.1006H48.9673L48.6454 35.0566H47.9902L49.3811 31.2993H50.0736L51.4386 35.0566ZM50.2662 33.6037L49.7489 32.1043C49.7275 32.027 49.7111 31.9483 49.7001 31.8689C49.6906 31.9489 49.6733 32.0277 49.6483 32.1043L49.1397 33.5921L50.2662 33.6037Z" fill="white"/>
<path d="M53.5042 32.9531C53.4126 32.8889 53.3021 32.8582 53.191 32.8659C53.1026 32.8664 53.0157 32.889 52.938 32.9315C52.8603 32.9741 52.7942 33.0354 52.7456 33.11C52.6177 33.3059 52.5552 33.5381 52.5674 33.7725V35.0569H51.9668V32.3748H52.5674V32.9269C52.6149 32.7564 52.7096 32.6031 52.8404 32.4852C52.9526 32.3837 53.0979 32.3278 53.2484 32.3283C53.3337 32.3224 53.419 32.3394 53.4956 32.3777L53.5042 32.9531Z" fill="white"/>
<path d="M55.5561 35.0279C55.4094 35.0918 55.2503 35.1216 55.0906 35.1151C54.5762 35.1151 54.3205 34.8681 54.3205 34.3683V32.8514H53.8779V32.3749H54.3118V31.753L54.9124 31.5815V32.3749H55.5475V32.8514H54.9124V34.191C54.9019 34.3119 54.9323 34.4328 54.9986 34.5339C55.0359 34.5716 55.0811 34.6004 55.1308 34.618C55.1806 34.6356 55.2336 34.6416 55.286 34.6356C55.3816 34.6365 55.4748 34.6048 55.5504 34.5456L55.5561 35.0279Z" fill="white"/>
<path d="M56.4492 31.8107C56.356 31.8124 56.2656 31.7781 56.1964 31.7148C56.1626 31.6836 56.1359 31.6454 56.118 31.6027C56.1002 31.5601 56.0916 31.5141 56.0929 31.4678C56.0919 31.4212 56.1006 31.3749 56.1185 31.3318C56.1363 31.2888 56.1628 31.25 56.1964 31.2179C56.2665 31.154 56.3577 31.1187 56.4521 31.1187C56.5466 31.1187 56.6377 31.154 56.7079 31.2179C56.7424 31.2494 56.7697 31.288 56.7881 31.3311C56.8064 31.3743 56.8153 31.4209 56.8142 31.4678C56.8147 31.5134 56.8054 31.5586 56.7871 31.6002C56.7687 31.6418 56.7417 31.6789 56.7079 31.709C56.674 31.743 56.6335 31.7696 56.589 31.7871C56.5445 31.8046 56.4969 31.8127 56.4492 31.8107ZM56.7366 35.0566H56.136V32.3745H56.7366V35.0566Z" fill="white"/>
<path d="M59.1079 31.5814C59.0201 31.5322 58.921 31.5072 58.8206 31.5088C58.5332 31.5088 58.3838 31.6773 58.3838 32.0115V32.3747H58.9987V32.8513H58.3867V35.0569H57.7861V32.8513H57.332V32.3747H57.7861V31.9388C57.7803 31.814 57.8017 31.6894 57.8489 31.5739C57.8961 31.4584 57.9678 31.3548 58.0591 31.2705C58.2498 31.1052 58.4948 31.0182 58.7459 31.0264C58.8657 31.021 58.9855 31.0377 59.0993 31.0758L59.1079 31.5814Z" fill="white"/>
<path d="M59.8125 31.8108C59.72 31.8129 59.6304 31.7785 59.5625 31.7149C59.5279 31.6842 59.5005 31.6461 59.4821 31.6034C59.4637 31.5607 59.4549 31.5144 59.4562 31.4679C59.455 31.421 59.4639 31.3743 59.4823 31.3312C59.5006 31.288 59.528 31.2494 59.5625 31.218C59.6301 31.1536 59.7197 31.1182 59.8125 31.1192C59.9089 31.1176 60.0023 31.1529 60.074 31.218C60.1076 31.25 60.1341 31.2888 60.1519 31.3319C60.1697 31.3749 60.1784 31.4213 60.1775 31.4679C60.1779 31.5132 60.169 31.5581 60.1511 31.5996C60.1333 31.6412 60.107 31.6785 60.074 31.7091C60.0394 31.7429 59.9984 31.7693 59.9535 31.7868C59.9086 31.8043 59.8606 31.8124 59.8125 31.8108ZM60.0999 35.0567H59.4993V32.3745H60.0999V35.0567Z" fill="white"/>
<path d="M62.8693 34.9314C62.6383 35.0604 62.3773 35.1246 62.1135 35.1173C61.9381 35.1253 61.763 35.0964 61.5993 35.0324C61.4355 34.9684 61.2867 34.8706 61.1623 34.7454C61.0405 34.617 60.9454 34.4652 60.8827 34.299C60.82 34.1328 60.791 33.9555 60.7974 33.7777C60.7886 33.583 60.8187 33.3885 60.8859 33.2058C60.953 33.023 61.0558 32.8559 61.1882 32.7142C61.3249 32.5774 61.4882 32.4709 61.6678 32.4014C61.8474 32.3319 62.0393 32.3008 62.2313 32.3102C62.4515 32.3065 62.6699 32.3501 62.8721 32.4381V33.0193C62.7029 32.8857 62.4949 32.8121 62.2802 32.8101C62.1638 32.8061 62.0479 32.8275 61.9404 32.8726C61.8328 32.9177 61.7361 32.9855 61.6566 33.0716C61.5736 33.163 61.5092 33.2702 61.4673 33.3869C61.4254 33.5036 61.4067 33.6275 61.4123 33.7516C61.3999 33.9935 61.4825 34.2306 61.6422 34.4112C61.7224 34.4926 61.8185 34.5561 61.9244 34.5977C62.0304 34.6392 62.1437 34.6579 62.2572 34.6524C62.4822 34.6489 62.6988 34.5656 62.8693 34.417V34.9314Z" fill="white"/>
<path d="M63.8408 31.8107C63.7476 31.8124 63.6572 31.7781 63.588 31.7148C63.5542 31.6836 63.5275 31.6454 63.5096 31.6027C63.4918 31.5601 63.4832 31.5141 63.4845 31.4678C63.4835 31.4212 63.4922 31.3749 63.5101 31.3318C63.5279 31.2888 63.5544 31.25 63.588 31.2179C63.6581 31.154 63.7493 31.1187 63.8437 31.1187C63.9382 31.1187 64.0293 31.154 64.0995 31.2179C64.134 31.2494 64.1613 31.288 64.1797 31.3311C64.198 31.3743 64.2069 31.4209 64.2058 31.4678C64.2063 31.5134 64.197 31.5586 64.1787 31.6002C64.1603 31.6418 64.1333 31.6789 64.0995 31.709C64.0656 31.743 64.0251 31.7696 63.9806 31.7871C63.9361 31.8046 63.8885 31.8127 63.8408 31.8107ZM64.1282 35.0566H63.5276V32.3745H64.1282V35.0566Z" fill="white"/>
<path d="M67.0331 35.0565H66.4584V34.638C66.3823 34.7863 66.2665 34.9099 66.1242 34.9947C65.9819 35.0795 65.8188 35.1221 65.6537 35.1175C65.4292 35.1306 65.2086 35.0545 65.0388 34.9054C64.9635 34.8298 64.9048 34.7389 64.8667 34.6387C64.8285 34.5386 64.8118 34.4314 64.8175 34.3242C64.8175 33.8186 65.1049 33.5222 65.6796 33.4524L66.467 33.342C66.467 32.9584 66.2888 32.7608 65.9296 32.7608C65.6116 32.7595 65.3044 32.8776 65.0675 33.0921V32.5603C65.3624 32.388 65.6983 32.3005 66.0388 32.3075C66.7093 32.3075 67.0436 32.6417 67.0417 33.3101L67.0331 35.0565ZM66.4584 33.7372L65.9037 33.8157C65.7654 33.8269 65.6316 33.8707 65.5129 33.9435C65.4662 33.9827 65.4298 34.0329 65.4067 34.0896C65.3837 34.1464 65.3748 34.208 65.3807 34.269C65.3775 34.3235 65.3868 34.3781 65.4077 34.4285C65.4286 34.4788 65.4607 34.5237 65.5014 34.5596C65.5921 34.6363 65.708 34.6757 65.8261 34.67C65.9111 34.6715 65.9954 34.655 66.0736 34.6215C66.1518 34.5879 66.2222 34.5381 66.2802 34.4753C66.4001 34.341 66.4639 34.165 66.4584 33.9842V33.7372Z" fill="white"/>
<path d="M68.4453 35.0569H67.8418V31.0933H68.4453V35.0569Z" fill="white"/>
<path d="M71.5335 35.0566H70.8984V31.2993H71.5335V35.0566Z" fill="white"/>
<path d="M74.8153 35.0568H74.2147V33.5458C74.2147 33.0431 74.0394 32.7931 73.6888 32.7931C73.6024 32.7913 73.5168 32.8091 73.4381 32.8453C73.3595 32.8816 73.29 32.9352 73.2348 33.0024C73.1141 33.1488 73.0507 33.3349 73.0566 33.5254V35.0568H72.4531V32.3747H73.0566V32.8193C73.1393 32.6619 73.2638 32.5309 73.4161 32.4411C73.5684 32.3512 73.7424 32.3061 73.9187 32.3108C74.0436 32.3039 74.1684 32.3266 74.2831 32.377C74.3979 32.4275 74.4994 32.5043 74.5796 32.6014C74.7467 32.8409 74.8269 33.1313 74.8066 33.4237L74.8153 35.0568Z" fill="white"/>
<path d="M77.0141 35.0279C76.8683 35.0916 76.7102 35.1214 76.5515 35.1151C76.0371 35.1151 75.7785 34.8681 75.7785 34.3683V32.8514H75.3359V32.3749H75.7785V31.753L76.3791 31.5815V32.3749H77.0141V32.8514H76.3791V34.191C76.3685 34.3119 76.3989 34.4328 76.4653 34.5339C76.5029 34.5711 76.5481 34.5995 76.5978 34.6171C76.6474 34.6347 76.7003 34.641 76.7526 34.6356C76.8483 34.6365 76.9414 34.6048 77.017 34.5456L77.0141 35.0279Z" fill="white"/>
<path d="M79.8299 33.8799H78.0224C78.0181 33.9872 78.0359 34.0942 78.0744 34.1942C78.113 34.2942 78.1716 34.3851 78.2466 34.4611C78.4129 34.6011 78.6253 34.6727 78.8414 34.6616C79.1221 34.6617 79.3956 34.5722 79.623 34.4059V34.8941C79.3307 35.06 78.9981 35.1395 78.6632 35.1237C78.4936 35.1335 78.3238 35.1062 78.1656 35.0435C78.0073 34.9808 77.8644 34.8842 77.7465 34.7604C77.5085 34.4737 77.3891 34.1052 77.4132 33.7317C77.397 33.3564 77.5282 32.9897 77.7781 32.7118C77.8932 32.5838 78.0341 32.4824 78.1912 32.4142C78.3483 32.346 78.5181 32.3127 78.6891 32.3166C78.8468 32.3077 79.0044 32.335 79.1502 32.3964C79.296 32.4578 79.4262 32.5517 79.5311 32.6711C79.7402 32.9531 79.8422 33.3016 79.8184 33.6533L79.8299 33.8799ZM79.2552 33.4499C79.263 33.2678 79.2093 33.0884 79.1029 32.9413C79.0521 32.8804 78.988 32.8322 78.9158 32.8004C78.8435 32.7687 78.7649 32.7543 78.6862 32.7583C78.6041 32.7568 78.5226 32.7732 78.4473 32.8063C78.3719 32.8393 78.3044 32.8884 78.2494 32.95C78.1245 33.0883 78.0469 33.2635 78.0282 33.4499H79.2552Z" fill="white"/>
<path d="M81.08 35.0569H80.4766V31.0933H81.08V35.0569Z" fill="white"/>
<path d="M82.54 35.0569H81.9365V31.0933H82.54V35.0569Z" fill="white"/>
<path d="M83.6973 31.8107C83.604 31.8124 83.5136 31.7781 83.4444 31.7148C83.4106 31.6836 83.3839 31.6454 83.3661 31.6027C83.3482 31.5601 83.3397 31.5141 83.3409 31.4678C83.34 31.4212 83.3487 31.3749 83.3665 31.3318C83.3843 31.2888 83.4109 31.25 83.4444 31.2179C83.5146 31.154 83.6057 31.1187 83.7002 31.1187C83.7946 31.1187 83.8857 31.154 83.9559 31.2179C83.9904 31.2494 84.0178 31.288 84.0361 31.3311C84.0545 31.3743 84.0634 31.4209 84.0622 31.4678C84.0627 31.5134 84.0535 31.5586 84.0351 31.6002C84.0168 31.6418 83.9897 31.6789 83.9559 31.709C83.922 31.743 83.8816 31.7696 83.8371 31.7871C83.7926 31.8046 83.745 31.8127 83.6973 31.8107ZM83.9846 35.0566H83.3841V32.3745H83.9846V35.0566Z" fill="white"/>
<path d="M87.2697 34.8418C87.2697 35.8269 86.7783 36.318 85.8013 36.318C85.4908 36.3247 85.1824 36.2653 84.8961 36.1436V35.5886C85.146 35.7428 85.4311 35.829 85.7237 35.8385C86.354 35.8385 86.6691 35.5256 86.6691 34.8999V34.6093C86.5843 34.7512 86.4676 34.871 86.3285 34.9589C86.1895 35.0468 86.0319 35.1005 85.8686 35.1154C85.7052 35.1304 85.5407 35.1064 85.3882 35.0452C85.2358 34.984 85.0997 34.8875 84.9909 34.7633C84.7857 34.4882 84.6839 34.1483 84.7036 33.8044C84.6833 33.4158 84.796 33.032 85.0225 32.7175C85.1267 32.585 85.2605 32.4794 85.4128 32.4091C85.5651 32.3389 85.7318 32.3062 85.899 32.3136C86.0561 32.3055 86.2124 32.342 86.35 32.419C86.4876 32.496 86.6012 32.6105 86.6778 32.7495V32.3776H87.2784L87.2697 34.8418ZM86.672 33.8276V33.4789C86.6762 33.2998 86.6101 33.1264 86.4881 32.9965C86.4296 32.9317 86.358 32.8803 86.2782 32.8457C86.1984 32.8111 86.1122 32.7942 86.0254 32.796C85.9225 32.7916 85.8201 32.8126 85.727 32.8571C85.6339 32.9017 85.5529 32.9685 85.4909 33.0517C85.3504 33.2609 85.2827 33.5113 85.2984 33.7637C85.2863 33.9899 85.3512 34.2135 85.4823 34.3972C85.5394 34.4738 85.6138 34.5354 85.6993 34.5769C85.7848 34.6183 85.8789 34.6384 85.9737 34.6354C86.0694 34.6385 86.1646 34.6197 86.2522 34.5804C86.3397 34.5412 86.4174 34.4825 86.4795 34.4088C86.6111 34.245 86.6795 34.0385 86.672 33.8276Z" fill="white"/>
<path d="M90.371 33.8799H88.5634C88.5595 33.9873 88.5777 34.0945 88.6168 34.1945C88.6558 34.2945 88.715 34.3853 88.7904 34.461C88.956 34.6026 89.1689 34.6743 89.3853 34.6615C89.6651 34.6616 89.9377 34.5721 90.164 34.4058V34.894C89.8729 35.0603 89.5411 35.1398 89.2071 35.1236C89.037 35.1335 88.8668 35.1062 88.7081 35.0435C88.5494 34.9808 88.406 34.8842 88.2876 34.7603C88.0496 34.4737 87.9301 34.1052 87.9542 33.7317C87.9391 33.3559 88.0713 32.9894 88.322 32.7117C88.437 32.5836 88.5778 32.482 88.735 32.4138C88.8922 32.3457 89.062 32.3125 89.233 32.3165C89.3906 32.3079 89.5482 32.3353 89.694 32.3967C89.8397 32.458 89.9699 32.5518 90.075 32.671C90.2841 32.953 90.3861 33.3016 90.3623 33.6532L90.371 33.8799ZM89.7962 33.4498C89.8067 33.2674 89.7527 33.0871 89.6439 32.9413C89.5935 32.8806 89.53 32.8325 89.4582 32.8007C89.3864 32.769 89.3084 32.7544 89.2301 32.7582C89.1475 32.7563 89.0655 32.7725 88.9896 32.8056C88.9137 32.8387 88.8458 32.8879 88.7904 32.95C88.6655 33.0882 88.5879 33.2635 88.5692 33.4498H89.7962Z" fill="white"/>
<path d="M93.3934 35.0568H92.7928V33.5458C92.7928 33.0431 92.6175 32.7931 92.2669 32.7931C92.1806 32.7913 92.0949 32.8091 92.0163 32.8453C91.9377 32.8816 91.8681 32.9352 91.8129 33.0024C91.6922 33.1488 91.6288 33.3349 91.6347 33.5254V35.0568H91.0312V32.3747H91.6347V32.8193C91.7175 32.6619 91.842 32.5309 91.9943 32.4411C92.1465 32.3512 92.3206 32.3061 92.4968 32.3108C92.6217 32.3039 92.7465 32.3266 92.8613 32.377C92.976 32.4275 93.0775 32.5043 93.1577 32.6014C93.3266 32.8382 93.4098 33.1265 93.3934 33.4179V35.0568Z" fill="white"/>
<path d="M96.0863 34.9323C95.8552 35.0613 95.5943 35.1255 95.3305 35.1183C95.1551 35.1263 94.98 35.0973 94.8163 35.0333C94.6525 34.9693 94.5037 34.8715 94.3793 34.7463C94.258 34.6177 94.1634 34.4658 94.1013 34.2996C94.0391 34.1334 94.0105 33.9562 94.0172 33.7786C94.0081 33.5841 94.0378 33.3897 94.1044 33.207C94.171 33.0243 94.2733 32.857 94.4052 32.7151C94.542 32.5785 94.7053 32.4721 94.8849 32.4026C95.0644 32.3331 95.2563 32.3019 95.4483 32.3112C95.6685 32.3074 95.8869 32.351 96.0891 32.439V33.0202C95.9199 32.8866 95.7119 32.813 95.4972 32.811C95.3808 32.8071 95.2649 32.8284 95.1574 32.8735C95.0498 32.9186 94.9531 32.9864 94.8736 33.0725C94.7905 33.164 94.7262 33.2711 94.6843 33.3878C94.6424 33.5045 94.6237 33.6285 94.6293 33.7525C94.6169 33.9944 94.6995 34.2315 94.8592 34.4121C94.9394 34.4935 95.0355 34.557 95.1414 34.5986C95.2473 34.6401 95.3607 34.6588 95.4742 34.6533C95.6992 34.6498 95.9158 34.5665 96.0863 34.4179V34.9323Z" fill="white"/>
<path d="M98.9999 33.8799H97.1923C97.1891 33.9873 97.2076 34.0942 97.2466 34.1942C97.2857 34.2941 97.3444 34.3849 97.4194 34.4611C97.5849 34.6026 97.7978 34.6744 98.0142 34.6616C98.294 34.6617 98.5666 34.5722 98.793 34.4059V34.8941C98.5018 35.0603 98.17 35.1399 97.836 35.1237C97.6659 35.1336 97.4957 35.1063 97.337 35.0436C97.1783 34.9809 97.0349 34.8843 96.9165 34.7604C96.6785 34.4737 96.5591 34.1052 96.5831 33.7317C96.568 33.356 96.7002 32.9895 96.9509 32.7118C97.066 32.5838 97.2069 32.4824 97.364 32.4142C97.5211 32.346 97.6909 32.3127 97.8619 32.3166C98.0196 32.3077 98.1772 32.335 98.323 32.3964C98.4688 32.4578 98.599 32.5517 98.7039 32.6711C98.913 32.9531 99.015 33.3016 98.9912 33.6533L98.9999 33.8799ZM98.4251 33.4499C98.4356 33.2674 98.3817 33.0872 98.2728 32.9413C98.2225 32.8806 98.1589 32.8326 98.0871 32.8008C98.0153 32.769 97.9373 32.7545 97.859 32.7583C97.7764 32.7564 97.6944 32.7725 97.6185 32.8056C97.5426 32.8387 97.4747 32.888 97.4194 32.95C97.2944 33.0883 97.2168 33.2635 97.1981 33.4499H98.4251Z" fill="white"/>
<path d="M37.825 23.4653H37.2646V36.4111H37.825V23.4653Z" fill="white"/>
<path d="M0 25.9731H0.931061L3.0317 28.5885V26.5747C3.04901 26.4376 3.02391 26.2986 2.95986 26.1766C2.92219 26.1391 2.87711 26.1102 2.82758 26.0916C2.77804 26.0731 2.72518 26.0654 2.67249 26.069H2.54605V25.9731H3.73574V26.069H3.61217C3.55391 26.0631 3.49512 26.0722 3.44132 26.0956C3.38753 26.119 3.34051 26.1559 3.30469 26.2027C3.25468 26.3198 3.23491 26.4478 3.24722 26.5747V29.5038H3.16101L0.899451 26.7054V28.8442C0.88325 28.9808 0.907238 29.1193 0.968419 29.2423C1.00583 29.2802 1.0508 29.3097 1.10035 29.3288C1.14989 29.3478 1.20288 29.356 1.25578 29.3527H1.37648V29.4457H0.189661V29.3498H0.310354C0.369003 29.3554 0.428116 29.3462 0.482318 29.3228C0.536519 29.2995 0.584091 29.2628 0.620708 29.2161C0.668919 29.0976 0.687666 28.9689 0.675307 28.8413V26.4439C0.608744 26.3578 0.532566 26.2798 0.448289 26.2114C0.379209 26.1653 0.303642 26.1301 0.224144 26.1068C0.151761 26.0828 0.0761785 26.07 0 26.069L0 25.9731Z" fill="white"/>
<path d="M5.98086 28.2827H4.65036L4.4176 28.8319C4.37229 28.9229 4.34311 29.0213 4.33139 29.1225C4.33249 29.1499 4.3398 29.1768 4.35275 29.201C4.3657 29.2252 4.38395 29.246 4.4061 29.262C4.50577 29.3134 4.61605 29.3403 4.72795 29.3404V29.4334H3.64746V29.3491C3.75038 29.3411 3.84944 29.3061 3.93483 29.2474C4.0604 29.1003 4.15784 28.9308 4.22219 28.7476L5.42912 25.8911H5.51821L6.71364 28.7796C6.76908 28.9464 6.85812 29.0997 6.97514 29.23C7.06791 29.306 7.18337 29.348 7.30274 29.3491V29.4421H5.94063V29.3491C6.04097 29.3533 6.14048 29.3292 6.228 29.2794C6.25038 29.2626 6.26855 29.2406 6.28103 29.2154C6.29351 29.1902 6.29995 29.1623 6.29984 29.1341C6.28615 29.0111 6.25215 28.8912 6.19926 28.7796L5.98086 28.2827ZM5.90902 28.0938L5.33429 26.6902L4.73657 28.0938H5.90902Z" fill="white"/>
<path d="M10.1267 25.9731L7.8709 29.2364H9.27899C9.45587 29.2473 9.63117 29.1971 9.77613 29.0941C9.92856 28.9319 10.0348 28.7311 10.0836 28.5129L10.1669 28.5303L10.006 29.4486H7.20996V29.3498L9.41405 26.1823H8.31344C8.1787 26.1738 8.04368 26.1936 7.91688 26.2405C7.8388 26.2784 7.77375 26.3391 7.73009 26.4148C7.66895 26.5501 7.62919 26.6942 7.61227 26.842H7.51744L7.58641 25.9702L10.1267 25.9731Z" fill="white"/>
<path d="M12.477 28.2827H11.1465L10.9194 28.8319C10.8741 28.9229 10.845 29.0213 10.8332 29.1225C10.8343 29.1499 10.8416 29.1768 10.8546 29.201C10.8675 29.2252 10.8858 29.246 10.9079 29.262C11.0087 29.3133 11.1199 29.3402 11.2327 29.3404V29.4334H10.1436V29.3491C10.2466 29.342 10.3459 29.3068 10.4309 29.2474C10.5575 29.101 10.6551 28.9313 10.7183 28.7476L11.9252 25.8911H12.0143L13.2097 28.7796C13.2663 28.9458 13.3553 29.099 13.4712 29.23C13.5629 29.304 13.6759 29.3458 13.7931 29.3491V29.4421H12.4367V29.3491C12.537 29.3532 12.6365 29.329 12.7241 29.2794C12.7462 29.2622 12.7641 29.2403 12.7765 29.2151C12.789 29.1899 12.7956 29.1622 12.7959 29.1341C12.7823 29.0107 12.7473 28.8907 12.6925 28.7796L12.477 28.2827ZM12.4051 28.0938L11.8304 26.6902L11.2327 28.0938H12.4051Z" fill="white"/>
<path d="M17.1472 29.4457H16.2305L15.0811 27.8213C14.9949 27.8213 14.923 27.8213 14.8713 27.8213H14.7995H14.719V28.8325C14.703 28.9723 14.728 29.1138 14.7908 29.2393C14.8274 29.2786 14.8722 29.3092 14.9219 29.3288C14.9716 29.3484 15.025 29.3566 15.0782 29.3527H15.2104V29.4457H13.7305V29.3498H13.8598C13.92 29.3552 13.9805 29.3446 14.0354 29.3191C14.0904 29.2936 14.1378 29.2541 14.173 29.2045C14.2189 29.0853 14.2367 28.9569 14.2247 28.8296V26.5892C14.2416 26.4497 14.2177 26.3082 14.1558 26.1823C14.1185 26.144 14.0736 26.1141 14.0241 26.0946C13.9746 26.075 13.9215 26.0663 13.8684 26.069H13.7391V25.9731H14.992C15.2627 25.962 15.5335 25.9894 15.7966 26.0545C15.9695 26.1044 16.1237 26.2057 16.2392 26.3451C16.3598 26.4894 16.4242 26.6734 16.4202 26.8623C16.423 27.0671 16.3491 27.2654 16.2133 27.4173C16.0403 27.5943 15.8156 27.7104 15.5725 27.7486L16.2823 28.7453C16.3939 28.9217 16.536 29.0762 16.7018 29.2016C16.8405 29.2838 16.9957 29.3335 17.1559 29.3469L17.1472 29.4457ZM14.7075 27.6614H14.8512C15.1157 27.6805 15.3783 27.6043 15.5926 27.4464C15.6723 27.3798 15.736 27.2958 15.7788 27.2006C15.8216 27.1055 15.8425 27.0017 15.8397 26.8972C15.8448 26.7989 15.8292 26.7007 15.7941 26.6089C15.7589 26.5172 15.705 26.434 15.6358 26.3648C15.5666 26.2957 15.4837 26.2421 15.3925 26.2077C15.3014 26.1732 15.2041 26.1586 15.1069 26.1649C14.9726 26.1697 14.839 26.1863 14.7075 26.2143V27.6614Z" fill="white"/>
<path d="M19.2909 27.6725C19.4878 27.7044 19.6726 27.7898 19.8254 27.9195C19.9048 27.993 19.9678 28.083 20.0099 28.1832C20.052 28.2835 20.0724 28.3917 20.0696 28.5006C20.0675 28.679 20.0114 28.8525 19.9087 28.9976C19.7997 29.1585 19.6441 29.2813 19.4633 29.3492C19.1841 29.4342 18.8925 29.4706 18.6012 29.4567H16.9805V29.3492H17.1098C17.169 29.3544 17.2285 29.3444 17.2828 29.32C17.3371 29.2956 17.3843 29.2576 17.4201 29.2097C17.4689 29.0892 17.4886 28.9587 17.4776 28.829V26.5886C17.494 26.4484 17.4679 26.3066 17.4029 26.1817C17.3658 26.1431 17.321 26.113 17.2714 26.0934C17.2218 26.0739 17.1687 26.0653 17.1155 26.0684H16.9862V25.9725H18.469C18.6928 25.9671 18.9165 25.9876 19.1357 26.0335C19.3569 26.0786 19.5582 26.1936 19.7104 26.3619C19.8411 26.5097 19.9128 26.7013 19.9116 26.8995C19.9125 27.069 19.8568 27.2338 19.7535 27.3673C19.6339 27.5146 19.4724 27.6211 19.2909 27.6725ZM17.9633 27.5359C18.0336 27.5485 18.1046 27.5573 18.1759 27.562C18.2564 27.562 18.3455 27.562 18.4432 27.562C18.6315 27.572 18.82 27.5443 18.9978 27.4807C19.1176 27.4322 19.2185 27.3455 19.2851 27.2337C19.3513 27.1244 19.3861 26.9986 19.3857 26.8704C19.3856 26.7706 19.3633 26.672 19.3205 26.582C19.2778 26.492 19.2156 26.4128 19.1386 26.3503C18.9303 26.1995 18.6753 26.1294 18.4202 26.1527C18.266 26.1513 18.1123 26.1709 17.9633 26.2108V27.5359ZM17.9633 29.1952C18.1516 29.2406 18.3444 29.264 18.538 29.2649C18.7935 29.2874 19.0482 29.214 19.2535 29.0586C19.3299 28.9965 19.3913 28.9177 19.4331 28.8281C19.4749 28.7385 19.4961 28.6404 19.4949 28.5413C19.4935 28.404 19.4558 28.2696 19.3857 28.1519C19.3007 28.0191 19.1758 27.9172 19.0294 27.8613C18.8367 27.7838 18.6303 27.7472 18.423 27.7538C18.3196 27.7538 18.2276 27.7538 18.1558 27.7538C18.0951 27.7553 18.0346 27.7612 17.9748 27.7713L17.9633 29.1952Z" fill="white"/>
<path d="M22.518 28.2827H21.1904L20.9576 28.8319C20.9123 28.9229 20.8831 29.0213 20.8714 29.1225C20.8718 29.1501 20.8789 29.1772 20.8919 29.2015C20.9049 29.2258 20.9235 29.2465 20.9461 29.262C21.044 29.3164 21.1534 29.3463 21.2651 29.3491V29.4421H20.1875V29.3491C20.2904 29.3411 20.3895 29.3061 20.4749 29.2474C20.6013 29.1009 20.6989 28.9312 20.7622 28.7476L21.972 25.8911H22.0611L23.2537 28.7796C23.3098 28.9467 23.3999 29.1001 23.5181 29.23C23.6108 29.306 23.7263 29.348 23.8457 29.3491V29.4421H22.4778V29.3491C22.5781 29.3532 22.6776 29.329 22.7652 29.2794C22.7876 29.2626 22.8057 29.2406 22.8182 29.2154C22.8307 29.1902 22.8371 29.1623 22.837 29.1341C22.8233 29.0111 22.7893 28.8912 22.7364 28.7796L22.518 28.2827ZM22.4491 28.0938L21.8743 26.6902L21.2651 28.0938H22.4491Z" fill="white"/>
<path d="M25.6793 25.9731H26.8776V26.069H26.8115C26.7444 26.0765 26.6792 26.0962 26.619 26.1272C26.5324 26.168 26.4544 26.2252 26.3891 26.2957C26.2924 26.4071 26.2068 26.5278 26.1334 26.656L25.3057 27.9724V28.8442C25.2884 28.9812 25.3135 29.1203 25.3776 29.2423C25.4153 29.2798 25.4603 29.309 25.5098 29.328C25.5593 29.347 25.6121 29.3554 25.665 29.3527H25.777V29.4457H24.3316V29.3498H24.4551C24.5134 29.3552 24.572 29.3458 24.6257 29.3225C24.6794 29.2991 24.7265 29.2626 24.7626 29.2161C24.8123 29.0979 24.832 28.9691 24.8201 28.8413V28.0218L23.8775 26.5689C23.8085 26.4567 23.7327 26.349 23.6505 26.2463C23.5768 26.1827 23.4933 26.1317 23.4034 26.0952C23.3571 26.0754 23.307 26.0665 23.2568 26.069V25.9731H24.7138V26.069H24.6391C24.5618 26.068 24.4857 26.087 24.4178 26.1243C24.3872 26.1399 24.3617 26.1641 24.3444 26.194C24.3271 26.2239 24.3186 26.2582 24.3201 26.2928C24.3455 26.4143 24.3976 26.5285 24.4724 26.627L25.1908 27.7457L25.8632 26.6764C25.9422 26.5705 25.9944 26.4469 26.0155 26.316C26.0164 26.2705 26.0034 26.2259 25.9782 26.1882C25.9535 26.149 25.9173 26.1185 25.8747 26.101C25.8089 26.0753 25.7383 26.0644 25.6678 26.069L25.6793 25.9731Z" fill="white"/>
<path d="M27.8286 26.1533V27.5278H28.5844C28.7218 27.5423 28.8602 27.5106 28.9781 27.4377C29.079 27.3241 29.1317 27.1748 29.1246 27.0222H29.2166V28.231H29.1246C29.1142 28.1199 29.0901 28.0106 29.0528 27.9056C29.0202 27.8431 28.9675 27.7939 28.9033 27.7661C28.8021 27.7253 28.6932 27.7075 28.5844 27.7138H27.8286V28.8587C27.8215 28.9562 27.8293 29.0542 27.8516 29.1493C27.8635 29.1843 27.8882 29.2134 27.9206 29.2307C27.9816 29.2554 28.0476 29.2653 28.1131 29.2597H28.6878C28.8298 29.2647 28.9718 29.251 29.1102 29.219C29.2063 29.1862 29.293 29.1303 29.3631 29.0563C29.4939 28.915 29.6024 28.7543 29.685 28.5797H29.7856L29.4982 29.4515H26.8516V29.3498H26.9751C27.0557 29.3499 27.1349 29.3289 27.205 29.2888C27.2305 29.2771 27.2534 29.2602 27.2722 29.2392C27.291 29.2182 27.3053 29.1936 27.3142 29.1667C27.3397 29.0573 27.3494 28.9448 27.343 28.8325V26.5776C27.3602 26.4384 27.3373 26.2971 27.2769 26.1707C27.238 26.1354 27.1926 26.1081 27.1433 26.0907C27.094 26.0732 27.0417 26.0659 26.9895 26.069H26.8659V25.9731H29.5126L29.5499 26.7345H29.4522C29.434 26.6028 29.3942 26.4751 29.3344 26.3567C29.2883 26.287 29.2221 26.2332 29.1447 26.2027C29.0279 26.1697 28.9066 26.1559 28.7855 26.162L27.8286 26.1533Z" fill="white"/>
<path d="M33.3888 25.9726V26.0685C33.2841 26.079 33.1844 26.1193 33.1014 26.1847C32.9959 26.294 32.9146 26.4248 32.8629 26.5683L31.6646 29.5236H31.5726L30.2853 26.5305C30.2487 26.4289 30.2015 26.3315 30.1444 26.2399C30.1034 26.187 30.0501 26.1451 29.9893 26.1179C29.9104 26.0823 29.8255 26.0626 29.7393 26.0598V25.9639H31.1445V26.0598C31.0357 26.0588 30.9287 26.0869 30.8341 26.1411C30.8118 26.1592 30.794 26.1822 30.782 26.2084C30.77 26.2347 30.7643 26.2634 30.7651 26.2922C30.7791 26.4309 30.8181 26.5658 30.8801 26.6903L31.7422 28.7245L32.5755 26.7339C32.6373 26.604 32.6771 26.4645 32.6934 26.3213C32.692 26.2938 32.6849 26.2668 32.6726 26.2423C32.6602 26.2178 32.6428 26.1961 32.6215 26.1789C32.5488 26.1257 32.4636 26.0926 32.3744 26.083H32.3313V25.9871L33.3888 25.9726Z" fill="white"/>
<path d="M2.50572 31.7268V31.6338H3.70115V31.7268H3.57471C3.51325 31.7246 3.45234 31.7391 3.39827 31.7687C3.34421 31.7983 3.29897 31.8421 3.26723 31.8953C3.22184 32.0106 3.20411 32.135 3.21551 32.2586V33.6447C3.22504 33.9148 3.19107 34.1847 3.11493 34.4438C3.03717 34.6441 2.89825 34.8141 2.71837 34.9291C2.47644 35.077 2.19606 35.1479 1.91374 35.1325C1.62163 35.1514 1.3303 35.0848 1.07464 34.9407C0.886595 34.8152 0.743514 34.6318 0.666582 34.4176C0.599865 34.1421 0.572766 33.8583 0.58612 33.5749V32.2382C0.602598 32.0948 0.572328 31.95 0.499911 31.8256C0.462765 31.7879 0.417506 31.7593 0.367662 31.7422C0.317818 31.725 0.264734 31.7198 0.212546 31.7268H0.0947266V31.6338H1.55741V31.7268H1.43672C1.38159 31.723 1.3264 31.7332 1.27619 31.7566C1.22599 31.7799 1.18238 31.8156 1.14935 31.8604C1.09523 31.9784 1.0734 32.1088 1.08613 32.2382V33.7289C1.08722 33.8817 1.09971 34.0343 1.12349 34.1852C1.13118 34.3233 1.16843 34.4582 1.23269 34.5804C1.30683 34.6833 1.40575 34.7653 1.52006 34.8187C1.65633 34.8841 1.80603 34.916 1.95685 34.9116C2.16447 34.9151 2.36941 34.864 2.55169 34.7634C2.70962 34.6841 2.83626 34.553 2.9109 34.3915C2.98773 34.1416 3.01984 33.8798 3.00573 33.6185V32.2324C3.02132 32.0948 2.99738 31.9556 2.93676 31.8314C2.89924 31.7936 2.85425 31.7642 2.80474 31.7452C2.75522 31.7261 2.70228 31.7179 2.6494 31.721L2.50572 31.7268Z" fill="white"/>
<path d="M3.99414 31.6338H4.91371L6.97986 34.1968V32.2266C6.99583 32.0909 6.97184 31.9534 6.91089 31.8314C6.87298 31.7945 6.82779 31.7661 6.77826 31.748C6.72874 31.73 6.67601 31.7228 6.62353 31.7268H6.50571V31.6338H7.6839V31.7268H7.55746C7.50033 31.721 7.44268 31.7299 7.3899 31.7528C7.33713 31.7756 7.29096 31.8117 7.25573 31.8575C7.2062 31.9737 7.18644 32.1006 7.19826 32.2266V35.1092H7.10917L4.88497 32.3545V34.4612C4.86888 34.596 4.8929 34.7326 4.95394 34.8535C4.99195 34.8903 5.03716 34.9186 5.08666 34.9366C5.13615 34.9546 5.18883 34.962 5.2413 34.9581H5.362V35.054H4.1838V34.9581H4.31024C4.36822 34.9641 4.42677 34.9553 4.4805 34.9325C4.53423 34.9096 4.58142 34.8735 4.61772 34.8274C4.66627 34.712 4.68506 34.586 4.67232 34.4612V32.0813C4.60592 31.9979 4.53183 31.921 4.45105 31.8517C4.38112 31.8079 4.30575 31.7737 4.22691 31.75C4.15454 31.7321 4.08009 31.7243 4.00564 31.7268L3.99414 31.6338Z" fill="white"/>
<path d="M9.63214 34.9581V35.054H8.19531V34.9581H8.31601C8.37267 34.9632 8.42973 34.9548 8.48261 34.9336C8.5355 34.9124 8.58276 34.879 8.62061 34.8361C8.671 34.713 8.69074 34.5793 8.67809 34.4467V32.2382C8.6854 32.1229 8.67473 32.0072 8.64647 31.8953C8.62598 31.849 8.59051 31.8111 8.5459 31.7878C8.47549 31.7484 8.39647 31.7274 8.31601 31.7268H8.19531V31.6338H9.63214V31.7268H9.51144C9.45492 31.7216 9.398 31.7302 9.34548 31.752C9.29296 31.7737 9.24639 31.8079 9.20971 31.8517C9.15346 31.9721 9.13156 32.1059 9.14649 32.2382V34.4467C9.14051 34.5619 9.15116 34.6775 9.1781 34.7896C9.1999 34.8377 9.23746 34.8767 9.28442 34.9C9.35372 34.9393 9.43203 34.9593 9.51144 34.9581H9.63214Z" fill="white"/>
<path d="M13.6897 31.6337V31.7267C13.5852 31.7381 13.4858 31.7783 13.4023 31.8429C13.2988 31.9504 13.2194 32.0793 13.1696 32.2207L11.9885 35.1266H11.8966L10.6322 32.1829C10.5974 32.0815 10.5521 31.9841 10.4971 31.8923C10.4548 31.8406 10.4018 31.799 10.3419 31.7702C10.265 31.735 10.182 31.7153 10.0977 31.7121V31.6191H11.4942V31.7121C11.3875 31.7124 11.2826 31.7405 11.1896 31.7935C11.167 31.8108 11.1487 31.8332 11.1363 31.8589C11.1238 31.8847 11.1175 31.913 11.1178 31.9417C11.1329 32.0783 11.1718 32.2111 11.2327 32.334L12.0948 34.3391L12.8908 32.3601C12.9523 32.2322 12.9922 32.0946 13.0087 31.9533C13.0069 31.9263 12.9997 31.8999 12.9873 31.8759C12.9749 31.8519 12.9577 31.8308 12.9368 31.8138C12.8655 31.7605 12.7809 31.7283 12.6926 31.7208H12.6495V31.6279L13.6897 31.6337Z" fill="white"/>
<path d="M15.1267 31.8194V33.1706H15.8681C16.0034 33.1854 16.1397 33.1547 16.2561 33.0835C16.3546 32.9708 16.4061 32.824 16.3998 32.6737H16.4917V33.8651H16.3998C16.3901 33.7561 16.3669 33.6487 16.3308 33.5455C16.2978 33.4845 16.2465 33.4356 16.1842 33.406C16.0836 33.3667 15.9758 33.3498 15.8681 33.3566H15.1267V34.4812C15.1192 34.5785 15.126 34.6765 15.1468 34.7718C15.1525 34.7889 15.1615 34.8047 15.1734 34.8181C15.1853 34.8316 15.1997 34.8426 15.2158 34.8502C15.2758 34.8753 15.3409 34.8852 15.4055 34.8793H15.9802C16.1203 34.8861 16.2606 34.8724 16.3969 34.8386C16.4915 34.8073 16.5772 34.7535 16.6469 34.6817C16.775 34.5417 16.8816 34.383 16.963 34.2109H17.0636L16.7762 35.0682H14.1641V34.9723H14.2819C14.3613 34.9735 14.4396 34.9534 14.5089 34.9142C14.5339 34.9025 14.5565 34.886 14.5752 34.8656C14.594 34.8452 14.6085 34.8212 14.6181 34.795C14.6433 34.6866 14.653 34.575 14.6468 34.4638V32.2437C14.663 32.1063 14.6401 31.9672 14.5807 31.8426C14.5423 31.8067 14.4969 31.7791 14.4475 31.7616C14.3981 31.7441 14.3456 31.7371 14.2934 31.7409H14.1756V31.6479H16.7791L16.8164 32.3977H16.7216C16.7023 32.2681 16.6625 32.1425 16.6038 32.0257C16.5588 31.956 16.4936 31.9022 16.417 31.8717C16.302 31.8399 16.1826 31.8272 16.0635 31.8339L15.1267 31.8194Z" fill="white"/>
<path d="M20.9346 35.0537H20.0323L18.8828 33.4525C18.7966 33.4525 18.7276 33.4525 18.6759 33.4525H18.6069H18.5294V34.4463C18.5129 34.5839 18.5369 34.7234 18.5983 34.8473C18.6348 34.8866 18.6796 34.917 18.7294 34.9361C18.7792 34.9552 18.8326 34.9626 18.8857 34.9578H19.0179V35.0537H17.5811V34.9578H17.7075C17.7663 34.9631 17.8254 34.953 17.8792 34.9286C17.9331 34.9042 17.9798 34.8662 18.015 34.8183C18.0607 34.7001 18.0784 34.5727 18.0667 34.4463V32.2378C18.0831 32.1002 18.0591 31.9608 17.9977 31.8368C17.9602 31.799 17.9152 31.7696 17.8657 31.7506C17.8162 31.7316 17.7633 31.7233 17.7104 31.7264H17.5839V31.6334H18.8138C19.0815 31.6234 19.3492 31.6498 19.6098 31.7119C19.7792 31.7643 19.9299 31.8652 20.0438 32.0025C20.1621 32.1446 20.2254 32.3253 20.2219 32.511C20.2245 32.7126 20.1516 32.9078 20.0179 33.0573C19.8475 33.231 19.6273 33.3459 19.3886 33.3857L20.0869 34.365C20.1965 34.5385 20.3356 34.6909 20.4978 34.8154C20.6345 34.8964 20.788 34.9442 20.9461 34.9549L20.9346 35.0537ZM18.5351 33.3101H18.6788C18.9392 33.3282 19.1975 33.2531 19.4087 33.098C19.4876 33.0326 19.5508 32.95 19.5936 32.8564C19.6364 32.7628 19.6577 32.6606 19.6558 32.5575C19.6594 32.4617 19.6437 32.3662 19.6096 32.2768C19.5755 32.1874 19.5238 32.1059 19.4575 32.0373C19.388 31.9695 19.3055 31.9167 19.2151 31.8822C19.1246 31.8477 19.0282 31.8323 18.9317 31.8368C18.8003 31.8402 18.6694 31.8558 18.5409 31.8833L18.5351 33.3101Z" fill="white"/>
<path d="M23.5386 31.5552V32.7379H23.4466C23.4271 32.5481 23.3725 32.3638 23.2857 32.1945C23.2072 32.0588 23.0927 31.9481 22.9553 31.8748C22.8191 31.7977 22.6659 31.7567 22.5098 31.7557C22.3515 31.751 22.1977 31.8095 22.0817 31.9184C22.0294 31.9632 21.9872 32.0188 21.958 32.0815C21.9287 32.1441 21.9131 32.2124 21.9121 32.2817C21.9117 32.3888 21.9506 32.4924 22.0213 32.5722C22.2374 32.7792 22.4848 32.9499 22.7541 33.0779C22.9791 33.1937 23.1961 33.3247 23.4035 33.4702C23.5146 33.5573 23.605 33.6685 23.6679 33.7956C23.7302 33.9158 23.7627 34.0494 23.7627 34.185C23.7658 34.3113 23.7417 34.4367 23.6921 34.5526C23.6424 34.6685 23.5685 34.7721 23.4754 34.8563C23.268 35.0505 22.9936 35.1548 22.711 35.1469C22.6148 35.1483 22.5187 35.1415 22.4236 35.1265C22.3157 35.1014 22.2092 35.0703 22.1047 35.0335C22.0052 34.9963 21.9022 34.97 21.7972 34.9551C21.7787 34.9539 21.7602 34.9567 21.7429 34.9632C21.7256 34.9697 21.7098 34.9798 21.6966 34.9929C21.6652 35.0382 21.6473 35.0916 21.6449 35.1469H21.5529V33.9845H21.6449C21.6709 34.1771 21.7292 34.3638 21.8173 34.5366C21.9025 34.6614 22.0183 34.7616 22.1535 34.8272C22.3056 34.909 22.4755 34.9509 22.6478 34.9493C22.8279 34.9601 23.0051 34.8996 23.142 34.7807C23.1987 34.7327 23.2444 34.6727 23.2756 34.6049C23.3069 34.5371 23.3231 34.4632 23.3231 34.3884C23.3216 34.2987 23.2978 34.2108 23.2541 34.1327C23.1996 34.0398 23.1273 33.9588 23.0415 33.8944C22.9754 33.845 22.7972 33.7375 22.5098 33.5719C22.2945 33.4569 22.088 33.3257 21.892 33.1796C21.7742 33.0944 21.6761 32.9844 21.6046 32.857C21.541 32.7384 21.5084 32.6054 21.5098 32.4705C21.5104 32.3504 21.5364 32.2317 21.5859 32.1225C21.6355 32.0132 21.7075 31.9159 21.7972 31.837C21.9908 31.6568 22.2468 31.5608 22.5098 31.5697C22.7086 31.5727 22.9045 31.6182 23.0846 31.7034C23.1469 31.7352 23.2138 31.7568 23.2828 31.7673C23.3222 31.7681 23.3603 31.7536 23.3892 31.7266C23.4244 31.681 23.4472 31.6269 23.4553 31.5697L23.5386 31.5552Z" fill="white"/>
<path d="M25.9202 34.9581V35.054H24.4834V34.9581H24.6041C24.6608 34.9634 24.7179 34.9552 24.7708 34.9339C24.8238 34.9127 24.871 34.8792 24.9087 34.8361C24.962 34.7138 24.9828 34.5796 24.969 34.4467V32.2382C24.9759 32.1228 24.9643 32.007 24.9346 31.8953C24.9149 31.8484 24.8792 31.8103 24.834 31.7878C24.7637 31.7481 24.6846 31.7271 24.6041 31.7268H24.4834V31.6338H25.9202V31.7268H25.7967C25.7425 31.7239 25.6884 31.7337 25.6386 31.7554C25.5887 31.777 25.5445 31.81 25.5093 31.8517C25.4544 31.9725 25.4326 32.106 25.4461 32.2382V34.4467C25.439 34.5621 25.4506 34.678 25.4806 34.7896C25.5004 34.8381 25.5372 34.8774 25.584 34.9C25.6533 34.9393 25.7316 34.9593 25.811 34.9581H25.9202Z" fill="white"/>
<path d="M29.3115 31.6338L29.3488 32.4358H29.254C29.2435 32.3357 29.2183 32.2378 29.1793 32.1452C29.1347 32.0531 29.0622 31.9778 28.9724 31.9302C28.8676 31.8796 28.7522 31.8557 28.6362 31.8604H28.162V34.4758C28.147 34.6102 28.1699 34.7462 28.2281 34.8681C28.2662 34.9047 28.3114 34.9329 28.3609 34.9509C28.4104 34.9689 28.463 34.9763 28.5155 34.9727H28.6333V35.0686H27.1965V34.9727H27.3143C27.3718 34.9784 27.4299 34.9695 27.4831 34.9466C27.5363 34.9238 27.583 34.8878 27.6189 34.8419C27.6674 34.7265 27.6862 34.6005 27.6735 34.4758V31.8604H27.2683C27.1551 31.8553 27.0418 31.867 26.9321 31.8953C26.8405 31.9315 26.7622 31.9955 26.7079 32.0784C26.6407 32.1899 26.6031 32.317 26.5987 32.4474H26.5039L26.5441 31.6454L29.3115 31.6338Z" fill="white"/>
<path d="M32.2081 31.6338H33.3892V31.7268H33.3346C33.2683 31.7339 33.2039 31.7536 33.1449 31.7849C33.0597 31.8254 32.9827 31.8816 32.9179 31.9505C32.8248 32.0614 32.7412 32.18 32.6679 32.3051L31.8518 33.604V34.4758C31.8357 34.6105 31.8597 34.7471 31.9207 34.8681C31.9591 34.9042 32.0044 34.9322 32.0538 34.9502C32.1032 34.9681 32.1557 34.9758 32.2081 34.9727H32.3202V35.0686H30.8833V34.9727H31.004C31.0588 34.976 31.1136 34.9659 31.1636 34.9431C31.2137 34.9203 31.2575 34.8856 31.2914 34.8419C31.3399 34.7265 31.3587 34.6005 31.346 34.4758V33.6505L30.4207 32.2179C30.354 32.1076 30.2791 32.0027 30.1965 31.904C30.1242 31.84 30.0416 31.7889 29.9523 31.7529C29.9071 31.7329 29.8579 31.7239 29.8086 31.7268V31.6338H31.2454V31.7268H31.1707C31.0953 31.7257 31.021 31.7447 30.9552 31.782C30.925 31.7974 30.8999 31.8211 30.8826 31.8505C30.8653 31.8798 30.8566 31.9135 30.8575 31.9476C30.8828 32.0674 30.9349 32.1797 31.0098 32.276L31.7138 33.3773L32.3776 32.3254C32.4561 32.2218 32.5075 32.0999 32.5271 31.9709C32.5275 31.9268 32.5156 31.8834 32.4926 31.8459C32.4665 31.8079 32.4308 31.7778 32.3891 31.7587C32.3239 31.7344 32.2545 31.7235 32.1851 31.7268L32.2081 31.6338Z" fill="white"/>
</svg>
