<svg width="76" height="94" viewBox="0 0 76 94" fill="none" xmlns="http://www.w3.org/2000/svg">
<path fill-rule="evenodd" clip-rule="evenodd" d="M38 2C28.4522 2 19.2955 5.79285 12.5442 12.5442C5.79285 19.2955 2 28.4522 2 38C2 46.514 3.809 52.085 8.75 58.25L38 92L67.25 58.25C72.191 52.085 74 46.514 74 38C74 28.4522 70.2072 19.2955 63.4558 12.5442C56.7045 5.79285 47.5478 2 38 2ZM38 51.5C45.4558 51.5 51.5 45.4558 51.5 38C51.5 30.5442 45.4558 24.5 38 24.5C30.5442 24.5 24.5 30.5442 24.5 38C24.5 45.4558 30.5442 51.5 38 51.5Z" fill="#960002" stroke="#960002" stroke-width="4" stroke-linecap="round" stroke-linejoin="round"/>
</svg>
