<svg width="205" height="47" viewBox="0 0 205 47" fill="none" xmlns="http://www.w3.org/2000/svg">
<path d="M191.407 46.5053C212.825 49.088 203.958 30.0518 189.472 17.603C181.263 10.5512 171.687 5.43219 165.943 3.27225C146.897 -3.89414 139.056 5.81283 156.556 25.4912C162.214 31.8536 168.238 35.5383 173.165 39.2188C176.928 42.0285 182.822 42.3266 181.391 44.5482C179.778 47.0541 172.25 40.0494 172.25 40.0494C167.139 36.4944 162.121 32.5804 156.484 26.8634C143.606 13.8076 140.48 -2.28742 157.952 0.270534C172.779 2.44447 189.928 15.2966 198.219 25.4983C202.047 30.2095 214.312 49.6437 191.585 46.6976" fill="white"/>
<path d="M19.0602 29.703C19.0602 30.8989 18.5647 31.8885 17.5738 32.672C16.6448 33.404 15.5351 33.77 14.2448 33.77C13.13 33.77 12.1288 33.4761 11.241 32.8885C10.2501 32.2287 9.54817 31.2855 9.13528 30.0587C9.0527 29.8113 8.67593 28.4711 8.00498 26.0382C7.39596 23.832 6.86436 22.1052 6.41018 20.8579C5.78052 19.1569 5.26956 18.3321 4.87731 18.3837C4.61925 18.4455 4.43861 18.5538 4.33539 18.7084C4.23216 18.8527 4.18055 19.0589 4.18055 19.327V33.5071H0V18.3528C0 16.9713 0.521279 15.9198 1.56384 15.1982C2.46188 14.5796 3.61282 14.2704 5.01666 14.2704C6.89533 14.2704 8.38691 15.2136 9.4914 17.1002C10.2346 18.3579 10.9417 20.3939 11.6126 23.2083C12.3559 26.301 12.8978 28.2185 13.2384 28.9608C13.4242 29.3628 13.7081 29.5639 14.09 29.5639C14.2965 29.5639 14.4719 29.4814 14.6164 29.3164C14.7713 29.1515 14.8487 28.9247 14.8487 28.636V14.4714H19.0602V29.703Z" fill="white"/>
<path d="M43.3861 26.734C43.3861 28.9195 42.5396 30.6618 40.8468 31.9607C39.3191 33.1359 37.4507 33.7236 35.2417 33.7236C33.0947 33.7236 31.2883 33.1463 29.8225 31.9916C28.1813 30.703 27.3606 28.9505 27.3606 26.734V14.6106H31.4638V26.0536C31.4638 27.0433 31.887 27.8371 32.7334 28.435C33.5076 28.9814 34.4418 29.2546 35.5359 29.2546C36.5888 29.2546 37.4765 28.9917 38.1991 28.4659C39.0042 27.8783 39.4068 27.0742 39.4068 26.0536V14.6106H43.3861V26.734Z" fill="white"/>
<path d="M64.1662 33.5071H57.9883C55.769 33.5071 54.0193 32.5432 52.7394 30.6154C51.5833 28.8835 51.0052 26.7495 51.0052 24.2135C51.0052 21.6362 51.5936 19.4404 52.7703 17.626C54.0709 15.6157 55.8103 14.6106 57.9883 14.6106H64.1662C66.3442 14.6106 68.0835 15.6157 69.3841 17.626C70.5609 19.4404 71.1493 21.6413 71.1493 24.2289C71.1493 26.7649 70.5764 28.8938 69.4306 30.6154C68.1506 32.5432 66.3958 33.5071 64.1662 33.5071ZM63.4694 29.4092C64.4604 29.4092 65.2552 28.8319 65.8539 27.6773C66.401 26.6258 66.6745 25.3578 66.6745 23.8733C66.6745 22.43 66.4113 21.2187 65.8849 20.2393C65.2965 19.1465 64.4914 18.6002 63.4694 18.6002H58.685C57.6631 18.6002 56.858 19.1465 56.2696 20.2393C55.7432 21.2187 55.4799 22.43 55.4799 23.8733C55.4799 25.3681 55.7483 26.6361 56.2851 27.6773C56.8838 28.8319 57.6838 29.4092 58.685 29.4092H63.4694Z" fill="white"/>
<path d="M89.932 26.0536H85.9063C84.8741 26.0536 84.136 26.399 83.6922 27.0897C83.3928 27.5639 83.2431 28.1567 83.2431 28.868C83.2431 29.1257 83.2431 29.2804 83.2431 29.3319C83.2535 29.3834 83.2689 29.435 83.2896 29.4865V33.5071H79.171C79.171 33.1978 79.171 32.77 79.171 32.2236C79.171 31.6772 79.171 30.9607 79.171 30.0742C79.171 29.1876 79.171 28.2443 79.171 27.2443C79.171 25.7392 79.5426 24.5227 80.2858 23.5949C81.1529 22.5125 82.4277 21.9712 84.1102 21.9712H89.2353C89.7101 21.9712 90.0765 21.8114 90.3346 21.4919C90.5927 21.162 90.7217 20.7754 90.7217 20.3321C90.7217 19.8579 90.5978 19.461 90.3501 19.1414C90.0714 18.7806 89.6998 18.6002 89.2353 18.6002H79.171V14.6106H89.932C91.5423 14.6106 92.8171 15.2033 93.7565 16.3889C94.6029 17.461 95.0261 18.7754 95.0261 20.3321C95.0261 21.8784 94.6029 23.1877 93.7565 24.2598C92.8171 25.4557 91.5423 26.0536 89.932 26.0536Z" fill="white"/>
<path d="M119.306 33.5071H108.544C106.934 33.5071 105.659 32.904 104.72 31.6978C103.874 30.6154 103.45 29.2855 103.45 27.7082C103.45 26.2856 103.806 25.0536 104.519 24.0124C103.806 22.9712 103.45 21.7496 103.45 20.3476C103.45 18.8012 103.874 17.4868 104.72 16.4043C105.659 15.2085 106.934 14.6106 108.544 14.6106H119.306V18.6002H109.241C108.787 18.6002 108.426 18.7754 108.157 19.1259C107.899 19.4661 107.77 19.8682 107.77 20.3321C107.77 20.7857 107.894 21.1723 108.142 21.4919C108.4 21.8114 108.766 21.9712 109.241 21.9712H119.306V26.0536H108.668C108.39 26.1773 108.168 26.3938 108.003 26.7031C107.848 27.0124 107.77 27.3526 107.77 27.7237C107.77 28.1876 107.894 28.5896 108.142 28.9298C108.4 29.27 108.766 29.4401 109.241 29.4401H119.306V33.5071Z" fill="white"/>
<path d="M146.775 29.703C146.775 30.8989 146.279 31.8885 145.288 32.672C144.359 33.404 143.249 33.77 141.959 33.77C140.844 33.77 139.843 33.4761 138.955 32.8885C137.964 32.2287 137.262 31.2855 136.85 30.0587C136.767 29.8113 136.39 28.4711 135.719 26.0382C135.11 23.832 134.579 22.1052 134.124 20.8579C133.495 19.1569 132.984 18.3321 132.592 18.3837C132.334 18.4455 132.153 18.5538 132.05 18.7084C131.946 18.8527 131.895 19.0589 131.895 19.327V33.5071H127.714V18.3528C127.714 16.9713 128.236 15.9198 129.278 15.1982C130.176 14.5796 131.327 14.2704 132.731 14.2704C134.61 14.2704 136.101 15.2136 137.206 17.1002C137.949 18.3579 138.656 20.3939 139.327 23.2083C140.07 26.301 140.612 28.2185 140.953 28.9608C141.139 29.3628 141.422 29.5639 141.804 29.5639C142.011 29.5639 142.186 29.4814 142.331 29.3164C142.486 29.1515 142.563 28.9247 142.563 28.636V14.4714H146.775V29.703Z" fill="white"/>
<path d="M171.859 33.5071H159.147C157.929 33.5071 156.933 33.0225 156.159 32.0535C155.436 31.1463 155.075 30.0484 155.075 28.7597C155.075 27.6567 155.359 26.6722 155.927 25.8062C156.556 24.8371 157.47 24.1516 158.667 23.7495L167.168 20.3476C167.467 20.3476 167.704 20.2496 167.88 20.0537C168.066 19.8579 168.148 19.6723 168.128 19.4971C168.055 19.229 167.947 19.0486 167.802 18.9558C167.658 18.8527 167.446 18.8012 167.168 18.8012H155.09V14.6106H168.143C169.526 14.6106 170.636 15.0796 171.472 16.0177C172.236 16.8734 172.618 17.9249 172.618 19.1723C172.618 20.2548 172.324 21.229 171.735 22.0949C171.085 23.0434 170.166 23.7135 168.979 24.1052L159.782 27.8319C159.369 27.8319 159.163 28.0226 159.163 28.4041C159.163 28.6412 159.255 28.8525 159.441 29.0381C159.627 29.2237 159.88 29.3164 160.2 29.3164H171.859V33.5071Z" fill="#BD0100"/>
<path d="M196.572 18.6002H186.508C186.054 18.6002 185.692 18.7754 185.424 19.1259C185.166 19.4661 185.037 19.8682 185.037 20.3321C185.037 20.7857 185.161 21.1723 185.408 21.4919C185.666 21.8114 186.033 21.9712 186.508 21.9712H192.438C194.038 21.9712 195.302 22.5692 196.231 23.765C197.067 24.8371 197.486 26.1619 197.486 27.7391C197.486 29.3061 197.067 30.6308 196.231 31.7133C195.302 32.9091 194.038 33.5071 192.438 33.5071H181.646V29.4865H191.757C192.19 29.4865 192.531 29.3113 192.779 28.9608C193.026 28.6 193.15 28.1876 193.15 27.7237C193.15 27.2598 193.031 26.868 192.794 26.5485C192.557 26.2186 192.211 26.0536 191.757 26.0536H185.811C184.201 26.0536 182.926 25.4608 181.987 24.2753C181.14 23.2135 180.717 21.8991 180.717 20.3321C180.717 18.7857 181.14 17.4765 181.987 16.4043C182.936 15.2085 184.211 14.6106 185.811 14.6106H196.572V18.6002Z" fill="#BD0100"/>
<path d="M191.514 46.4795C212.823 49.051 203.999 30.1073 189.587 17.7184C181.419 10.7006 172.397 5.83625 166.177 3.45627C158.915 0.676602 158.224 0.470685 158.224 0.470685C173.459 3.13122 190.037 15.425 198.285 25.5783C202.095 30.2662 214.298 49.6062 191.688 46.6732" fill="white"/>
</svg>
