<svg width="592" height="1077" viewBox="0 0 592 1077" fill="none" xmlns="http://www.w3.org/2000/svg">
<path d="M50.3681 761.75C31.3086 771.963 24.6586 778.368 26.8681 781.099C29.3102 784.118 42.5746 782.65 61.8681 776.875C97.2069 759.202 122.915 754.997 171.618 750.25C189.296 702.074 243.928 669.004 276.838 649.875C261.732 651.856 253.247 653.365 238.118 657C171.135 672.837 130.173 695.77 50.3681 761.75Z" fill="white"/>
<path d="M91.993 796.09C97.9079 796.532 104.268 797.316 111.118 798.375C141.138 803.018 160.689 815.003 171.618 829.273C187.86 813.521 175.514 795.547 156.08 784.75C131.84 771.283 96.5719 768.983 91.993 796.09Z" fill="#6D47B3"/>
<path d="M174.993 753.766C173.886 752.612 172.761 751.44 171.618 750.25L156.08 784.75C175.514 795.547 187.86 813.521 171.618 829.273C174.674 833.264 177.056 837.433 178.804 841.67L227.532 813.706C215.296 796.457 199.672 779.5 174.993 753.766Z" fill="#502C98"/>
<path d="M166.618 950.792C174.999 945.715 189.915 941.19 214.868 935C219.292 925.917 221.374 917.667 222.727 909.625L175.029 884.75C156.924 911.012 107.896 916.505 48.2431 845.625C48.7564 847.563 49.3096 849.458 49.9016 851.313C61.8003 885.907 105.622 918.174 146.883 937.375C154.236 942.13 160.97 946.606 166.618 950.792Z" fill="white"/>
<path d="M181.553 869.5C181.383 870.299 181.191 871.091 180.978 871.875L225.061 892.75C225.188 891.837 225.321 890.92 225.461 890L181.553 869.5Z" fill="#FEF0FF"/>
<path d="M230.427 869.5H181.553L225.461 890C226.057 886.094 226.789 882.117 227.837 878C228.54 875.237 229.385 872.411 230.427 869.5Z" fill="#E4C9FC"/>
<path d="M175.029 884.75L222.727 909.625C223.178 906.943 223.548 904.284 223.897 901.625L178.804 878C177.755 880.366 176.493 882.626 175.029 884.75Z" fill="#E4C9FC"/>
<path d="M178.804 878L223.897 901.625C224.094 900.127 224.284 898.628 224.478 897.125L179.955 875.125C179.606 876.099 179.222 877.058 178.804 878Z" fill="#FEF0FF"/>
<path d="M179.955 875.125L224.478 897.125C224.665 895.672 224.856 894.215 225.061 892.75L180.978 871.875C180.679 872.975 180.338 874.059 179.955 875.125Z" fill="#E4C9FC"/>
<path d="M478.342 1050.62C367.205 1062.43 314.062 1027.26 238.125 956.884C230.621 949.929 222.895 942.631 214.868 935C189.915 941.19 174.999 945.715 166.618 950.792C161.646 953.805 158.973 957.011 157.868 960.875C172.501 975.089 186.23 987.639 199.25 998.677C304.237 1087.68 363.133 1078.36 478.342 1050.62Z" fill="#7752C0"/>
<path d="M128.243 943.75L146.883 937.375C105.622 918.174 61.8003 885.907 49.9016 851.313C62.3292 890.253 91.8515 911.535 128.243 943.75Z" fill="#42238B"/>
<path d="M48.2431 845.625C53.6449 885.033 63.1946 905.688 103.368 937.375C110.515 943.945 114.108 948.403 115.193 952.625L128.243 943.75C91.8515 911.535 62.3292 890.253 49.9016 851.313C49.2517 849.423 48.697 847.527 48.2431 845.625Z" fill="#522E9A"/>
<path d="M171.618 750.25C122.915 754.997 97.2069 759.202 61.8681 776.875C42.5746 782.65 29.3102 784.118 26.8681 781.099L45.6181 805.717C57.1772 796.982 72.0571 794.6 91.993 796.09C96.5719 768.983 131.84 771.283 156.08 784.75L171.618 750.25Z" fill="#7954C5"/>
<path d="M26.8681 781.099C15.7172 808.774 13.3936 826.696 16.6181 863.375C23.7082 833.624 32.5365 815.603 45.6181 805.717L26.8681 781.099Z" fill="#502C98"/>
<path d="M543.716 2.5C468.463 293 -92.9118 466.25 16.6181 863.375C13.3936 826.696 15.7172 808.774 26.8681 781.099C24.6586 778.368 31.3086 771.963 50.3681 761.75C34.863 763.058 27.7362 763.086 23.7431 759.25C34.4733 718.485 46.8682 690.728 64.161 665.5C65.0506 664.202 65.9532 662.911 66.8693 661.625C69.8957 657.376 73.0684 653.185 76.4034 649C77.8972 647.125 79.4235 645.252 80.9839 643.375C82.2629 641.837 83.5648 640.296 84.8902 638.75C94.7257 627.281 105.861 615.544 118.618 602.5C124.993 565.125 142.578 539.875 167.868 508.25C238.25 425.125 290.088 400.625 351.217 372.375C410.088 333.75 531.338 127.125 543.716 2.5Z" fill="url(#paint0_linear_761_212)"/>
<path d="M351.217 372.375C261.314 411.547 223.962 442 167.868 508.25C142.578 539.875 124.993 565.125 118.618 602.5C127.663 607.966 135.961 612.325 143.868 615.62L183.593 595C179.66 546.027 302.904 447.864 345 450.477L351.217 372.375Z" fill="url(#paint1_linear_761_212)"/>
<path d="M288.588 595C269.157 595.455 258.13 596.545 238.118 600.25C205.676 606.747 186.429 605.026 183.593 595L143.868 615.62C150.313 618.306 156.498 620.286 162.618 621.583C185.383 626.408 257.704 607.85 288.588 595Z" fill="url(#paint2_linear_761_212)"/>
<path d="M73.3681 696.375C56.1181 697.75 39.4352 735.786 55.721 753.766C73.4533 727.969 91.9503 707.603 115.721 688.75C108.868 692.381 103.743 694.241 99.243 695.18C96.6922 695.713 94.3425 695.95 91.993 696.047C86.5949 696.269 81.1984 695.751 73.3681 696.375Z" fill="#42238B"/>
<path d="M143.868 615.62C135.961 612.325 127.663 607.966 118.618 602.5C105.861 615.544 94.7257 627.281 84.8902 638.75L125.222 681.5C141.741 669.36 160.775 657.653 183.593 645.275L162.618 621.583C156.498 620.286 150.313 618.306 143.868 615.62Z" fill="#6640AD"/>
<path d="M76.4034 649L115.721 688.75C117.369 687.443 119.043 686.143 120.743 684.849L80.9839 643.375C79.4235 645.252 77.8972 647.125 76.4034 649Z" fill="#6D47B3"/>
<path d="M99.243 695.18L66.8693 661.625C65.9532 662.911 65.0506 664.202 64.161 665.5L91.993 696.047C94.3425 695.95 96.6922 695.713 99.243 695.18Z" fill="#6D47B3"/>
<path d="M115.721 688.75L76.4034 649C73.0684 653.185 69.8957 657.376 66.8693 661.625L99.243 695.18C103.743 694.241 108.868 692.381 115.721 688.75Z" fill="#5A34A1"/>
<path d="M23.7431 759.25C27.7362 763.086 34.863 763.058 50.3681 761.75C52.1477 759.031 53.9304 756.37 55.721 753.766C39.4352 735.786 56.1181 697.75 73.3681 696.375C81.1984 695.751 86.5949 696.269 91.993 696.047L64.161 665.5C46.8682 690.728 34.4733 718.485 23.7431 759.25Z" fill="#5A34A1"/>
<path d="M80.9839 643.375L120.743 684.849C122.216 683.729 123.708 682.613 125.222 681.5L84.8902 638.75C83.5648 640.296 82.2629 641.837 80.9839 643.375Z" fill="#5A34A1"/>
<path d="M238.118 617.625C256.31 608.921 267.97 603.915 288.588 595C257.704 607.85 185.383 626.408 162.618 621.583L183.593 645.275C199.727 636.523 217.752 627.437 238.118 617.625Z" fill="#502C98"/>
<path d="M276.838 649.875C243.928 669.004 189.296 702.074 171.618 750.25C172.761 751.44 173.886 752.612 174.993 753.766L227.532 726.625C224.881 714.883 229.095 704.059 238.118 688.75C250.528 672.711 260.427 663.081 276.838 649.875Z" fill="url(#paint3_linear_761_212)"/>
<path d="M246.716 836.5C347.336 833.724 382.292 852.669 395.717 933.25C402.842 802.875 265.591 809 227.532 726.625L174.993 753.766C199.672 779.5 215.296 796.457 227.532 813.706C231.331 819.061 243.401 830.818 246.716 836.5Z" fill="url(#paint4_linear_761_212)"/>
<path d="M114.493 960.875H157.868C158.973 957.011 161.646 953.805 166.618 950.792L128.243 943.75L115.193 952.625C115.884 955.31 115.56 957.899 114.493 960.875Z" fill="url(#paint5_linear_761_212)"/>
<path d="M114.493 960.875C99.875 968.602 83.25 959.227 55.5 926.103C79.4969 970.771 95.7244 989.925 138.875 993.978L142.389 987.852L149.059 976.227L114.493 960.875Z" fill="url(#paint6_linear_761_212)"/>
<path d="M157.868 960.875H114.493L149.059 976.227L157.868 960.875Z" fill="url(#paint7_linear_761_212)"/>
<path d="M138.875 993.978C95.7244 989.925 79.4969 970.771 55.5 926.103C74.75 1023.6 157.25 1076.48 247.375 1074.35C204.296 1064.95 178.142 1056.9 157.868 1029.4C151.006 1020.09 144.818 1008.55 138.875 993.978Z" fill="url(#paint8_linear_761_212)"/>
<path d="M199.25 998.677C186.23 987.639 172.501 975.089 157.868 960.875L149.059 976.227L142.389 987.852L178.42 1008.23C181.221 1002.02 187.901 997.985 199.25 998.677Z" fill="#5C37A3"/>
<path d="M247.375 1074.35C247.375 1074.35 199.262 1055.11 185.5 1037.85C181.339 1032.64 178.561 1026.85 177.433 1021.35L157.868 1029.4C178.142 1056.9 204.296 1064.95 247.375 1074.35Z" fill="url(#paint9_linear_761_212)"/>
<path d="M142.389 987.852L138.875 993.978C144.818 1008.55 151.006 1020.09 157.868 1029.4L177.433 1021.35C176.449 1016.56 176.719 1012 178.42 1008.23L142.389 987.852Z" fill="url(#paint10_linear_761_212)"/>
<path d="M246.716 836.5L230.427 869.5C229.385 872.411 228.54 875.237 227.837 878L282.125 904.578C283.626 899.294 285.887 894.393 288.76 890L246.716 836.5Z" fill="url(#paint11_linear_761_212)"/>
<path d="M395.717 933.25C382.292 852.669 347.336 833.724 246.716 836.5L288.76 890C310.521 856.729 367.42 852.669 395.717 933.25Z" fill="url(#paint12_linear_761_212)"/>
<path d="M224.478 897.125C224.284 898.628 224.094 900.127 223.897 901.625L282.125 904.578L227.837 878C226.789 882.117 226.057 886.094 225.461 890C225.321 890.92 225.188 891.837 225.061 892.75C224.856 894.215 224.665 895.672 224.478 897.125Z" fill="#5C2DA7"/>
<path d="M222.727 909.625C221.374 917.667 219.292 925.917 214.868 935C222.895 942.631 230.621 949.929 238.125 956.884L281.324 932.227C279.268 922.386 279.732 912.997 282.125 904.578L223.897 901.625C223.548 904.284 223.178 906.943 222.727 909.625Z" fill="url(#paint13_linear_761_212)"/>
<path d="M478.342 1050.62C414 1044.35 388.75 1043.73 318.875 985.602C296.382 968.285 284.945 949.554 281.324 932.227L238.125 956.884C314.062 1027.26 367.205 1062.43 478.342 1050.62Z" fill="url(#paint14_linear_761_212)"/>
<path d="M261.5 720.478C269.62 712.874 285.03 706.694 327.625 692.977C335.367 672.895 346.633 658.163 359.623 644.852C381.9 622.026 409.249 603.38 432.596 569.102C439.496 558.972 446.047 547.475 452.013 534.102L409.625 532.102C409.625 579.227 290.375 689.352 261.5 720.478Z" fill="white"/>
<path d="M351.217 372.375L345 450.477C388.625 450.477 409.625 476.764 409.625 532.102L452.013 534.102C456.188 524.746 460.076 514.471 463.599 503.102C464.64 499.741 465.65 496.284 466.625 492.727C454.642 467.963 444.653 448.904 434.334 432.602C433.451 431.208 432.566 429.833 431.677 428.477C431.098 427.595 430.518 426.72 429.935 425.852C429.372 425.012 428.806 424.179 428.238 423.352C427.369 422.088 426.496 420.839 425.615 419.602C414.651 404.206 402.659 390.853 387.125 376.352C373.228 370.914 365.327 371.236 351.217 372.375Z" fill="url(#paint15_linear_761_212)"/>
<path d="M419.875 764.978C403.375 743.352 370.625 724.102 356.125 684.102L327.625 692.977L419.875 764.978Z" fill="#DAD0EA"/>
<path d="M327.625 692.977L356.125 684.102C363.221 677.426 370.031 671.203 376.585 665.352L359.623 644.852C346.633 658.163 335.367 672.895 327.625 692.977Z" fill="#512E9A"/>
<path d="M589.375 407.602C539.756 466.024 531 477.977 466.625 492.727C465.65 496.284 464.64 499.741 463.599 503.102H538.414C554.115 478.204 570.701 447.435 589.375 407.602Z" fill="#512E9A"/>
<path d="M359.623 644.852L376.585 665.352C407.495 637.762 432.725 618.449 455.5 598.858L432.596 569.102C409.249 603.38 381.9 622.026 359.623 644.852Z" fill="#663EAD"/>
<path d="M452.013 534.102C446.047 547.475 439.496 558.972 432.596 569.102L455.5 598.858C484.919 573.551 510.241 547.779 538.414 503.102H463.599C460.076 514.471 456.188 524.746 452.013 534.102Z" fill="#56329E"/>
<path d="M419.875 764.978L327.625 692.977C285.03 706.694 269.62 712.874 261.5 720.478C327.45 717.573 361.545 730.186 419.875 764.978Z" fill="url(#paint16_linear_761_212)"/>
<path d="M466.625 492.727C531 477.977 539.756 466.024 589.375 407.602C538.986 463.304 493.066 454.92 477.206 410.477L434.334 432.602C444.653 448.904 454.642 467.963 466.625 492.727Z" fill="white"/>
<path d="M543.716 2.5C531.338 127.125 410.088 333.75 351.217 372.375C365.327 371.236 373.228 370.914 387.125 376.352C402.659 390.853 414.651 404.206 425.615 419.602L473.546 396.977C468.034 368.782 472.452 330.37 491.125 286.477C540.855 164.669 552.59 102.371 543.716 2.5Z" fill="url(#paint17_linear_761_212)"/>
<path d="M429.935 425.852L475.038 403.477C474.766 402.451 474.507 401.41 474.264 400.352L428.238 423.352C428.806 424.179 429.372 425.012 429.935 425.852Z" fill="#A77CEA"/>
<path d="M428.238 423.352L474.264 400.352C474.008 399.244 473.769 398.119 473.546 396.977L425.615 419.602C426.496 420.839 427.369 422.088 428.238 423.352Z" fill="#D7CFE6"/>
<path d="M431.677 428.477L475.852 406.352C475.568 405.408 475.297 404.45 475.038 403.477L429.935 425.852C430.518 426.72 431.098 427.595 431.677 428.477Z" fill="#DFD6EE"/>
<path d="M434.334 432.602L477.206 410.477C476.727 409.135 476.276 407.76 475.852 406.352L431.677 428.477C432.566 429.833 433.451 431.208 434.334 432.602Z" fill="#9D74E1"/>
<path d="M181.553 869.5H230.427L246.716 836.5C243.401 830.818 231.331 819.061 227.532 813.706L178.804 841.67C182.658 851.012 183.43 860.684 181.553 869.5Z" fill="url(#paint18_linear_761_212)"/>
<defs>
<linearGradient id="paint0_linear_761_212" x1="295.938" y1="2.5" x2="295.938" y2="1074.41" gradientUnits="userSpaceOnUse">
<stop offset="0.384615" stop-color="white"/>
<stop offset="0.629808" stop-color="#9B71E3"/>
</linearGradient>
<linearGradient id="paint1_linear_761_212" x1="295.938" y1="2.5" x2="295.938" y2="1074.41" gradientUnits="userSpaceOnUse">
<stop offset="0.447115" stop-color="#7954C5"/>
<stop offset="0.519231" stop-color="#3C2086"/>
<stop offset="0.600962" stop-color="#9871DE"/>
</linearGradient>
<linearGradient id="paint2_linear_761_212" x1="295.938" y1="2.5" x2="295.938" y2="1074.41" gradientUnits="userSpaceOnUse">
<stop offset="0.182692" stop-color="#7E5AC5"/>
<stop offset="0.942308" stop-color="white"/>
</linearGradient>
<linearGradient id="paint3_linear_761_212" x1="295.938" y1="2.5" x2="295.938" y2="1074.41" gradientUnits="userSpaceOnUse">
<stop offset="0.423077" stop-color="#3D2188"/>
<stop offset="0.495192" stop-color="#BB96F3"/>
</linearGradient>
<linearGradient id="paint4_linear_761_212" x1="295.938" y1="2.5" x2="295.938" y2="1074.41" gradientUnits="userSpaceOnUse">
<stop offset="0.548077" stop-color="#BB96F3"/>
<stop offset="0.596154" stop-color="white"/>
</linearGradient>
<linearGradient id="paint5_linear_761_212" x1="295.938" y1="2.5" x2="295.938" y2="1074.41" gradientUnits="userSpaceOnUse">
<stop offset="0.971154" stop-color="#754FBB"/>
<stop offset="1" stop-color="white"/>
</linearGradient>
<linearGradient id="paint6_linear_761_212" x1="295.938" y1="2.5" x2="295.938" y2="1074.41" gradientUnits="userSpaceOnUse">
<stop offset="0.860577" stop-color="#A35EE1"/>
<stop offset="0.918269" stop-color="#FFFEFF"/>
</linearGradient>
<linearGradient id="paint7_linear_761_212" x1="295.938" y1="2.5" x2="295.938" y2="1074.41" gradientUnits="userSpaceOnUse">
<stop offset="0.894231" stop-color="#9A4FDE"/>
<stop offset="0.97" stop-color="white"/>
</linearGradient>
<linearGradient id="paint8_linear_761_212" x1="295.938" y1="2.5" x2="295.938" y2="1074.41" gradientUnits="userSpaceOnUse">
<stop offset="0.8125" stop-color="#C5BADA"/>
<stop offset="0.903846" stop-color="#5830A1"/>
</linearGradient>
<linearGradient id="paint9_linear_761_212" x1="295.938" y1="2.5" x2="295.938" y2="1074.41" gradientUnits="userSpaceOnUse">
<stop offset="0.956731" stop-color="#8D64D6"/>
<stop offset="1" stop-color="white"/>
</linearGradient>
<linearGradient id="paint10_linear_761_212" x1="295.938" y1="2.5" x2="295.938" y2="1074.41" gradientUnits="userSpaceOnUse">
<stop offset="0.918269" stop-color="#5C37A3"/>
<stop offset="0.947115" stop-color="#8D64D6"/>
</linearGradient>
<linearGradient id="paint11_linear_761_212" x1="295.938" y1="2.5" x2="295.938" y2="1074.41" gradientUnits="userSpaceOnUse">
<stop offset="0.798077" stop-color="#5E2EA8"/>
<stop offset="0.822115" stop-color="#3C2086"/>
</linearGradient>
<linearGradient id="paint12_linear_761_212" x1="295.938" y1="2.5" x2="295.938" y2="1074.41" gradientUnits="userSpaceOnUse">
<stop offset="0.802885" stop-color="#5E2EA8"/>
<stop offset="1" stop-color="white"/>
</linearGradient>
<linearGradient id="paint13_linear_761_212" x1="295.938" y1="2.5" x2="295.938" y2="1074.41" gradientUnits="userSpaceOnUse">
<stop offset="0.850962" stop-color="#5C2DA7"/>
<stop offset="0.903846" stop-color="white"/>
</linearGradient>
<linearGradient id="paint14_linear_761_212" x1="295.938" y1="2.5" x2="295.938" y2="1074.41" gradientUnits="userSpaceOnUse">
<stop offset="0.865385" stop-color="#B09AD5"/>
<stop offset="1" stop-color="white"/>
</linearGradient>
<linearGradient id="paint15_linear_761_212" x1="295.938" y1="2.5" x2="295.938" y2="1074.41" gradientUnits="userSpaceOnUse">
<stop stop-color="#705B9D"/>
<stop offset="0.413462" stop-color="#7954C5"/>
<stop offset="0.461538" stop-color="#512E9A"/>
<stop offset="0.485577" stop-color="white"/>
</linearGradient>
<linearGradient id="paint16_linear_761_212" x1="295.938" y1="2.5" x2="295.938" y2="1074.41" gradientUnits="userSpaceOnUse">
<stop offset="0.620192" stop-color="#372558"/>
<stop offset="0.658654" stop-color="#7650BE"/>
</linearGradient>
<linearGradient id="paint17_linear_761_212" x1="295.938" y1="2.5" x2="295.938" y2="1074.41" gradientUnits="userSpaceOnUse">
<stop offset="0.298077" stop-color="#41228B"/>
<stop offset="0.365385" stop-color="#A77CEA"/>
</linearGradient>
<linearGradient id="paint18_linear_761_212" x1="295.938" y1="2.5" x2="295.938" y2="1074.41" gradientUnits="userSpaceOnUse">
<stop offset="0.778846" stop-color="#502C98"/>
<stop offset="0.8" stop-color="#9871DE"/>
</linearGradient>
</defs>
</svg>
