<svg width="217" height="32" viewBox="0 0 217 32" fill="none" xmlns="http://www.w3.org/2000/svg">
<path d="M28.1797 25.3259C28.1797 27.2884 27.4472 28.9125 25.9821 30.1983C24.6086 31.3994 22.968 32 21.0604 32C19.4122 32 17.9319 31.5178 16.6194 30.5535C15.1543 29.4708 14.1166 27.9228 13.5061 25.9096C13.384 25.5036 12.827 23.3043 11.835 19.3117C10.9346 15.6912 10.1487 12.8575 9.47718 10.8105C8.54625 8.01903 7.79082 6.66561 7.2109 6.7502C6.82937 6.8517 6.5623 7.02934 6.40969 7.28311C6.25708 7.51996 6.18077 7.85831 6.18077 8.29818V31.5686H0V6.69944C0 4.43246 0.770688 2.70685 2.31207 1.5226C3.63979 0.507534 5.34141 0 7.41692 0C10.1945 0 12.3997 1.54798 14.0326 4.64393C15.1314 6.7079 16.1768 10.0492 17.1688 14.6677C18.2676 19.7431 19.0688 22.8898 19.5724 24.1079C19.8471 24.7676 20.2668 25.0975 20.8315 25.0975C21.1367 25.0975 21.3962 24.9622 21.6098 24.6915C21.8387 24.4208 21.9532 24.0486 21.9532 23.5749V0.329898H28.1797V25.3259Z" fill="white"/>
<path d="M64.1445 20.4536C64.1445 24.0402 62.8931 26.8993 60.3903 29.0309C58.1316 30.9596 55.3693 31.9239 52.1034 31.9239C48.9291 31.9239 46.2584 30.9765 44.0913 29.0817C41.6648 26.967 40.4515 24.0909 40.4515 20.4536V0.558287H46.5179V19.337C46.5179 20.9611 47.1436 22.2638 48.395 23.245C49.5396 24.1417 50.9207 24.59 52.5384 24.59C54.095 24.59 55.4075 24.1586 56.4758 23.2958C57.6661 22.3315 58.2613 21.0119 58.2613 19.337V0.558287H64.1445V20.4536Z" fill="white"/>
<path d="M94.8671 31.5686H85.7332C82.4521 31.5686 79.8653 29.9868 77.9729 26.8232C76.2637 23.981 75.4091 20.479 75.4091 16.3172C75.4091 12.0878 76.279 8.48427 78.0187 5.50674C79.9416 2.20777 82.5131 0.558287 85.7332 0.558287H94.8671C98.0872 0.558287 100.659 2.20777 102.582 5.50674C104.321 8.48427 105.191 12.0962 105.191 16.3426C105.191 20.5044 104.344 23.9979 102.65 26.8232C100.758 29.9868 98.1635 31.5686 94.8671 31.5686ZM93.8369 24.8438C95.302 24.8438 96.4771 23.8964 97.3622 22.0016C98.1711 20.276 98.5755 18.1951 98.5755 15.7589C98.5755 13.3904 98.1863 11.4026 97.408 9.7954C96.5381 8.00211 95.3478 7.10547 93.8369 7.10547H86.7634C85.2525 7.10547 84.0621 8.00211 83.1923 9.7954C82.4139 11.4026 82.0248 13.3904 82.0248 15.7589C82.0248 18.212 82.4216 20.2929 83.2151 22.0016C84.1003 23.8964 85.283 24.8438 86.7634 24.8438H93.8369Z" fill="white"/>
<path d="M132.961 19.337H127.009C125.483 19.337 124.392 19.9038 123.735 21.0373C123.293 21.8155 123.072 22.7883 123.072 23.9556C123.072 24.3785 123.072 24.6323 123.072 24.7169C123.087 24.8015 123.11 24.8861 123.14 24.9707V31.5686H117.051C117.051 31.0611 117.051 30.359 117.051 29.4623C117.051 28.5657 117.051 27.3899 117.051 25.935C117.051 24.48 117.051 22.9321 117.051 21.291C117.051 18.821 117.6 16.8247 118.699 15.3021C119.981 13.5258 121.866 12.6376 124.353 12.6376H131.931C132.633 12.6376 133.174 12.3754 133.556 11.8509C133.937 11.3095 134.128 10.6751 134.128 9.94766C134.128 9.16944 133.945 8.51811 133.579 7.99365C133.167 7.40153 132.617 7.10547 131.931 7.10547H117.051V0.558287H132.961C135.341 0.558287 137.226 1.53106 138.615 3.4766C139.866 5.23605 140.492 7.39307 140.492 9.94766C140.492 12.4853 139.866 14.6339 138.615 16.3933C137.226 18.3558 135.341 19.337 132.961 19.337Z" fill="white"/>
<path d="M176.388 31.5686H160.478C158.098 31.5686 156.213 30.5789 154.824 28.5995C153.573 26.8232 152.947 24.6408 152.947 22.0523C152.947 19.7177 153.474 17.696 154.527 15.9873C153.474 14.2786 152.947 12.2739 152.947 9.97304C152.947 7.43537 153.573 5.27835 154.824 3.50198C156.213 1.53952 158.098 0.558287 160.478 0.558287H176.388V7.10547H161.509C160.837 7.10547 160.303 7.39307 159.906 7.96828C159.525 8.52656 159.334 9.18636 159.334 9.94766C159.334 10.692 159.517 11.3265 159.883 11.8509C160.265 12.3754 160.807 12.6376 161.509 12.6376H176.388V19.337H160.662C160.25 19.54 159.921 19.8953 159.677 20.4029C159.448 20.9104 159.334 21.4687 159.334 22.0777C159.334 22.839 159.517 23.4988 159.883 24.0571C160.265 24.6154 160.807 24.8945 161.509 24.8945H176.388V31.5686Z" fill="white"/>
<path d="M217 25.3259C217 27.2884 216.267 28.9125 214.802 30.1983C213.429 31.3994 211.788 32 209.881 32C208.232 32 206.752 31.5178 205.44 30.5535C203.975 29.4708 202.937 27.9228 202.326 25.9096C202.204 25.5036 201.647 23.3043 200.655 19.3117C199.755 15.6912 198.969 12.8575 198.297 10.8105C197.367 8.01903 196.611 6.66561 196.031 6.7502C195.65 6.8517 195.383 7.02934 195.23 7.28311C195.077 7.51996 195.001 7.85831 195.001 8.29818V31.5686H188.82V6.69944C188.82 4.43246 189.591 2.70685 191.132 1.5226C192.46 0.507534 194.162 0 196.237 0C199.015 0 201.22 1.54798 202.853 4.64393C203.952 6.7079 204.997 10.0492 205.989 14.6677C207.088 19.7431 207.889 22.8898 208.393 24.1079C208.667 24.7676 209.087 25.0975 209.652 25.0975C209.957 25.0975 210.216 24.9622 210.43 24.6915C210.659 24.4208 210.773 24.0486 210.773 23.5749V0.329898H217V25.3259Z" fill="white"/>
</svg>
