<svg width="90" height="81" viewBox="0 0 90 81" fill="none" xmlns="http://www.w3.org/2000/svg">
<path d="M31.5 36C35.0601 36 38.5402 34.9443 41.5003 32.9665C44.4603 30.9886 46.7675 28.1774 48.1298 24.8883C49.4922 21.5992 49.8487 17.98 49.1541 14.4884C48.4596 10.9967 46.7453 7.78943 44.2279 5.27208C41.7106 2.75474 38.5033 1.04041 35.0116 0.345873C31.52 -0.348661 27.9008 0.00779903 24.6117 1.37018C21.3226 2.73255 18.5114 5.03966 16.5335 7.99974C14.5557 10.9598 13.5 14.4399 13.5 18C13.5 22.7739 15.3964 27.3523 18.7721 30.7279C22.1477 34.1036 26.7261 36 31.5 36ZM67.5 45C70.17 45 72.7801 44.2082 75.0002 42.7248C77.2203 41.2414 78.9506 39.133 79.9724 36.6662C80.9942 34.1994 81.2615 31.485 80.7406 28.8663C80.2197 26.2475 78.934 23.8421 77.0459 21.9541C75.1579 20.0661 72.7525 18.7803 70.1337 18.2594C67.515 17.7385 64.8006 18.0059 62.3338 19.0276C59.867 20.0494 57.7586 21.7797 56.2752 23.9998C54.7918 26.2199 54 28.83 54 31.5C54 35.0804 55.4223 38.5142 57.9541 41.046C60.4858 43.5777 63.9196 45 67.5 45ZM85.5 76.5C86.6935 76.5 87.8381 76.0259 88.682 75.182C89.5259 74.3381 90 73.1935 90 72C89.9964 67.7943 88.8141 63.6738 86.5872 60.106C84.3604 56.5382 81.1781 53.6659 77.4016 51.8151C73.625 49.9643 69.4053 49.209 65.2212 49.635C61.0371 50.061 57.0561 51.6511 53.73 54.225C49.3223 49.8346 43.7133 46.8477 37.6102 45.6409C31.5072 44.4342 25.1834 45.0616 19.4365 47.4441C13.6896 49.8266 8.77686 53.8575 5.31784 59.0285C1.85881 64.1994 0.00841587 70.2788 0 76.5C0 77.6935 0.474106 78.8381 1.31802 79.682C2.16193 80.5259 3.30653 81 4.5 81H58.5C59.6935 81 60.8381 80.5259 61.682 79.682C62.5259 78.8381 63 77.6935 63 76.5" fill="#960002"/>
</svg>
