<svg width="672" height="95" viewBox="0 0 672 95" fill="none" xmlns="http://www.w3.org/2000/svg">
<g clip-path="url(#clip0_1621_13145)">
<path d="M472.881 83.916C463.975 83.916 457.022 80.7645 452.022 74.4622C447.021 68.0914 444.521 59.0147 444.521 47.2321C444.521 41.5463 445.137 36.4429 446.37 31.9216C447.672 27.3319 449.556 23.4615 452.022 20.3103C454.488 17.0906 457.536 14.6588 461.167 13.0147C464.866 11.3021 469.079 10.4458 473.805 10.4458C477.094 10.4458 480.04 10.9254 482.643 11.8844C485.246 12.775 487.37 13.8025 489.014 14.9671V24.9343C487.164 23.7697 484.971 22.6736 482.437 21.6461C479.971 20.6185 477.299 20.1048 474.422 20.1048C468.325 20.1048 463.907 22.3311 461.167 26.7839C458.495 31.1681 457.159 37.9842 457.159 47.2321C457.159 56.2061 458.495 62.9537 461.167 67.4749C463.907 71.9962 468.12 74.2567 473.805 74.2567C477.094 74.2567 479.937 73.7772 482.334 72.8181C484.732 71.7906 486.959 70.5233 489.014 69.0162V78.9835C487.438 80.0799 485.315 81.1755 482.643 82.2719C480.04 83.3675 476.785 83.916 472.881 83.916Z" fill="white"/>
<path d="M509.498 82.8885H497.27V11.4734H509.498V82.8885Z" fill="white"/>
<path d="M540.501 30.1756C543.858 30.1756 546.941 30.7578 549.75 31.9224C552.558 33.087 554.956 34.8338 556.943 37.1629C558.929 39.4236 560.471 42.2322 561.566 45.5888C562.731 48.8771 563.313 52.6789 563.313 56.9947C563.313 61.3104 562.731 65.1466 561.566 68.5032C560.471 71.8599 558.929 74.7028 556.943 77.032C554.956 79.2927 552.558 81.0056 549.75 82.1699C546.941 83.3343 543.858 83.9168 540.501 83.9168C537.145 83.9168 534.062 83.3343 531.254 82.1699C528.445 81.0056 526.048 79.2927 524.061 77.032C522.074 74.7028 520.499 71.8942 519.334 68.606C518.238 65.2494 517.69 61.4131 517.69 57.0974C517.69 52.7817 518.238 48.9455 519.334 45.5888C520.499 42.2322 522.074 39.4236 524.061 37.1629C526.048 34.8338 528.445 33.087 531.254 31.9224C534.062 30.7578 537.145 30.1756 540.501 30.1756ZM540.501 74.2575C543.927 74.2575 546.461 72.8875 548.106 70.1474C549.818 67.4072 550.675 63.023 550.675 56.9947C550.675 50.9664 549.818 46.6164 548.106 43.9448C546.461 41.2046 543.927 39.8346 540.501 39.8346C537.076 39.8346 534.507 41.2046 532.795 43.9448C531.151 46.6849 530.329 51.0692 530.329 57.0974C530.329 63.1257 531.151 67.5099 532.795 70.25C534.507 72.9217 537.076 74.2575 540.501 74.2575Z" fill="white"/>
<path d="M599.792 31.2032H612.02V82.8894H600.101L599.792 78.5734H599.176C597.943 79.8066 596.196 80.9709 593.935 82.0673C591.743 83.1629 588.798 83.7114 585.098 83.7114C580.097 83.7114 576.501 82.5471 574.309 80.2176C572.117 77.8198 571.021 74.0521 571.021 68.9144V31.2032H583.249V67.6813C583.249 71.5175 585.338 73.4356 589.517 73.4356C591.709 73.4356 593.661 72.9218 595.374 71.8943C597.155 70.8667 598.628 69.6679 599.792 68.2979V31.2032Z" fill="white"/>
<path d="M653.521 76.2091C650.165 81.3471 645.574 83.9161 639.752 83.9161C636.875 83.9161 634.238 83.3335 631.839 82.1692C629.442 81.0048 627.387 79.2919 625.675 77.0312C623.962 74.7705 622.626 71.9962 621.667 68.708C620.708 65.4198 620.228 61.6522 620.228 57.4049C620.228 53.0892 620.708 49.253 621.667 45.8963C622.695 42.4712 624.064 39.6283 625.777 37.3677C627.558 35.0386 629.682 33.2575 632.148 32.0244C634.614 30.7914 637.32 30.1748 640.266 30.1748C645.609 30.1748 649.924 32.5382 653.213 37.2649V11.4734H665.441V82.8885H654.137L653.521 76.2091ZM643.348 39.8338C639.855 39.8338 637.217 41.2381 635.436 44.0467C633.724 46.7869 632.867 51.2396 632.867 57.4049C632.867 63.2962 633.689 67.5777 635.333 70.2493C636.977 72.9209 639.478 74.2567 642.835 74.2567C646.191 74.2567 648.726 72.9895 650.438 70.4548C652.151 67.8517 653.076 63.673 653.213 57.9187V55.2471C653.076 49.9038 652.185 45.9991 650.541 43.533C648.897 41.0669 646.499 39.8338 643.348 39.8338Z" fill="white"/>
<path d="M400.538 85.9453C391.063 92.4294 379.639 92.0926 356.71 92.2293L338.507 92.1985L347.716 67.3936L361.362 67.3678C372.461 67.3926 379.083 66.5506 384.471 62.6953C389.713 58.9409 392.905 53.169 396.741 42.7541L401.51 29.9687L427.968 29.9581L421.618 46.9643C413.569 68.4878 409.912 79.3158 400.538 85.9453Z" fill="#2A9FFF"/>
<path d="M347.588 9.05517C357.064 2.57073 368.487 2.90752 391.416 2.771L409.62 2.80173L400.41 27.6066L386.765 27.6324C375.666 27.6076 369.043 28.4496 363.656 32.3049C358.414 36.0593 355.221 41.8311 351.385 52.246L346.617 65.0315L320.157 65.042L326.508 48.0359C334.558 26.5124 338.214 15.6846 347.588 9.05517Z" fill="#2A9FFF"/>
<path d="M302.353 31.1809H290.161L281.262 46.8168L271.386 31.1809H257.621L273.257 55.9409L257.025 82.8692H269.444L279.84 65.4395L290.835 82.8692H304.673L287.766 56.2412L302.353 31.1809Z" fill="white"/>
<path d="M233.537 30.1341C218.65 30.1341 211.545 41.5783 211.545 57.2102C211.545 75.1622 220.373 83.9162 236.005 83.9162C243.859 83.9162 249.617 81.8958 253.209 79.428V69.4031C249.395 71.9453 243.036 74.2654 237.05 74.2654C228.074 74.2654 224.709 70.0036 224.182 61.398H253.731V54.8902C253.731 36.9382 245.804 30.1301 233.533 30.1301L233.537 30.1341ZM241.242 52.3479H224.186C224.487 44.1205 227.478 39.7807 233.389 39.7807C239.3 39.7807 241.242 44.7912 241.242 51.299V52.3479Z" fill="white"/>
<path d="M191.488 37.2396C188.419 32.6035 183.857 30.1353 178.546 30.1353C166.654 30.1353 158.426 40.3083 158.426 57.3635C158.426 74.4187 166.505 83.9167 178.024 83.9167C183.783 83.9167 188.497 81.2229 191.788 76.2123L192.385 82.8686H203.681V11.4346H191.488V37.2396ZM181.092 74.2666C174.437 74.2666 171.145 69.6304 171.145 57.3635C171.145 45.0965 174.585 39.7858 181.619 39.7858C188.201 39.7858 191.492 44.9484 191.492 56.9891C191.492 69.0299 187.975 74.2666 181.092 74.2666Z" fill="white"/>
<path d="M136.137 30.3581C128.807 30.3581 124.545 32.9745 122.073 35.4427H121.398L121.098 31.1808H109.206V82.8686H121.398V45.7678C123.718 42.9994 127.309 40.6052 131.719 40.6052C136.129 40.6052 138.001 42.4769 138.001 46.3644V82.8686H150.194V45.1673C150.194 34.8461 146.08 30.3581 136.129 30.3581H136.137Z" fill="white"/>
<path d="M99.1908 47.6401C99.1908 35.0729 92.8316 30.3626 79.8933 30.3626C71.8886 30.2885 65.3807 33.7276 61.6414 36.4219V46.9694C65.6069 43.8266 71.5142 40.0872 78.4704 40.0872C84.3033 40.0872 86.998 42.1812 86.998 47.718V51.0089H85.0527C66.2776 51.0089 57.9762 57.0683 57.9762 67.838C57.9762 77.8629 64.3358 83.6217 73.8343 83.6217C81.0166 83.6217 84.0812 81.2282 86.4755 78.7597H86.998C87.0723 80.1049 87.5205 81.8281 87.8951 82.8731H99.8619C99.4129 78.6856 99.1869 74.4199 99.1869 70.2321V47.6439L99.1908 47.6401ZM86.998 70.5284C85.4265 72.8485 82.5841 74.6421 78.2482 74.6421C73.0857 74.6421 70.5433 71.6514 70.5433 67.1635C70.5433 61.1781 74.7311 59.1583 85.2044 59.1583H86.998V70.5284Z" fill="white"/>
<path d="M50.5665 11.4346L35.3089 45.9934H48.0242L63.2078 11.4346H50.5665Z" fill="white"/>
<path d="M16.8995 11.4346H3.95801L27.4469 62.448V82.8686H39.862V70.7494C39.862 61.6253 38.7391 58.931 35.2259 51.3002L16.8995 11.4346Z" fill="white"/>
</g>
<defs>
<clipPath id="clip0_1621_13145">
<rect width="671.333" height="95" fill="white"/>
</clipPath>
</defs>
</svg>
